<svg width="768" height="200" viewBox="0 0 768 200" fill="none" xmlns="http://www.w3.org/2000/svg">
<path d="M83.9987 1.66746C84.3987 2.46746 83.8654 3.4008 82.7987 3.8008C79.8654 5.0008 81.4654 6.86746 84.6654 6.06746C86.6654 5.53413 87.332 6.06746 87.332 8.2008C87.332 11.1341 89.1987 11.9341 90.6654 9.66746C91.0654 8.86746 90.7987 8.33413 90.132 8.33413C89.332 8.33413 88.6654 7.66746 88.6654 6.86746C88.6654 6.06746 91.0654 5.66746 94.3987 5.8008C103.332 6.33413 112.132 5.66746 110.399 4.6008C109.599 4.06746 104.665 3.66746 99.4654 3.8008C92.932 3.93413 89.5987 3.4008 88.532 2.2008C86.7987 0.0674646 82.7987 -0.332535 83.9987 1.66746Z" fill="white"/>
<path d="M112.666 7.00065C112.666 7.66732 113.599 8.33398 114.666 8.33398C115.733 8.33398 116.666 7.66732 116.666 7.00065C116.666 6.20065 115.733 5.66732 114.666 5.66732C113.599 5.66732 112.666 6.20065 112.666 7.00065Z" fill="white"/>
<path d="M83.3319 13.534C83.3319 14.2006 82.1319 15.0006 80.6652 15.4006C79.1985 15.8006 77.9985 17.0006 77.9985 18.0673C77.9985 19.534 77.0652 19.8006 75.0652 19.2673C72.3985 18.6006 72.2652 18.8673 73.5985 20.6006C74.5318 21.6673 74.9318 23.0006 74.3985 23.4006C73.0652 24.734 68.3985 24.4673 69.1985 23.134C69.7318 22.4673 68.7985 22.2006 67.3318 22.6006C64.1318 23.4006 63.9985 23.934 66.5318 26.4673C69.5985 29.4006 70.1318 29.2673 79.3318 21.4006C80.3985 20.4673 81.7319 19.8006 82.3985 20.0673C83.0652 20.2006 83.3319 19.6673 82.9319 18.734C82.6652 17.8006 83.1985 15.934 84.3985 14.6006C85.7319 13.134 85.8652 12.334 84.9319 12.334C83.9985 12.334 83.3319 12.8673 83.3319 13.534Z" fill="white"/>
<path d="M128.666 15.667C128.666 16.7337 129.333 17.667 129.999 17.667C130.799 17.667 131.333 16.7337 131.333 15.667C131.333 14.6003 130.799 13.667 129.999 13.667C129.333 13.667 128.666 14.6003 128.666 15.667Z" fill="white"/>
<path d="M99.9994 16.467C97.0661 17.0004 94.1327 17.1337 93.5994 16.7337C89.8661 14.467 80.2661 23.1337 83.1994 26.067C84.2661 27.1337 84.6661 26.867 84.6661 25.267C84.6661 22.3337 89.8661 20.2004 99.5994 19.1337C104.533 18.6004 106.933 17.8004 106.266 17.0004C105.733 16.067 103.199 15.9337 99.9994 16.467Z" fill="white"/>
<path d="M207.332 20.3337C207.332 21.0003 207.865 21.667 208.532 21.667C209.332 21.667 210.265 21.0003 210.665 20.3337C211.065 19.5337 210.532 19.0003 209.465 19.0003C208.265 19.0003 207.332 19.5337 207.332 20.3337Z" fill="white"/>
<path d="M219.332 20.4672C219.332 21.1339 219.999 21.4005 220.665 21.0005C221.465 20.6005 221.999 19.9339 221.999 19.5339C221.999 19.2672 221.465 19.0005 220.665 19.0005C219.999 19.0005 219.332 19.6672 219.332 20.4672Z" fill="white"/>
<path d="M601.599 20.734C601.199 21.6674 601.199 24.0674 601.599 25.934C602.132 29.0007 602.665 29.2674 606.132 28.334L609.999 27.134V97.4007C609.999 136.067 610.532 168.334 611.065 169.267C611.599 170.067 611.865 142.201 611.732 107.267C611.599 72.4674 611.999 39.6674 612.532 34.4674C613.199 28.4674 613.199 24.334 612.265 23.2674C611.599 22.334 610.665 21.934 610.265 22.334C609.865 22.734 608.799 22.334 607.732 21.534C606.399 20.334 605.999 20.4674 605.999 22.2007C605.999 23.4007 605.332 24.334 604.532 24.334C603.732 24.334 603.332 23.4007 603.732 22.334C604.265 21.2674 603.999 20.0674 603.465 19.6674C602.799 19.2674 601.999 19.8007 601.599 20.734Z" fill="white"/>
<path d="M91.332 25.667C91.332 27.667 91.9987 28.3337 93.732 28.067C94.932 27.8004 95.9987 26.7337 95.9987 25.667C95.9987 24.6004 94.932 23.5337 93.732 23.267C91.9987 23.0004 91.332 23.667 91.332 25.667Z" fill="white"/>
<path d="M203.332 24.8673C203.332 26.7339 208.265 28.7339 210.132 27.5339C210.799 27.2673 210.932 26.0673 210.399 25.0006C209.465 22.4673 203.332 22.3339 203.332 24.8673Z" fill="white"/>
<path d="M214.8 24.3339C216.4 25.0006 218.134 26.2006 218.667 27.0006C219.334 28.0673 220.134 28.0673 221.467 26.8673C222.667 25.9339 223.334 25.8006 223.2 26.4673C223.067 27.1339 223.067 30.6006 223.334 34.3339C223.467 39.4006 223.867 40.3339 224.667 38.3339C225.334 36.8673 225.867 33.1339 225.867 30.0673C226 23.9339 225.067 23.2673 216.667 23.2673C212.8 23.2673 212.534 23.4006 214.8 24.3339Z" fill="white"/>
<path d="M597.332 25.5337C596.932 26.2003 597.199 27.1337 597.999 27.667C598.666 28.067 599.332 27.5337 599.332 26.467C599.332 24.067 598.532 23.667 597.332 25.5337Z" fill="white"/>
<path d="M61.4652 27.8008C60.9319 29.4008 59.7319 29.6674 57.3319 29.1341L53.8652 28.2008L56.6652 31.0008C60.2652 34.6008 61.5986 34.3341 62.3986 29.9341C63.1986 25.8008 62.6652 24.6008 61.4652 27.8008Z" fill="white"/>
<path d="M117.732 30.3337C117.999 32.2003 117.599 34.6003 116.665 35.667C115.465 37.0003 115.465 37.667 116.532 37.667C117.332 37.667 117.999 37.0003 117.999 36.2003C117.999 35.4003 118.799 35.0003 119.865 35.4003C122.132 36.3337 123.599 30.467 121.599 28.467C118.932 25.8003 117.065 26.867 117.732 30.3337Z" fill="white"/>
<path d="M123.332 27.9335C123.332 28.6002 123.865 29.9335 124.665 31.0002C126.132 33.4002 127.999 31.9335 126.932 29.0002C126.132 27.0002 123.332 26.2002 123.332 27.9335Z" fill="white"/>
<path d="M614.532 30.2006C614.132 31.2673 614.398 37.0007 615.065 43.134L616.398 54.334L616.132 41.4007C616.132 34.2006 615.865 28.334 615.598 28.334C615.465 28.334 614.932 29.134 614.532 30.2006Z" fill="white"/>
<path d="M104.932 31.9333C102.665 33.5333 101.465 33.6666 100.399 32.6C97.8654 30.0666 95.332 30.7333 95.332 34.0666C95.332 36.8666 96.2654 37.2666 103.332 38.4666C109.732 39.5333 111.332 39.4 111.332 38.0666C111.332 37.1333 111.999 36.3333 112.665 36.3333C115.065 36.3333 114.132 32.4666 111.465 31C108.265 29.4 108.665 29.2666 104.932 31.9333Z" fill="white"/>
<path d="M42.3986 37.2673C39.4653 37.8007 37.9986 40.334 40.6653 40.334C41.3319 40.334 41.5986 41.2673 41.1986 42.334C40.3986 44.334 43.0653 45.0007 49.3319 44.334C52.6653 43.934 52.5319 44.334 51.7319 39.934C51.0653 36.2007 49.5986 35.8007 42.3986 37.2673Z" fill="white"/>
<path d="M56.7986 39.8003C57.5986 40.867 59.1986 41.667 60.2653 41.667C62.932 41.667 61.332 39.5337 57.9986 38.6003C55.732 38.067 55.4653 38.2003 56.7986 39.8003Z" fill="white"/>
<path d="M606.134 42.4665C606.134 43.9332 606.534 44.3332 606.934 43.2665C607.334 42.3332 607.2 41.1332 606.8 40.7332C606.4 40.1998 606 40.9998 606.134 42.4665Z" fill="white"/>
<path d="M30.666 44.3341C31.1993 45.1341 32.1327 45.4008 32.7993 45.0008C34.666 43.8008 34.266 43.0008 31.866 43.0008C30.7993 43.0008 30.266 43.6675 30.666 44.3341Z" fill="white"/>
<path d="M118.799 45.2673C117.999 47.2673 117.732 47.2673 116.665 45.6673C115.865 44.6007 115.332 44.334 115.332 45.134C115.332 45.934 113.599 47.4007 111.332 48.334C109.199 49.2673 107.332 50.4673 107.332 51.134C107.332 52.734 109.599 52.6007 110.665 51.0007C111.865 49.0007 113.999 50.734 113.999 53.8007C113.999 55.2673 114.932 56.334 116.132 56.334C117.599 56.334 117.999 55.534 117.199 53.2673C115.065 46.334 115.065 46.2007 116.265 48.0673C117.199 49.4007 117.999 49.134 119.865 47.134C121.199 45.6673 121.599 44.2007 120.932 43.8007C120.132 43.4007 119.199 44.0673 118.799 45.2673Z" fill="white"/>
<path d="M78 45.6668C78 47.4001 79.4667 47.4001 82 45.6668C83.6 44.6001 83.4667 44.3335 81.0667 44.3335C79.3333 44.3335 78 44.8668 78 45.6668Z" fill="white"/>
<path d="M90.3991 47.0008C86.9324 48.4674 86.3991 51.6674 89.1991 52.7341C90.3991 53.2674 91.5991 52.4674 92.1324 50.7341C92.9324 48.2008 93.0658 48.2008 94.2658 50.0674C95.9991 53.2674 98.2658 52.8674 97.7324 49.4008C97.3324 45.9341 94.7991 45.2674 90.3991 47.0008Z" fill="white"/>
<path d="M101.066 47.6669C98.7997 50.0669 98.9331 51.9336 101.066 52.7336C102.133 53.1336 102.933 52.0669 103.066 49.5336C103.466 45.1336 103.333 45.0003 101.066 47.6669Z" fill="white"/>
<path d="M22 49.4002C22 49.9335 23.2 51.4002 24.6667 52.7335C27.7333 55.2669 28.1333 54.2002 25.4667 50.6002C23.6 48.2002 22 47.6669 22 49.4002Z" fill="white"/>
<path d="M46.399 49.8C43.3324 50.8666 42.5324 52.4666 44.2657 54.0666C44.6657 54.6 45.999 54.2 47.0657 53.2666C48.799 51.9333 48.9324 52.0666 47.999 53.6666C47.199 55.2666 47.3324 55.2666 48.5324 54.2C51.3324 51.5333 49.8657 48.4666 46.399 49.8Z" fill="white"/>
<path d="M14.7991 50.7333C14.2658 51.6667 14.5325 52.3333 15.1991 52.3333C15.9991 52.3333 16.6658 53 16.6658 53.8C16.6658 54.6 15.5991 55 14.1325 54.6C12.5325 54.2 11.7325 54.7333 11.8658 56.2C11.9991 57.6667 11.0658 58.2 8.6658 57.9333C6.79913 57.8 5.99913 58.0667 6.6658 58.6C7.4658 59.2667 8.13246 61.4 8.2658 63.6667C8.79913 70.2 9.0658 71 10.2658 71C10.7991 71 11.3325 70.4667 11.3325 69.8C11.3325 69.1333 13.1991 67.9333 15.4658 67C17.8658 65.9333 19.1991 64.6 18.7991 63.5333C18.3991 62.3333 19.0658 61.6667 20.6658 61.6667C22.1325 61.6667 23.3325 61 23.3325 60.3333C23.3325 58.4667 19.8658 58.6 16.6658 60.6C14.6658 61.9333 13.7325 61.9333 12.3991 60.6C11.0658 59.2667 11.3325 58.7333 13.7325 58.2C15.3325 57.6667 16.6658 56.7333 16.6658 56.0667C16.6658 55.2667 18.5325 55.1333 21.0658 55.6667C25.0658 56.6 25.1991 56.4667 22.6658 54.4667C21.1991 53.4 19.3325 52.3333 18.3991 52.3333C17.5991 52.3333 16.6658 51.6667 16.3991 50.7333C15.9991 49.5333 15.5991 49.5333 14.7991 50.7333Z" fill="white"/>
<path d="M80.933 54.6C81.1996 55.9333 82.2663 57 83.333 57C84.3996 57 85.4663 55.9333 85.733 54.6C85.9996 53 85.333 52.3333 83.333 52.3333C81.333 52.3333 80.6663 53 80.933 54.6Z" fill="white"/>
<path d="M98 55.0007C98 55.6673 98.6667 56.334 99.4667 56.334C100.133 56.334 100.4 55.6673 100 55.0007C99.6 54.2007 98.9333 53.6673 98.5333 53.6673C98.2667 53.6673 98 54.2007 98 55.0007Z" fill="white"/>
<path d="M53.4665 59.6673C51.9999 60.7339 49.0665 61.6673 46.7999 61.6673C44.6665 61.6673 43.3332 62.0673 43.7332 62.4673C44.1332 63.0006 43.9999 64.3339 43.4665 65.5339C42.3999 67.4006 43.3332 67.6673 51.0665 67.2673C56.2665 67.0006 60.3999 66.0673 61.3332 65.0006C61.9999 64.0673 63.8665 63.0006 65.3332 62.7339C67.5999 62.3339 67.1999 61.9339 63.4665 59.9339C57.9999 57.1339 56.7999 57.1339 53.4665 59.6673Z" fill="white"/>
<path d="M79.332 61.6667C79.332 62.3333 80.532 63 82.132 63C83.5987 63 84.3987 62.3333 83.9987 61.6667C83.5987 60.8667 82.2654 60.3333 81.1987 60.3333C80.132 60.3333 79.332 60.8667 79.332 61.6667Z" fill="white"/>
<path d="M208.4 61.2673C206.8 61.6673 206 63.134 206 65.934C206 69.4007 206.267 69.8007 208 68.334C209.467 67.134 210 67.134 210 68.2007C210 69.134 210.667 69.4007 211.333 69.0007C212.933 68.0673 213.2 60.2007 211.733 60.4673C211.067 60.6007 209.6 60.8673 208.4 61.2673Z" fill="white"/>
<path d="M73.9993 62.867C75.5993 63.9336 75.3327 64.467 72.666 65.4003C70.7993 66.067 69.1993 66.2003 68.9327 65.667C68.3993 64.2003 60.666 66.867 60.666 68.3336C60.666 71.1336 66.3993 71.0003 71.9993 68.2003C78.1327 65.1336 79.1993 62.6003 74.5327 61.9336C72.3993 61.5336 72.3993 61.8003 73.9993 62.867Z" fill="white"/>
<path d="M714 62.2004C714 62.4671 714.933 63.0004 716 63.5337C717.067 63.9337 718 63.6671 718 63.0004C718 62.2004 717.067 61.6671 716 61.6671C714.933 61.6671 714 61.9337 714 62.2004Z" fill="white"/>
<path d="M217.199 64.0667C217.733 65 217.333 66.0667 216.133 66.4667C213.733 67.4 213.199 71 215.333 71C216.133 71 216.666 72.2 216.666 73.6667C216.666 75.1333 215.999 76.3333 215.199 76.3333C214.533 76.3333 214.266 76.8667 214.666 77.6667C215.999 79.8 217.733 79.2667 218.666 76.2C219.733 73.1333 222.799 73.5333 222.266 76.8667C221.999 78.0667 222.533 79 223.333 79C223.999 79 224.666 77.8 224.666 76.3333C224.666 74.8667 223.999 73.6667 223.199 73.6667C222.133 73.6667 222.266 73 223.333 71.5333C224.799 69.9333 224.666 69.1333 222.666 67.2667C220.399 65.1333 220.399 65.1333 221.199 68.7333C221.866 71.5333 221.599 72.4667 220.399 72.0667C219.466 71.6667 218.666 69.8 218.666 67.9333C218.533 66.0667 217.999 63.9333 217.333 63.4C216.799 62.8667 216.666 63.1333 217.199 64.0667Z" fill="white"/>
<path d="M404 65.2668C405.466 65.6668 407.466 66.6001 408.4 67.2668C409.466 68.2001 410 68.2001 410 67.2668C410 65.6668 406.666 64.3335 403.6 64.4668C401.866 64.6001 402 64.8668 404 65.2668Z" fill="white"/>
<path d="M687.333 67.0005C686.266 67.6672 685.866 68.7338 686.533 69.2672C687.2 69.8005 688 69.6672 688.266 68.7338C688.533 67.8005 689.6 67.4005 690.666 67.8005C691.6 68.2005 692.8 67.9338 693.333 67.1338C694.4 65.4005 690.133 65.2672 687.333 67.0005Z" fill="white"/>
<path d="M722.666 67.0001C723.199 67.8001 724.133 68.0668 724.799 67.6668C726.666 66.4668 726.266 65.6668 723.866 65.6668C722.799 65.6668 722.266 66.3335 722.666 67.0001Z" fill="white"/>
<path d="M4.93359 70.3341C4.93359 72.4674 5.20026 73.2674 5.60026 71.9341C5.86693 70.7341 5.86693 68.8674 5.60026 67.9341C5.20026 67.1341 4.93359 68.0674 4.93359 70.3341Z" fill="white"/>
<path d="M23.9995 69.2667C22.7995 70.4667 21.9995 72.7334 22.2662 74.3334C23.1995 78.8667 16.9329 82.7334 14.6662 79C13.5995 77.2667 12.2662 77.2667 9.33285 79.5334C6.93285 81.2667 6.93285 81.5334 9.06619 83.6667C10.6662 85.2667 12.5329 85.6667 15.3329 85C17.5995 84.4667 19.3329 83.6667 19.3329 83C19.3329 82.4667 21.7329 81.5334 24.6662 81C27.5995 80.4667 29.9995 79.5334 29.9995 78.8667C29.9995 78.2 29.3329 77.6667 28.5329 77.6667C24.9329 77.6667 28.7995 74.3334 33.9995 73.1334C41.0662 71.4 42.2662 69 36.5329 67.8C29.7329 66.4667 26.3995 66.8667 23.9995 69.2667Z" fill="white"/>
<path d="M250.533 68.6003C250.133 69.1336 252.133 69.6669 254.933 69.8003C271.867 70.2003 276.667 70.8669 282.533 73.5336C290.133 76.8669 295.333 77.1336 295.333 74.3336C295.333 72.2003 293.2 71.6669 292.133 73.5336C291.733 74.2003 290.133 74.4669 288.667 74.0669C286.533 73.5336 286.267 72.8669 287.467 70.7336C288.8 68.3336 288.533 68.2003 286 69.0003C284 69.6669 282.533 69.2669 281.867 68.2003C281.2 67.1336 280.667 67.0003 280.667 67.8003C280.667 68.7336 279.067 69.1336 276.4 68.7336C268.667 67.5336 251.2 67.4003 250.533 68.6003Z" fill="white"/>
<path d="M496 69.1332C494.8 70.3332 491.734 71.5332 489.334 71.6666C486.934 71.7999 484.4 72.3332 483.6 72.8666C482.667 73.3999 480.8 73.1332 479.334 72.3332C477.6 71.3999 476.667 71.3999 476.667 72.3332C476.667 72.9999 477.6 73.6666 478.667 73.6666C479.734 73.6666 480.667 74.5999 480.667 75.6666C480.667 76.7332 479.467 77.6666 478 77.6666C476.534 77.6666 475.334 76.9999 475.334 76.3332C475.334 73.7999 472.667 74.9999 469.067 79.1332C460.134 89.1332 458.934 90.3332 458.267 88.5999C458 87.7999 457.2 86.9999 456.4 86.9999C455.734 86.9999 455.467 88.1999 456 89.5332C456.4 90.9999 456.267 92.4666 455.6 92.8666C454 93.7999 455.2 100.467 457.334 102.467C458.267 103.533 459.6 103.667 460.8 102.867C461.867 102.2 462.134 101.667 461.6 101.667C460.934 101.667 461.6 99.5332 463.2 96.9999C465.867 92.4666 465.867 92.3332 463.334 92.3332C460.8 92.3332 460.8 92.1999 463.6 88.9999C466.534 85.6666 466.534 85.6666 467.6 88.3332C469.067 92.4666 470.4 91.5332 469.467 86.9999C469.067 84.4666 469.2 83.1332 470 83.6666C470.8 84.0666 471.334 83.5332 471.334 82.4666C471.334 80.9999 472.534 80.3332 475.334 80.3332C480.134 80.3332 480.534 82.1999 476.134 84.9999C472.4 87.5332 470.8 92.0666 472.934 94.5999C474.934 96.9999 477.067 95.2666 476.134 91.7999C475.067 87.6666 476.8 85.7999 480.4 87.1332C482 87.7999 483.334 88.9999 483.334 89.7999C483.334 90.8666 483.867 90.8666 485.334 89.6666C486.4 88.8666 488.4 88.4666 490 88.9999C491.467 89.3999 492.667 89.3999 492.667 88.7332C492.667 86.5999 490.667 84.5999 488 83.9332C485.467 83.3999 485.6 83.2666 488.267 83.1332C493.467 82.8666 493.067 80.3332 488 80.3332C484 80.3332 483.2 79.9332 483.867 78.1999C484.267 76.9999 484.667 75.5332 484.667 74.7332C484.667 73.7999 485.334 73.9332 486.534 74.8666C487.867 75.9332 488.667 76.0666 489.334 74.9999C490.4 73.2666 499.334 73.2666 499.334 74.9999C499.334 75.6666 497.334 76.4666 495.067 76.4666C491.867 76.5999 491.467 76.8666 493.734 77.2666C495.334 77.5332 496.667 78.7332 496.667 79.7999C496.667 82.1999 497.2 82.1999 502.134 79.5332C504.667 78.1999 506 76.7332 505.467 75.5332C504.934 74.0666 506.667 73.6666 515.467 73.6666C524.8 73.6666 526.134 73.3999 525.467 71.5332C525.067 70.3332 524.667 68.8666 524.667 68.1999C524.667 67.5332 523.467 66.9999 522 66.9999C520.534 66.9999 519.334 67.6666 519.334 68.4666C519.334 69.3999 517.467 69.6666 514 69.1332C511.067 68.7332 506.4 67.9332 503.467 67.5332C499.734 66.9999 497.734 67.3999 496 69.1332ZM506 70.8666C506 71.5332 504.8 71.7999 503.334 71.3999C501.867 70.9999 500.667 70.4666 500.667 70.1999C500.667 69.9332 501.867 69.6666 503.334 69.6666C504.8 69.6666 506 70.1999 506 70.8666Z" fill="white"/>
<path d="M365.2 71.5339C364.667 73.9339 363.733 74.4672 361.2 73.9339C357.333 73.2672 357.067 75.1339 360.8 77.4005C362.8 78.7339 364 78.7339 365.2 77.6672C366.533 76.6005 367.867 77.4005 370.533 80.8672C372.933 84.2005 374.667 85.2672 376.267 84.7339C378.133 83.9339 378.133 83.6672 375.467 82.6005C373.067 81.4005 372.667 80.4672 373.467 77.1339C374.667 71.4005 375.067 71.0005 378.8 71.0005C380.667 71.0005 381.867 70.4672 381.467 69.8005C380.933 69.1339 379.067 69.0005 376.933 69.5339C374.933 70.0672 371.733 70.0672 369.733 69.5339C366.533 68.7339 365.867 69.0005 365.2 71.5339Z" fill="white"/>
<path d="M487.066 69.2673C487.999 69.6673 489.199 69.5339 489.599 69.1339C490.132 68.7339 489.332 68.3339 487.866 68.4673C486.399 68.4673 485.999 68.8673 487.066 69.2673Z" fill="white"/>
<path d="M697.333 69.5339C695.2 70.0672 690.533 70.3339 687.067 70.3339C683.467 70.3339 680.667 70.7339 680.667 71.2672C680.667 71.8006 679.467 72.3339 678.133 72.3339C676.667 72.3339 675.067 73.0006 674.667 73.8006C673.467 75.5339 675.2 77.4006 676.4 75.6672C676.933 74.8672 678.533 73.6672 680.133 72.7339C682.533 71.5339 683.6 71.8006 686.8 74.4672L690.667 77.8006L685.733 77.0006C682.533 76.4672 680.667 76.7339 680.667 77.6672C680.667 78.3339 681.333 79.0006 682.133 79.0006C682.933 79.0006 685.067 80.2006 686.933 81.6672C688.8 83.1339 691.6 84.3339 693.2 84.3339C695.867 84.4672 695.867 84.4672 693.6 86.2006C691.333 87.9339 691.467 88.0672 694 88.7339C697.333 89.5339 697.6 86.2006 694.533 81.9339C693.333 80.2006 692.667 78.4672 693.067 78.0672C694.133 77.0006 699.467 79.0006 698.667 80.3339C696.667 83.5339 708.933 86.3339 716.667 84.3339C720.933 83.4006 721.067 83.1339 718.4 82.3339C713.733 80.8672 714.8 79.0006 720.267 79.0006C722.933 79.0006 724.667 79.4006 724.267 79.9339C723.333 80.8672 731.067 88.3339 732.933 88.3339C733.467 88.3339 734 89.1339 734 89.9339C734 90.8672 734.933 92.8672 736 94.2006C737.733 96.4672 738 96.6006 738.8 94.4672C739.333 93.1339 738.667 91.2672 737.467 89.8006C734.8 86.8672 734.667 84.3339 737.333 84.3339C738.4 84.3339 739.333 83.4006 739.333 82.2006C739.333 80.6006 740.267 80.2006 742.667 80.6006C744.4 81.0006 745.6 80.8672 745.333 80.2006C744.933 79.6672 745.467 79.0006 746.267 78.6006C747.2 78.3339 747.467 77.5339 746.933 76.8672C746.4 76.2006 745.333 76.4672 744.8 77.4006C744.267 78.3339 743.2 79.0006 742.533 78.8672C739.867 78.4672 735.333 80.7339 735.333 82.6006C735.333 84.8672 731.2 84.4672 730.267 81.9339C730 81.0006 730.933 80.3339 732.533 80.3339C735.333 80.3339 737.467 78.0672 736.133 76.6006C735.6 76.2006 733.467 76.4672 731.333 77.2672C729.067 78.0672 727.333 78.3339 727.333 77.6672C727.333 77.0006 728 76.3339 728.933 76.0672C731.2 75.2672 728.933 72.3339 725.867 72.3339C724.533 72.3339 723.333 71.8006 723.333 71.1339C723.333 70.4672 720.933 69.6672 718 69.4006C715.067 69.1339 712.667 69.2672 712.667 69.6672C712.667 70.7339 719.6 73.6672 722.267 73.6672C723.6 73.6672 724.667 74.2006 724.667 75.0006C724.667 75.6672 722.267 76.3339 719.333 76.3339C716.4 76.3339 714 76.8672 714 77.5339C714 79.4006 704.4 78.3339 700 76.0672L696.133 73.9339L700.667 71.1339C705.467 68.3339 704.533 67.9339 697.333 69.5339ZM694.267 75.2672C693.2 76.3339 692.267 76.0672 690.8 74.7339C688.267 72.0672 689.6 70.7339 692.933 72.4672C694.8 73.5339 695.2 74.3339 694.267 75.2672ZM708.667 80.8672C708.667 82.3339 706.133 82.8672 705.333 81.6672C704.933 81.0006 705.467 80.3339 706.533 80.3339C707.733 80.3339 708.667 80.6006 708.667 80.8672Z" fill="white"/>
<path d="M728.133 70.3337C728.933 72.2003 732.933 73.667 737.333 73.667C739.866 73.5337 739.866 73.5337 737.599 72.2003C736.266 71.4003 733.466 70.2003 731.333 69.667C728.399 68.867 727.599 69.0003 728.133 70.3337Z" fill="white"/>
<path d="M393.2 70.6007C394.666 72.0674 399.333 72.4674 399.333 71.0007C399.333 70.2007 397.733 69.6674 395.733 69.6674C393.866 69.6674 392.666 70.0674 393.2 70.6007Z" fill="white"/>
<path d="M407.2 71.5335C408.267 72.8669 408.4 73.6669 407.333 74.3335C406.667 74.7335 406 76.3335 406 77.6669C406 79.0002 405.333 80.3335 404.4 80.6002C403.467 81.0002 403.333 81.9335 403.867 82.8669C404.667 84.2002 405.467 83.9335 407.2 82.0669C413.333 75.4002 416.933 67.0002 411.733 71.1335C410 72.6002 409.467 72.6002 409.067 71.2669C408.667 70.4669 407.867 69.6669 407.067 69.6669C406.133 69.6669 406.267 70.3335 407.2 71.5335Z" fill="white"/>
<path d="M706.133 72.8675C704.799 74.3341 705.066 75.0008 707.333 75.6675C710.799 76.7341 711.999 75.8008 710.933 73.0008C709.866 70.4674 708.133 70.4674 706.133 72.8675Z" fill="white"/>
<path d="M241.733 73.8C240.399 74.4667 239.333 74.6 239.333 74.0667C239.333 73.5333 238.399 74.7333 237.333 76.8667C235.866 79.5333 235.733 81.2667 236.666 82.2C237.599 83.1333 237.999 83 237.999 81.8C237.999 80.6 239.866 80.2 244.133 80.4667C251.333 81 253.599 78.6 249.866 74.8667C247.066 72.0667 245.066 71.8 241.733 73.8ZM245.999 76.3333C245.999 77 245.466 77.6667 244.666 77.6667C243.999 77.6667 243.333 77 243.333 76.3333C243.333 75.5333 243.999 75 244.666 75C245.466 75 245.999 75.5333 245.999 76.3333Z" fill="white"/>
<path d="M230 75.0007C230 75.6673 230.667 76.334 231.333 76.334C232.133 76.334 232.667 75.6673 232.667 75.0007C232.667 74.2007 232.133 73.6673 231.333 73.6673C230.667 73.6673 230 74.2007 230 75.0007Z" fill="white"/>
<path d="M272.933 74.6003C271.867 75.0003 273.333 76.7336 276.667 79.1336C282.4 83.4003 283.333 83.667 283.333 81.667C283.333 80.867 282.4 80.3336 281.2 80.3336C279.6 80.3336 279.2 79.5336 279.867 77.0003C280.533 74.2003 280.267 73.667 277.733 73.8003C276 73.8003 273.867 74.2003 272.933 74.6003Z" fill="white"/>
<path d="M393.599 74.4665C393.199 74.8665 393.199 76.0665 393.465 76.9999C393.865 78.0665 393.065 78.5999 391.065 78.5999C389.332 78.5999 385.599 78.5999 382.665 78.7332L377.332 78.9999L381.332 81.6665C386.932 85.3999 392.399 85.1332 393.999 81.1332C394.665 79.1332 396.665 77.5332 399.199 76.9999C401.465 76.4665 403.332 75.5332 403.332 74.8665C403.332 73.2665 399.065 73.7999 397.732 75.6665C397.065 76.4665 396.665 76.3332 396.665 75.2665C396.665 73.5332 395.065 73.1332 393.599 74.4665Z" fill="white"/>
<path d="M527.733 75.6668C526.133 76.8668 523.867 77.2668 522.4 76.7335C520.133 75.8001 520.133 75.9335 522.4 78.2001C523.733 79.6668 525.867 80.3335 527.333 79.9335C529.2 79.5335 530 79.9335 530 81.2668C530 83.2668 526.533 83.2668 520.667 81.4001C519.6 81.0001 519.067 81.0001 519.733 81.2668C522.133 82.7335 520.267 84.4668 517.067 83.9335C514.933 83.6668 514.133 83.6668 515.067 83.9335C515.867 84.3335 516.667 85.0001 516.667 85.5335C516.667 86.0668 519.6 86.4668 523.2 86.4668C528.133 86.3335 530.667 85.5335 532.933 83.2668C534.8 81.6668 537.2 80.3335 538.4 80.3335C541.333 80.3335 542.533 77.9335 540.667 75.6668C538.533 73.1335 531.333 73.1335 527.733 75.6668ZM540.667 76.8668C540.667 78.3335 538.133 78.8668 537.333 77.6668C536.933 77.0001 537.467 76.3335 538.533 76.3335C539.733 76.3335 540.667 76.6001 540.667 76.8668Z" fill="white"/>
<path d="M262.666 76.3333C263.199 77.1333 261.999 77.6666 260.133 77.6666C258.266 77.6666 256.666 78.3333 256.666 79.1333C256.666 80.0666 258.266 80.3333 260.933 80.0666C263.333 79.6666 266.399 80.0666 267.599 80.8666C271.066 83 273.733 79.9333 270.933 77.1333C268.666 74.8666 261.333 74.2 262.666 76.3333Z" fill="white"/>
<path d="M297.999 77.8004C297.999 78.6004 297.066 79.0004 295.999 78.4671C294.933 78.0671 293.199 78.6004 292.133 79.6671C291.066 80.7338 289.599 81.6671 288.799 81.6671C287.999 81.6671 287.333 82.2004 287.333 82.8671C287.333 84.6004 291.066 85.8004 291.999 84.3338C292.533 83.5338 293.866 83.0004 295.066 83.0004C296.666 83.0004 296.399 83.5338 293.999 84.8671C291.199 86.3338 290.133 86.3338 287.733 84.8671C284.533 82.8671 281.466 83.5338 277.866 87.1338C275.066 89.9338 276.133 91.4004 279.733 89.5338C281.466 88.4671 282.666 88.4671 283.199 89.4004C283.866 90.6004 287.199 90.7338 289.999 89.6671C290.399 89.5338 291.066 89.4004 291.733 89.5338C292.266 89.5338 292.666 89.0004 292.666 88.3338C292.666 86.0671 297.733 86.8671 299.199 89.2671C299.999 90.6004 300.666 90.8671 300.666 89.9338C300.666 87.6671 303.333 87.9338 304.266 90.4671C304.666 91.6671 304.266 93.1338 303.199 93.9338C301.733 95.0004 301.999 95.0004 303.866 94.4671C306.799 93.5338 311.333 97.0004 311.333 100.2C311.333 101.667 311.733 101.8 312.799 100.734C314.666 98.8671 313.066 93.6671 310.533 93.6671C309.466 93.6671 308.666 93.0004 308.666 92.3338C308.666 91.5338 307.333 89.1338 305.733 87.0004C303.199 83.5338 302.666 83.2671 301.333 85.2671C300.266 86.7338 299.466 87.0004 298.799 85.9338C298.266 85.0004 298.399 84.3338 299.199 84.3338C299.866 84.3338 300.399 82.4671 300.399 80.3338C300.266 76.7338 297.999 74.3338 297.999 77.8004Z" fill="white"/>
<path d="M46.9321 78.4669C46.3988 79.0002 46.3988 79.8002 46.7988 80.4669C47.5988 81.8002 51.3321 80.4669 51.3321 78.8669C51.3321 77.5336 48.1321 77.2669 46.9321 78.4669Z" fill="white"/>
<path d="M673.999 79.6672C674.932 80.7339 676.265 81.2672 676.932 80.8672C677.732 80.3339 677.599 79.5339 676.532 78.8672C673.599 77.0005 672.132 77.5339 673.999 79.6672Z" fill="white"/>
<path d="M39.0658 81.4003C36.2658 82.6003 33.9992 84.3336 33.9992 85.267C33.9992 87.667 31.5992 87.4003 29.0658 85.0003C27.9992 83.9336 26.5325 83.267 25.8658 83.667C23.9992 84.867 24.5325 87.0003 26.6658 87.0003C27.8658 87.0003 29.0658 87.9336 29.5992 89.0003C30.2658 90.867 30.6658 90.867 32.5325 89.267C33.7325 88.2003 35.9992 86.867 37.4658 86.467C40.3992 85.5336 45.4658 80.7336 44.5325 79.8003C44.2658 79.5336 41.7325 80.2003 39.0658 81.4003Z" fill="white"/>
<path d="M227.732 87.5333C227.998 93.5333 227.465 96.2 225.732 97.9333C224.532 99.1333 223.198 99.6667 222.665 99.2667C222.265 98.7333 222.265 99.5333 222.798 100.867C223.465 102.467 223.065 103.933 221.732 104.867C219.332 106.6 218.932 108.2 219.198 114.733C219.198 117.133 219.865 118.867 220.532 118.333C223.198 116.733 223.332 120.333 220.532 123.133C218.665 125 217.998 126.867 218.532 129.133C219.465 132.467 217.065 137.667 214.665 137.667C213.865 137.667 212.532 138.867 211.598 140.467C210.265 142.467 209.465 142.867 208.132 141.8C206.932 140.733 206.398 141 206.398 142.6C206.398 147.533 209.065 147.933 212.932 143.8L216.532 139.667L216.665 143.267C216.665 145.533 217.332 147 218.532 147C219.865 147 220.132 145.533 219.598 141C219.065 136.067 219.465 134.467 221.465 133C223.598 131.267 223.732 130.867 221.998 129.8C220.265 128.6 220.398 128.2 222.532 126.6C224.398 125.267 225.065 122.6 225.598 115.533C225.865 110.467 226.265 105.533 226.265 104.6C226.398 103.533 227.732 102.2 229.465 101.667C231.065 101 232.798 99.9333 233.198 99.1333C233.732 98.3333 235.065 98.2 236.398 98.6C238.132 99.2667 238.265 99 237.065 97.6667C236.265 96.7333 235.865 95.1333 236.265 93.9333C236.932 92.3333 236.398 92.0667 234.132 92.7333C231.332 93.4 231.065 93.1333 231.732 89.9333C231.998 87.9333 232.665 85.4 233.198 84.3333C233.732 83 232.932 81.8 230.798 80.8667L227.465 79.4L227.732 87.5333Z" fill="white"/>
<path d="M357.466 81C358 82.0667 358.8 83 359.333 83C359.866 83 360.666 82.0667 361.2 81C361.733 79.6667 361.066 79 359.333 79C357.6 79 356.933 79.6667 357.466 81Z" fill="white"/>
<path d="M505.467 81C503.467 82.0667 501.2 82.6 500.533 82.2C499.867 81.8 499.333 82.2 499.333 82.8667C499.333 83.6667 498.133 84.3333 496.667 84.3333C495.2 84.3333 494 84.8667 494 85.6667C494 86.3333 495.2 87 496.667 87C498.133 87 499.333 86.3333 499.333 85.6667C499.333 84.8667 500.4 84.3333 501.733 84.3333C502.933 84.3333 505.467 83.1333 507.333 81.6667C511.333 78.6 510.667 78.3333 505.467 81Z" fill="white"/>
<path d="M663.599 81.1338C660.799 83.0004 660.665 86.6004 663.465 85.0004C664.132 84.4671 664.665 84.8671 664.665 85.6671C664.665 86.6004 663.599 86.8671 661.999 86.3338C659.865 85.6671 659.332 86.0671 659.332 88.2004C659.332 91.1338 662.532 92.0671 663.999 89.6671C664.532 88.8671 665.332 88.6004 665.999 89.0004C666.532 89.4004 667.732 88.7338 668.665 87.6671C669.999 86.0671 670.799 85.9338 672.132 87.1338C673.199 87.9338 673.999 88.2004 673.999 87.5338C673.865 85.6671 670.532 81.6671 668.932 81.6671C668.132 81.6671 667.332 81.0004 667.065 80.3338C666.799 79.5338 665.465 79.8004 663.599 81.1338Z" fill="white"/>
<path d="M215.333 85.2667C213.199 92.3333 213.999 99.5333 217.066 100.067C219.066 100.467 219.333 99.8 218.399 93.4C217.866 89.5333 217.599 85 217.599 83.2667C217.733 79 216.933 79.6667 215.333 85.2667Z" fill="white"/>
<path d="M541.599 81.2674C541.066 81.6674 541.333 82.8674 542.133 83.8008C543.999 86.0674 542.666 89.6674 539.999 89.6674C538.933 89.6674 537.999 90.3341 537.999 91.1341C537.999 91.9341 536.799 92.2008 535.333 91.6674C533.066 91.0008 532.666 91.4008 532.666 94.6008C532.666 99.5341 534.399 102.067 537.466 101.401C540.533 100.867 541.599 96.4674 539.066 94.8674C537.733 93.9341 537.866 93.6674 539.733 93.6674C540.933 93.6674 541.999 92.8674 541.999 91.8008C541.999 90.7341 543.333 89.6674 544.799 89.4008C548.799 88.8674 551.333 84.7341 548.666 83.0008C547.599 82.3341 546.266 82.2008 545.733 82.4674C545.199 82.8674 544.666 82.4674 544.666 81.8008C544.666 80.2008 542.933 79.8008 541.599 81.2674Z" fill="white"/>
<path d="M261.332 83.0007C260.799 83.8007 261.999 84.334 263.866 84.334C265.732 84.334 267.332 83.6673 267.332 83.0007C267.332 82.2007 266.132 81.6673 264.799 81.6673C263.332 81.6673 261.732 82.2007 261.332 83.0007Z" fill="white"/>
<path d="M271.332 83.0007C271.332 83.6673 272.532 84.334 274.132 84.334C275.599 84.334 276.399 83.6673 275.999 83.0007C275.599 82.2007 274.265 81.6673 273.199 81.6673C272.132 81.6673 271.332 82.2007 271.332 83.0007Z" fill="white"/>
<path d="M409.332 83.0007C408.932 83.6673 409.199 84.334 409.866 84.334C410.666 84.334 411.332 83.6673 411.332 83.0007C411.332 82.2007 411.066 81.6673 410.799 81.6673C410.399 81.6673 409.732 82.2007 409.332 83.0007Z" fill="white"/>
<path d="M749.066 82.6003C747.199 83.267 746.666 89.667 748.399 89.667C750.799 89.5337 754.266 85.667 753.599 83.667C752.666 81.667 751.866 81.4003 749.066 82.6003Z" fill="white"/>
<path d="M237.199 84.9999C236.666 86.1999 236.799 87.5332 237.199 88.0666C238.399 89.1332 242.799 86.4666 242.399 84.8666C241.866 82.7332 237.999 82.7332 237.199 84.9999Z" fill="white"/>
<path d="M307.999 85.267C309.066 86.6003 310.799 88.867 311.866 90.3337C313.066 91.8003 313.999 92.3337 313.999 91.5337C313.999 89.5337 308.799 83.0003 307.199 83.0003C306.532 83.0003 306.932 84.067 307.999 85.267Z" fill="white"/>
<path d="M367.332 86.467C367.332 87.5337 367.999 88.067 368.665 87.667C369.465 87.267 369.999 86.3337 369.999 85.5337C369.999 84.867 369.465 84.3337 368.665 84.3337C367.999 84.3337 367.332 85.267 367.332 86.467Z" fill="white"/>
<path d="M720.934 86.4666C719.2 87.2666 718.267 88.3332 719.067 88.8666C720.4 89.6666 725.734 86.3332 724.667 85.2666C724.267 84.9999 722.534 85.5332 720.934 86.4666Z" fill="white"/>
<path d="M16.1324 87.9336C13.3324 89.4002 12.799 90.2002 13.999 91.0002C16.1324 92.3336 22.399 88.6002 21.199 86.8669C20.799 86.2002 20.399 85.6669 20.2657 85.8002C20.1324 85.9336 18.2657 86.8669 16.1324 87.9336Z" fill="white"/>
<path d="M249.333 87.1341C243.999 88.3341 240.666 91.2674 240.666 94.6008C240.666 95.6674 242.399 94.7341 245.066 92.4674C247.333 90.2008 250.666 88.3341 252.399 88.3341C253.999 88.3341 255.333 87.6674 255.333 87.0008C255.333 86.2008 255.199 85.6674 255.066 85.8008C254.799 85.9341 252.266 86.4674 249.333 87.1341Z" fill="white"/>
<path d="M740.266 86.467C739.199 87.5337 740.399 89.667 742.133 89.667C742.799 89.667 743.333 88.7337 743.333 87.667C743.333 85.667 741.733 85.0003 740.266 86.467Z" fill="white"/>
<path d="M41.7335 87.9333C42.6668 88.3333 43.8668 88.2 44.2668 87.8C44.8002 87.4 44.0002 87 42.5335 87.1333C41.0668 87.1333 40.6668 87.5333 41.7335 87.9333Z" fill="white"/>
<path d="M269.734 87.9333C270.667 88.3333 271.867 88.2 272.267 87.8C272.8 87.4 272 87 270.534 87.1333C269.067 87.1333 268.667 87.5333 269.734 87.9333Z" fill="white"/>
<path d="M381.734 87.9333C382.667 88.3333 383.867 88.2 384.267 87.8C384.8 87.4 384 87 382.534 87.1333C381.067 87.1333 380.667 87.5333 381.734 87.9333Z" fill="white"/>
<path d="M403.066 87.9333C403.999 88.3333 405.199 88.2 405.599 87.8C406.132 87.4 405.332 87 403.866 87.1333C402.399 87.1333 401.999 87.5333 403.066 87.9333Z" fill="white"/>
<path d="M501.734 87.9333C502.667 88.3333 503.867 88.2 504.267 87.8C504.8 87.4 504 87 502.534 87.1333C501.067 87.1333 500.667 87.5333 501.734 87.9333Z" fill="white"/>
<path d="M705.734 87.9333C706.667 88.3333 707.867 88.2 708.267 87.8C708.8 87.4 708 87 706.534 87.1333C705.067 87.1333 704.667 87.5333 705.734 87.9333Z" fill="white"/>
<path d="M754.932 88.0666C754.265 88.9999 753.198 89.3999 752.532 88.9999C751.865 88.4666 750.932 89.9332 750.532 92.1999C749.598 96.7332 745.998 97.9332 745.998 93.6666C745.998 92.1999 745.465 90.9999 744.798 90.9999C743.332 90.9999 743.598 93.5332 745.332 96.3332C745.998 97.3999 746.398 99.9333 746.265 102.067C745.998 104.2 746.532 106.6 747.065 107.533C747.732 108.333 748.265 110.067 748.265 111.4C748.265 113.533 747.465 113.8 743.465 113.267C740.798 112.867 739.732 112.867 741.065 113.133C743.465 113.933 744.265 116.333 741.865 116.333C741.065 116.333 739.465 115.8 738.132 115.133C736.798 114.333 735.065 114.333 733.865 115.133C732.532 115.933 732.798 116.333 735.465 116.333C737.332 116.333 739.465 117 740.265 117.8C741.332 118.867 742.532 118.867 744.532 117.667C746.132 116.867 749.065 116.333 750.932 116.6C752.932 116.867 754.665 116.2 754.932 115.267C755.332 114.467 754.798 113.667 753.998 113.667C752.665 113.667 752.665 113.267 753.865 111.8C755.065 110.333 754.798 108.733 752.665 104.867C749.332 98.3333 749.332 97.9332 753.465 94.0666C755.332 92.3332 756.665 89.9332 756.398 88.5999C755.998 86.8666 755.598 86.7332 754.932 88.0666Z" fill="white"/>
<path d="M211.2 92.6004C210.8 95.5337 211.066 97.1337 211.733 96.467C212.4 95.8004 212.666 93.667 212.4 91.5337C212 87.9337 211.866 88.067 211.2 92.6004Z" fill="white"/>
<path d="M370.266 91.0007C370.266 92.8674 370.532 93.534 370.932 92.6007C371.199 91.8007 371.199 90.2007 370.932 89.2674C370.532 88.4674 370.266 89.134 370.266 91.0007Z" fill="white"/>
<path d="M520.8 89.2666C520.8 90.8666 528.667 96.7333 529.467 95.9333C530.4 94.9999 524 88.3333 522.134 88.3333C521.334 88.3333 520.667 88.7333 520.8 89.2666Z" fill="white"/>
<path d="M344.8 91.8005C344.8 93.2671 345.2 93.6671 345.6 92.6005C346 91.6671 345.866 90.4671 345.466 90.0671C345.066 89.5338 344.666 90.3338 344.8 91.8005Z" fill="white"/>
<path d="M348.666 92.3339C348.666 94.8673 349.066 95.1339 350.266 93.9339C351.466 92.7339 351.466 91.9339 350.266 90.7339C349.066 89.5339 348.666 89.8006 348.666 92.3339Z" fill="white"/>
<path d="M355.999 91.0004C354.666 93.1338 356.666 94.7338 361.333 95.2671C364.266 95.5338 365.466 95.0004 365.733 93.2671C365.999 91.8004 365.333 91.0004 363.599 91.0004C362.133 91.0004 359.999 90.6004 358.933 90.2004C357.866 89.8004 356.533 90.2004 355.999 91.0004Z" fill="white"/>
<path d="M293.199 92.8667C293.733 94.4667 293.199 95.9333 291.733 97.1333C290.133 98.3333 289.866 98.8667 291.066 99C291.999 99 293.866 98.0667 294.933 96.8667C296.799 95 296.799 94.6 294.666 92.6C292.399 90.4667 292.399 90.4667 293.199 92.8667Z" fill="white"/>
<path d="M479.599 92.7339C478.399 94.2005 478.266 95.0005 479.333 95.6672C481.333 96.8672 482.399 95.8005 481.733 92.8672C481.333 90.8672 481.199 90.7339 479.599 92.7339Z" fill="white"/>
<path d="M669.599 93.5333C669.865 94.8667 669.199 96.8667 668.132 98.0667C666.665 99.4 666.399 100.467 667.465 101C668.265 101.533 669.199 100.733 669.599 99.1333C670.532 95.2667 672.665 95.6667 672.665 99.6667C672.665 101.533 673.332 103 674.132 103C674.932 103 675.332 101.933 674.932 100.467C674.532 98.6 674.932 98.2 676.799 98.6C678.532 99.1333 679.332 98.6 679.332 97.1333C679.332 95.8 679.999 95.2667 680.665 95.6667C681.465 96.0667 681.999 95.2667 681.999 93.8C681.999 91.6667 681.199 91 678.132 91C675.999 91 673.865 91.8 673.465 92.6C672.799 93.9333 672.532 93.9333 671.865 92.6C670.665 90.0667 668.799 90.7333 669.599 93.5333Z" fill="white"/>
<path d="M19.4651 93.534C18.3984 94.2007 18.2651 95.0007 19.0651 95.534C20.7984 96.6007 24.6651 95.134 24.6651 93.534C24.6651 92.0673 21.8651 92.0673 19.4651 93.534Z" fill="white"/>
<path d="M27.332 93.6667C27.332 94.3333 27.9987 95 28.7987 95C29.4654 95 29.732 94.3333 29.332 93.6667C28.932 92.8667 28.2654 92.3333 27.8654 92.3333C27.5987 92.3333 27.332 92.8667 27.332 93.6667Z" fill="white"/>
<path d="M33.3325 93.6667C32.9325 94.3333 33.1991 95 33.8658 95C34.6658 95 35.3325 94.3333 35.3325 93.6667C35.3325 92.8667 35.0658 92.3333 34.7991 92.3333C34.3991 92.3333 33.7325 92.8667 33.3325 93.6667Z" fill="white"/>
<path d="M663.066 94.6003C663.999 95.0003 665.199 94.8669 665.599 94.4669C666.132 94.0669 665.332 93.6669 663.866 93.8003C662.399 93.8003 661.999 94.2003 663.066 94.6003Z" fill="white"/>
<path d="M93.5993 95.8004C93.066 96.3337 92.666 98.2004 92.666 99.9337C92.666 103.667 95.7327 103.534 96.3993 99.8004C96.9327 97.1337 94.9327 94.4671 93.5993 95.8004Z" fill="white"/>
<path d="M470 97.0004C470 98.0671 470.667 99.0004 471.467 99.0004C472.133 99.0004 472.533 99.5338 472 100.2C471.6 100.867 471.867 101.8 472.667 102.334C474.133 103.267 474.267 102.334 473.2 97.9338C472.267 94.6004 470 93.9338 470 97.0004Z" fill="white"/>
<path d="M25.9997 98.3333C24.533 100.067 24.6663 100.2 26.6663 99.3999C28.6663 98.7333 28.933 98.9999 28.2663 100.733C27.5997 102.733 27.8663 102.867 29.9997 101.667C31.4663 100.867 32.2663 99.5333 31.8663 98.3333C30.7997 95.7999 28.133 95.7999 25.9997 98.3333Z" fill="white"/>
<path d="M86.6665 99.8005L84.5332 103.134L87.8665 101C91.3332 98.7338 92.3999 96.3338 90.1332 96.3338C89.4665 96.3338 87.9999 97.9338 86.6665 99.8005Z" fill="white"/>
<path d="M347.333 100.6C347.999 102.867 348.266 106.2 347.866 107.933C347.333 109.8 347.599 111 348.666 111C349.466 111 349.866 111.533 349.466 112.2C348.399 113.933 352.399 115.133 356.133 114.2C359.333 113.4 359.333 113.267 357.199 110.867C355.999 109.4 355.333 108.333 355.866 108.333C356.399 108.333 356.133 107.133 355.333 105.667C354.533 104.2 353.333 103.267 352.799 103.667C352.133 103.933 351.333 102.467 350.799 100.333C350.399 98.0666 349.199 96.3332 348.133 96.3332C346.533 96.3332 346.399 97.1332 347.333 100.6Z" fill="white"/>
<path d="M651.466 98.4665C651.466 99.9332 651.866 100.333 652.266 99.2665C652.666 98.3332 652.532 97.1332 652.132 96.7332C651.732 96.1998 651.332 96.9998 651.466 98.4665Z" fill="white"/>
<path d="M451.6 100.334C451.6 102.2 451.866 102.867 452.266 101.934C452.533 101.134 452.533 99.5337 452.266 98.6004C451.866 97.8004 451.6 98.467 451.6 100.334Z" fill="white"/>
<path d="M559.332 100.2C559.332 100.867 559.999 101.933 560.665 102.333C561.465 102.733 561.999 102.6 561.999 101.8C561.999 101.133 561.465 100.067 560.665 99.6667C559.999 99.2667 559.332 99.4 559.332 100.2Z" fill="white"/>
<path d="M98.399 103.134C99.0656 105.8 98.6656 106.334 95.999 106.467C93.999 106.6 92.6656 105.934 92.6656 104.867C92.6656 102.734 92.399 102.734 89.4656 103.8C86.5323 104.867 86.5323 112.334 89.4656 112.334C90.5323 112.334 92.399 111.4 93.4656 110.334C96.399 107.534 97.8656 107.8 99.3323 111.8C100.266 114.2 101.332 115 102.799 114.467C103.999 114.067 105.199 113.667 105.466 113.667C105.866 113.667 105.732 113 105.199 112.2C104.666 111.134 105.332 111 107.466 111.534C109.199 111.934 109.866 111.934 109.066 111.534C108.132 111.134 107.332 109.934 107.332 108.867C107.332 107.8 106.399 107 105.332 107C104.266 107 103.332 107.534 103.332 108.334C103.332 109 102.399 109.667 101.332 109.667C100.266 109.667 99.3323 109 99.3323 108.334C99.3323 107.534 100.266 107 101.332 107C103.999 107 103.866 106.2 100.532 102.867L97.599 99.9337L98.399 103.134ZM91.4656 108.734C91.3323 110.334 89.4656 109.934 88.9323 108.2C88.5323 107.4 89.0656 106.867 89.999 107.134C90.799 107.534 91.4656 108.2 91.4656 108.734Z" fill="white"/>
<path d="M295.332 101.667C295.332 102.333 295.865 103 296.532 103C297.332 103 298.265 102.333 298.665 101.667C299.065 100.867 298.532 100.333 297.465 100.333C296.265 100.333 295.332 100.867 295.332 101.667Z" fill="white"/>
<path d="M735.065 101.133C737.599 102.333 736.932 105.267 733.999 106.067C732.532 106.467 731.332 107.4 731.332 108.333C731.332 110.467 736.665 108.733 739.865 105.533C742.932 102.6 742.665 102.2 737.332 101.133C735.065 100.733 734.132 100.733 735.065 101.133Z" fill="white"/>
<path d="M210.932 102.6C209.599 103.8 209.732 107 211.065 107C211.599 107 212.132 105.8 212.132 104.333C212.132 101.267 212.132 101.4 210.932 102.6Z" fill="white"/>
<path d="M760.266 102.601C759.866 103.267 758.933 106.067 758.133 108.867C757.066 113.267 757.066 113.801 758.399 112.201C761.199 109.267 763.333 103.134 761.999 102.334C761.333 101.934 760.533 102.067 760.266 102.601Z" fill="white"/>
<path d="M317.466 108.867C317.999 113.267 317.732 115 316.799 114.333C315.866 113.8 315.332 115.133 315.332 117.933C315.332 122.6 314.266 124.867 311.999 125.267C311.332 125.4 309.599 125.933 308.399 126.333C306.532 127.133 305.999 126.6 305.866 124.2L305.732 121L304.799 124.333C303.999 126.733 304.399 128.333 306.266 130.067C307.599 131.4 308.666 133.133 308.666 134.067C308.666 136.2 313.999 136.733 316.266 134.733C318.799 132.6 318.399 131.133 315.332 131.933C313.866 132.333 312.666 131.933 312.666 131.133C312.666 130.333 313.199 129.667 313.866 129.667C315.332 129.667 320.666 120.867 320.666 118.2C320.666 117.133 321.199 116.333 321.866 116.333C322.399 116.333 322.666 114.867 322.266 113C321.999 111 322.266 109.667 323.199 109.667C323.999 109.667 324.666 109 324.666 108.2C324.666 107.133 324.132 107.133 322.799 108.2C320.932 109.8 319.332 108.6 317.466 104.333C317.066 103.267 317.066 105.267 317.466 108.867Z" fill="white"/>
<path d="M728.666 104.334C726.933 105.4 727.066 105.667 729.066 105.667C730.266 105.667 731.333 105 731.333 104.334C731.333 102.734 731.199 102.734 728.666 104.334Z" fill="white"/>
<path d="M652 105.667C651.466 106.467 650.933 110.467 650.666 114.733C650.4 118.867 649.6 124.067 648.8 126.067C648 128.2 647.733 130.467 648.133 131.267C649.466 133.267 652.666 128.6 652.666 125C652.666 122.2 656.4 117.667 658.666 117.667C659.2 117.667 659.333 119.4 658.933 121.667C657.866 126.467 658.933 129.667 661.466 129.667C663.6 129.667 664 125.533 662.133 123.533C661.466 122.867 660.666 120.467 660.4 118.333C660 114.867 659.6 114.333 656.4 114.733C653.333 115.133 652.666 114.733 652.666 112.2C652.666 109.933 653.066 109.667 654.533 110.867C656.933 112.867 658.133 110.067 656.4 106.6C655.066 104.067 653.2 103.667 652 105.667Z" fill="white"/>
<path d="M448.533 107.4C447.467 108.333 446.133 110.333 445.733 111.933C444.933 115.133 448.133 120.867 450.133 119.667C451.733 118.6 451.733 112.333 450 112.333C449.333 112.333 448.667 111.667 448.667 111C448.667 108.6 450.933 109.533 452.533 112.6C453.467 114.467 453.733 114.733 453.333 113.267C452.933 111.933 452.667 109.667 452.667 108.2C452.667 105.267 451.6 105 448.533 107.4Z" fill="white"/>
<path d="M556.666 107.4C556.666 109.134 561.866 112.867 562.933 111.934C563.199 111.534 562.933 109.934 561.999 108.467C560.399 105.4 556.666 104.6 556.666 107.4Z" fill="white"/>
<path d="M298 108.334C298 109 298.667 109.667 299.467 109.667C300.133 109.667 300.4 109 300 108.334C299.6 107.534 298.933 107 298.533 107C298.267 107 298 107.534 298 108.334Z" fill="white"/>
<path d="M551.732 109.8C552.265 111.534 552.665 114.334 552.665 116.067C552.665 118.2 553.198 118.867 554.398 118.2C555.732 117.4 555.732 117.667 554.398 119.134C552.398 121.267 552.132 125.667 553.998 125.667C554.798 125.667 555.332 124.334 555.332 122.867C555.332 120.467 555.732 120.334 557.332 121.667C558.398 122.467 559.065 124.2 558.932 125.4C558.798 126.734 559.198 127.8 559.865 128.067C561.332 128.334 562.265 118.334 561.198 114.6C560.798 113.4 559.598 112.334 558.532 112.334C557.465 112.334 556.665 111.667 556.665 110.867C556.665 110.067 555.732 109.8 554.532 110.2C553.465 110.6 552.932 110.467 553.332 109.8C553.732 109.134 553.332 108.067 552.532 107.534C551.332 106.867 551.198 107.534 551.732 109.8Z" fill="white"/>
<path d="M737.733 108.867C736.4 109.801 735.733 110.867 736.133 111.267C737.466 112.601 742 110.734 742 108.867C742 106.601 740.666 106.601 737.733 108.867Z" fill="white"/>
<path d="M75.8663 110.334C78.5329 113.134 84.6663 113 84.6663 110.2C84.6663 108.6 84.1329 108.334 83.0663 109.4C81.9996 110.067 80.1329 110.2 78.6663 109.534C74.5329 107.934 73.5996 108.2 75.8663 110.334Z" fill="white"/>
<path d="M721.067 109.667C717.333 111.134 717.067 112.334 720.533 112.334C721.867 112.334 723.333 111.401 723.867 110.334C724.267 109.267 724.4 108.334 724.267 108.467C724.133 108.467 722.667 109.001 721.067 109.667Z" fill="white"/>
<path d="M726.267 112.467C724.267 115.534 724.134 121.667 726 121.667C726.8 121.667 727.334 121 727.334 120.334C727.334 119.534 728.267 119 729.334 119C730.4 119 731.334 118.334 731.334 117.534C731.334 116.734 730.134 116.334 728.667 116.734C726.934 117.134 726 116.734 726 115.534C726 114.467 727.2 113.667 728.667 113.667C731.734 113.667 732.267 111.667 729.6 110.6C728.667 110.2 727.067 111 726.267 112.467Z" fill="white"/>
<path d="M214.666 112.334C214.266 113 214.533 113.667 215.2 113.667C216 113.667 216.666 113 216.666 112.334C216.666 111.534 216.4 111 216.133 111C215.733 111 215.066 111.534 214.666 112.334Z" fill="white"/>
<path d="M301.332 112.333C300.398 113.933 301.732 119 303.198 119C303.732 119 303.998 117.133 303.598 115C302.932 110.733 302.665 110.2 301.332 112.333Z" fill="white"/>
<path d="M365.999 112.334C364.266 113.4 364.266 113.667 366.266 113.667C367.466 113.667 368.932 113 369.332 112.334C370.399 110.6 368.666 110.6 365.999 112.334Z" fill="white"/>
<path d="M462.266 115.001C462.266 117.534 462.532 118.601 462.932 117.267C463.199 116.067 463.199 113.934 462.932 112.601C462.532 111.401 462.266 112.467 462.266 115.001Z" fill="white"/>
<path d="M544.8 113.133C544.8 114.6 545.2 115 545.6 113.933C546 113 545.866 111.8 545.466 111.4C545.066 110.867 544.666 111.667 544.8 113.133Z" fill="white"/>
<path d="M207.732 113.267C205.732 114.067 205.332 119 207.332 119C207.999 119 208.266 118.067 207.866 117C207.332 115.933 207.732 115 208.532 115C209.466 115 209.999 117.933 209.999 122.6C209.999 132.2 210.799 131.4 211.732 120.6C212.532 112.333 212.132 111.4 207.732 113.267Z" fill="white"/>
<path d="M72.933 116.467C71.9997 117.801 70.3997 119.001 69.333 119.001C68.2663 119.001 67.333 119.534 67.333 120.201C67.333 120.734 65.9997 121.001 64.2663 120.734C61.9997 120.334 60.7997 121.001 59.733 123.401C58.2663 126.601 57.5997 126.734 50.533 126.334C45.9997 126.067 43.733 126.467 44.7996 127.134C46.2663 128.067 46.133 128.601 43.9996 130.201C42.533 131.134 39.5996 133.667 37.4663 135.534C34.533 138.334 32.7996 139.001 29.4663 138.467C27.1996 138.067 26.133 138.067 27.0663 138.467C29.8663 139.801 28.933 143.267 25.9996 142.467C18.533 140.334 17.333 140.201 19.333 141.534C21.0663 142.734 20.933 143.267 18.2663 145.001C14.933 147.401 15.4663 149.534 19.333 149.267C20.933 149.134 21.9996 148.201 21.9996 146.734C21.9996 144.734 22.533 144.467 24.3996 145.534C26.933 146.867 33.9996 146.601 36.533 145.134C37.4663 144.601 39.5996 144.467 41.333 144.867C44.133 145.534 44.533 145.134 45.333 140.334C46.133 135.801 46.7996 135.001 49.4663 135.001C51.1996 135.001 52.6663 134.334 52.6663 133.534C52.6663 132.867 52.133 132.467 51.4663 132.867C50.7997 133.401 50.533 132.601 50.933 131.267C51.333 129.401 52.533 129.001 55.4663 129.401C57.733 129.667 59.333 129.401 59.333 128.467C59.333 127.667 61.8663 125.934 65.0663 124.467C71.1997 121.667 77.5997 115.667 75.733 114.601C75.0663 114.201 73.8663 115.001 72.933 116.467ZM45.0663 134.601C43.4663 138.734 39.1996 142.067 37.5996 140.467C36.3996 139.267 36.7996 138.734 39.0663 138.201C40.7996 137.667 41.9996 136.334 41.9996 134.867C41.9996 133.401 42.933 132.334 43.9996 132.334C45.1996 132.334 45.5996 133.134 45.0663 134.601Z" fill="white"/>
<path d="M309.066 116.867C309.066 118.734 309.466 120.334 310.133 120.334C311.6 120.334 311.6 117.534 310.133 115.134C309.333 113.934 309.066 114.467 309.066 116.867Z" fill="white"/>
<path d="M347.466 117.133C347.466 118.6 347.866 119 348.266 117.933C348.666 117 348.532 115.8 348.132 115.4C347.732 114.867 347.332 115.667 347.466 117.133Z" fill="white"/>
<path d="M363.6 119.134C365.733 122.2 366.133 123.534 365.066 123.934C363.066 124.6 362.666 129.667 364.533 129.667C367.6 129.667 368.266 121 365.466 117.267C362.266 113.134 360.533 114.867 363.6 119.134Z" fill="white"/>
<path d="M546.667 121.4C545.2 124.733 543.867 128.067 543.6 128.6C543.333 129.133 543.733 129.667 544.533 129.667C545.333 129.667 546 128.733 546 127.667C546 126.6 546.667 125.667 547.333 125.667C548.133 125.667 548.667 126.867 548.667 128.467C548.667 129.933 549.2 130.867 549.733 130.467C550.933 129.8 550.933 116.867 549.867 115.8C549.6 115.4 548.133 117.933 546.667 121.4Z" fill="white"/>
<path d="M62 117.667C62 118.333 62.6667 119 63.3333 119C64.1333 119 64.6667 118.333 64.6667 117.667C64.6667 116.867 64.1333 116.333 63.3333 116.333C62.6667 116.333 62 116.867 62 117.667Z" fill="white"/>
<path d="M351.332 118.334C351.332 119.401 352.265 120.334 353.332 120.334C354.399 120.334 355.332 119.401 355.332 118.334C355.332 117.267 354.399 116.334 353.332 116.334C352.265 116.334 351.332 117.267 351.332 118.334Z" fill="white"/>
<path d="M374.132 119.001C371.999 123.534 373.199 127.401 377.599 129.134L381.732 130.867L380.532 126.334C379.065 121.401 379.332 118.867 381.332 117.401C382.132 116.867 380.932 116.467 378.932 116.601C376.799 116.867 374.665 117.801 374.132 119.001Z" fill="white"/>
<path d="M457.333 121C458.133 126.067 458.533 129.8 459.067 137.8C459.2 139.8 460.267 141.667 461.333 142.2C463.067 142.867 463.067 142.333 461.6 138.6C460.4 135.667 460.133 133 460.933 129.933C461.867 126.333 461.733 125.133 459.867 123.8C458.667 122.867 458 121.533 458.4 120.867C458.8 120.067 458.533 118.733 457.867 117.667C456.8 116.2 456.667 117.267 457.333 121Z" fill="white"/>
<path d="M542.134 118.466C542.134 119.933 542.534 120.333 542.934 119.266C543.334 118.333 543.2 117.133 542.8 116.733C542.4 116.2 542 117 542.134 118.466Z" fill="white"/>
<path d="M663.332 120.201C663.332 123.134 663.865 124.334 665.065 123.934C666.799 123.401 666.532 119.134 664.532 117.001C663.865 116.334 663.332 117.534 663.332 120.201Z" fill="white"/>
<path d="M81.0654 118.6C80.132 119 79.332 120.734 79.332 122.6C79.332 125.134 79.8654 125.8 81.4654 125.134C82.6654 124.734 84.3987 124.334 85.4654 124.334C86.532 124.334 87.332 123.4 87.332 122.334C87.332 120.067 83.4654 117.8 81.0654 118.6Z" fill="white"/>
<path d="M670.134 119.8C670.134 121.267 670.534 121.667 670.934 120.6C671.334 119.667 671.2 118.467 670.8 118.067C670.4 117.534 670 118.334 670.134 119.8Z" fill="white"/>
<path d="M701.466 118.867C701.066 119.4 699.2 119.667 697.333 119.267C694.533 118.733 694.133 119.133 694.933 121.133C695.6 122.867 695.333 123.267 693.6 122.6C690.133 121.267 689.866 123.533 693.466 125.267C695.2 126.067 696.666 126.2 696.666 125.533C696.666 124.867 697.6 124.333 698.666 124.333C699.733 124.333 700.666 124.867 700.666 125.667C700.666 126.333 701.866 127 703.333 127C704.8 127 706 126.333 706 125.667C706 124.867 705.066 124.333 704 124.333C702.933 124.333 702 123.667 702 122.867C702 121.933 703.333 121.667 705.333 122.2C709.066 123.133 709.6 122.333 706.8 119.533C704.666 117.4 702.533 117.133 701.466 118.867Z" fill="white"/>
<path d="M56.2654 121.267C56.6654 122.2 57.4654 123 57.9988 123C58.5321 123 59.3321 122.2 59.7321 121.267C60.1321 120.333 59.3321 119.533 57.9988 119.533C56.6654 119.533 55.8654 120.333 56.2654 121.267Z" fill="white"/>
<path d="M386.398 119.934C387.598 120.2 388.665 121.134 388.665 121.8C388.665 122.467 387.598 123 386.398 123C384.932 123.134 385.732 123.8 388.132 124.867C390.665 126.067 392.665 128.067 393.198 130.2C393.865 133 394.798 133.667 398.265 133.667C401.598 133.667 402.132 134.067 400.932 135.267C398.665 137.534 398.932 140.467 401.465 140.067C404.265 139.534 405.065 142.6 405.198 153.4C405.332 158.334 405.865 161.667 406.798 161.667C407.598 161.667 408.132 159.934 407.998 157.667C407.865 155.534 408.265 154.067 408.665 154.334C411.198 155.934 410.665 139.134 407.865 129.934C407.198 127.667 407.598 127 409.198 127C410.532 127 411.065 126.467 410.665 125.667C410.132 124.867 408.932 125 407.332 125.934C405.865 126.867 404.265 127.134 403.732 126.6C403.198 125.934 403.598 125 404.665 124.334C405.998 123.534 405.598 123 402.532 122.334C400.398 121.8 396.932 120.867 394.798 120.2C392.665 119.534 389.332 119.134 387.465 119.134C385.198 119.267 384.798 119.534 386.398 119.934ZM402.132 126.467C403.465 128.2 403.465 128.734 401.865 129.8C397.065 132.867 393.465 130.334 397.065 126.334C399.198 123.934 399.998 123.934 402.132 126.467Z" fill="white"/>
<path d="M733.733 119.934C734.533 120.2 736.133 120.2 737.067 119.934C737.867 119.534 737.2 119.267 735.333 119.267C733.467 119.267 732.8 119.534 733.733 119.934Z" fill="white"/>
<path d="M112.266 123C111.866 124.467 112.132 125.667 112.932 125.667C113.732 125.667 113.866 127.133 113.466 129.267C112.532 133 112.532 133 114.532 130.067C116.132 127.933 116.399 126.333 115.332 123.8C113.866 119.667 113.199 119.533 112.266 123Z" fill="white"/>
<path d="M101.066 122.601C100.133 123.001 99.3326 124.467 99.3326 125.934C99.3326 127.934 99.9993 128.467 101.866 127.934C103.733 127.534 104.533 128.201 105.066 130.867C105.999 135.134 102.933 137.934 98.3993 136.867C94.9326 135.934 94.5326 137.267 96.9326 142.334C98.5326 146.067 100.666 146.734 100.666 143.667C100.666 142.601 101.466 141.667 102.399 141.667C103.333 141.667 105.066 140.601 106.266 139.134C107.333 137.801 109.199 136.334 110.133 135.934C111.599 135.267 111.466 134.867 109.733 133.667C108.399 132.867 107.333 131.401 107.333 130.467C107.333 129.401 106.399 127.934 105.333 127.001C104.266 126.067 103.599 124.867 103.999 124.334C104.933 122.867 103.066 121.801 101.066 122.601Z" fill="white"/>
<path d="M727.999 123.001C727.599 123.667 728.132 124.334 729.332 124.334C730.532 124.334 731.065 123.667 730.665 123.001C730.265 122.201 729.599 121.667 729.332 121.667C729.065 121.667 728.399 122.201 727.999 123.001Z" fill="white"/>
<path d="M70 125.134C70 126.734 74.6667 129.534 77.3333 129.534C79.7333 129.667 79.7333 129.4 76.6667 127C73.3333 124.467 70 123.534 70 125.134Z" fill="white"/>
<path d="M563.466 126.466C563.466 127.933 563.866 128.333 564.266 127.266C564.666 126.333 564.532 125.133 564.132 124.733C563.732 124.2 563.332 125 563.466 126.466Z" fill="white"/>
<path d="M644.666 126.334C644.666 127.401 645.199 128.334 645.999 128.334C646.666 128.334 646.933 127.401 646.533 126.334C645.999 125.267 645.466 124.334 645.199 124.334C644.933 124.334 644.666 125.267 644.666 126.334Z" fill="white"/>
<path d="M90 127.934C90 129.134 90.4 129.667 90.8 129.267C91.3333 128.867 92.8 129.001 94.2667 129.801C97.7333 131.667 98.9333 130.334 96.2667 127.667C93.4667 125.001 90 125.134 90 127.934Z" fill="white"/>
<path d="M355.332 127.001C355.332 127.667 355.999 128.334 356.799 128.334C357.465 128.334 357.732 127.667 357.332 127.001C356.932 126.201 356.265 125.667 355.865 125.667C355.599 125.667 355.332 126.201 355.332 127.001Z" fill="white"/>
<path d="M684.267 126.6C682.667 128.067 683.2 129.667 685.2 129.667C686.133 129.667 687.733 128.734 688.667 127.667C690 126.067 689.867 125.667 687.733 125.667C686.267 125.667 684.667 126.067 684.267 126.6Z" fill="white"/>
<path d="M64.666 128.334C64.666 129 65.3327 129.667 65.9993 129.667C66.7993 129.667 67.3327 129 67.3327 128.334C67.3327 127.534 66.7993 127 65.9993 127C65.3327 127 64.666 127.534 64.666 128.334Z" fill="white"/>
<path d="M384.667 128.201C384.667 128.867 385.467 129.667 386.267 129.934C387.333 130.334 386.8 131.134 384.933 132.201C382.533 133.534 381.333 133.534 379.867 132.334C377.867 130.601 374 131.401 374 133.667C374 134.334 376.667 135.001 380 135.001C383.867 135.001 386.267 135.667 387.067 137.001C387.867 138.601 389.2 138.867 393.467 137.934L398.667 136.867L393.733 135.134C389.2 133.667 386.533 129.667 390.133 129.667C390.8 129.667 391.067 129.001 390.667 128.334C389.6 126.601 384.667 126.601 384.667 128.201Z" fill="white"/>
<path d="M691.333 128.467C691.333 129.134 692 129.4 692.667 129C693.467 128.6 694 128.867 694 129.534C694 130.334 693.067 131 692 131C690.933 131 690 131.534 690 132.334C690 133 690.933 133.667 692 133.667C694.4 133.667 694.667 135.934 692.4 136.734C689.333 137.8 691.867 138.734 695.733 138.067C699.333 137.4 699.333 137.267 697.067 134.734C694.933 132.334 694.933 132.2 697.467 133.134C698.8 133.667 700.8 134.734 701.733 135.4C702.933 136.334 704 136.2 704.933 135.267C706.133 134.067 706 133.667 704.267 133.667C703.067 133.667 702 133 702 132.334C702 130.734 705.333 130.6 708.4 132.2C709.733 132.867 712.8 132.734 716 131.667C720.4 130.334 720.933 129.934 718.8 129C717.333 128.334 715.333 128.6 713.867 129.4C710.8 131.4 707.333 131.534 707.333 129.667C707.333 128.867 706.133 128.867 703.867 129.667C701.467 130.6 699.467 130.467 696.667 129C692.133 126.6 691.333 126.6 691.333 128.467Z" fill="white"/>
<path d="M451.466 130.466C451.466 131.933 451.866 132.333 452.266 131.266C452.666 130.333 452.532 129.133 452.132 128.733C451.732 128.2 451.332 129 451.466 130.466Z" fill="white"/>
<path d="M203.332 131.133C203.332 131.8 203.999 132.067 204.665 131.667C205.465 131.267 205.999 130.6 205.999 130.2C205.999 129.933 205.465 129.667 204.665 129.667C203.999 129.667 203.332 130.333 203.332 131.133Z" fill="white"/>
<path d="M213.734 130.6C214.667 131 215.867 130.867 216.267 130.467C216.8 130.067 216 129.667 214.534 129.8C213.067 129.8 212.667 130.2 213.734 130.6Z" fill="white"/>
<path d="M463.332 131.8C463.332 132.867 464.399 134.867 465.599 136.067C467.732 138.2 467.732 138.2 466.932 135.933C466.399 134.6 465.999 132.6 465.999 131.533C465.999 130.467 465.465 129.667 464.665 129.667C463.999 129.667 463.332 130.6 463.332 131.8Z" fill="white"/>
<path d="M672.267 132.867C671.333 135.134 673.733 137.667 676.8 137.667C679.6 137.667 681.333 133.534 679.067 132.067C676.4 130.467 673.067 130.867 672.267 132.867Z" fill="white"/>
<path d="M99.332 133.667C99.332 134.333 99.8654 135 100.532 135C101.332 135 102.265 134.333 102.665 133.667C103.065 132.867 102.532 132.333 101.465 132.333C100.265 132.333 99.332 132.867 99.332 133.667Z" fill="white"/>
<path d="M544.799 135.267C544.799 137.267 543.999 139.267 543.333 139.667C541.466 140.867 542.133 149.533 544.266 151.267C545.199 152.067 545.999 153.267 545.999 153.933C545.999 154.733 545.066 154.6 543.999 153.667C542.266 152.2 542.133 152.333 542.799 154.2C543.999 157.267 545.599 156.867 547.866 152.6C549.333 149.933 549.866 149.667 549.999 151.4C549.999 153.267 550.533 153.533 552.533 152.333C555.199 151 555.199 150.333 553.199 136.6C552.133 129.533 550.533 131.8 551.066 139.667C551.333 144.333 551.066 147 550.133 147C549.333 147 548.666 145.933 548.666 144.6C548.666 143.267 548.133 141.667 547.466 140.867C546.799 140.2 545.999 137.8 545.599 135.667C545.066 131.8 545.066 131.8 544.799 135.267ZM545.599 145.267C545.199 146.6 544.933 145.8 544.933 143.667C544.933 141.4 545.199 140.467 545.599 141.267C545.866 142.2 545.866 144.067 545.599 145.267Z" fill="white"/>
<path d="M754.799 135.267C753.999 138.467 757.333 142.333 759.466 140.867C760.133 140.467 760.666 141.133 760.666 142.2C760.666 143.4 760.133 144.333 759.466 144.333C758.799 144.333 758.533 147.133 758.933 150.6C759.599 157.667 760.666 160.067 760.666 154.867C760.666 153 761.199 151 761.866 150.2C762.533 149.533 763.466 146.867 763.999 144.333C764.666 140.467 764.266 139.4 762.133 137.933C760.399 137 759.333 136.867 759.333 137.667C759.333 138.333 758.666 139 757.866 139C756.933 139 756.666 137.667 757.199 135.667C757.733 133.8 757.466 132.333 756.799 132.333C756.133 132.333 755.333 133.667 754.799 135.267Z" fill="white"/>
<path d="M448.267 139C447.333 145.933 448.267 149 450.667 147C451.6 146.2 453.2 145.933 454.4 146.467C455.467 146.867 456.8 146.6 457.333 145.8C457.733 145 456.667 143.8 454.8 143C452.933 142.333 451.333 140.733 451.333 139.4C451.2 133.8 449.067 133.667 448.267 139Z" fill="white"/>
<path d="M652.666 135.534C652.666 136.601 653.333 137.667 654.266 137.934C655.199 138.334 655.466 139.534 654.799 141.001C654.133 143.001 653.599 143.267 652.799 141.801C651.333 139.667 648.666 141.001 648.666 143.934C648.666 145.134 649.466 145.667 650.666 145.134C651.999 144.734 652.666 145.267 652.666 146.734C652.666 149.134 655.066 152.334 656.933 152.334C657.466 152.334 657.333 150.867 656.399 149.001C655.466 146.867 655.333 145.134 656.266 144.067C657.066 143.001 657.199 140.734 656.399 137.934C655.199 133.667 652.666 131.934 652.666 135.534Z" fill="white"/>
<path d="M749.333 137.4C749.333 141.4 746.533 142.867 745.467 139.4C745.067 138.067 744.933 139.267 745.333 142.067C745.733 146.6 745.6 147 743.2 146.333C741.733 145.8 740.667 146.067 740.667 147C740.667 147.8 741.2 148.2 741.867 147.8C742.533 147.4 743.333 147.8 743.733 148.867C744.133 149.933 743.6 151.133 742.533 151.533C741.467 151.933 740.667 151.667 740.667 151C740.667 148.733 738.8 149.667 736.133 153.133C733.733 156.6 733.733 156.6 736.267 155.267C739.067 153.8 739.067 153.8 739.6 160.333C739.733 161.8 740.8 163 741.733 163C742.933 163 743.333 162.2 742.8 160.6C742.133 158.733 742.4 158.867 744 161C745.867 163.4 745.867 163.667 744.133 164.067C741.467 164.6 741.333 169.133 743.867 170.067C745.2 170.6 745.467 170.067 745.067 168.2C744.267 165.267 745.067 165.133 748.8 167.133C751.2 168.333 751.333 168.2 750.133 165.933C749.333 164.467 749.2 162.867 749.733 162.467C750.267 161.933 750.667 158.6 750.667 155.267C750.667 150.067 751.2 148.733 753.733 147.667C755.333 147 756.667 145.933 756.667 145.4C756.667 143.667 752.933 144.2 752.267 145.933C751.867 147.267 751.2 147.267 750.133 146.2C748.933 145.133 749.067 144.333 750.667 143C753.067 141 753.333 135.533 750.933 134.6C749.867 134.2 749.2 135.133 749.333 137.4Z" fill="white"/>
<path d="M318.266 138.334C318.532 140.334 317.732 142.334 315.999 143.534C314.532 144.734 314.132 145.667 314.932 145.667C318.266 145.667 321.599 141.534 320.932 138.2C320.132 133.934 317.732 134.067 318.266 138.334Z" fill="white"/>
<path d="M48.3995 137.267C49.3329 137.667 50.5329 137.534 50.9329 137.134C51.4662 136.734 50.6662 136.334 49.1995 136.467C47.7329 136.467 47.3329 136.867 48.3995 137.267Z" fill="white"/>
<path d="M220.666 138.867C220.666 139.667 221.333 140.6 221.999 141C222.799 141.4 223.333 143 223.333 144.467C223.333 145.933 224.266 147 225.466 147C226.666 147 227.333 146.6 227.066 145.933C223.866 139.533 222.799 137.667 221.733 137.667C221.199 137.667 220.666 138.2 220.666 138.867Z" fill="white"/>
<path d="M666.532 144.734C666.665 147.667 667.465 150.334 668.132 150.6C669.999 151.267 669.732 140.467 667.865 139.8C666.665 139.4 666.265 140.734 666.532 144.734Z" fill="white"/>
<path d="M692.4 141.267C691.067 141.534 690 142.467 690 143.134C690 145.001 692.667 144.601 694.8 142.334C696.933 140.334 696.533 140.201 692.4 141.267Z" fill="white"/>
<path d="M675.733 142.601C674.8 143.001 674 144.334 674 145.801C674 148.734 676.267 149.001 679.6 146.601C681.6 145.001 681.6 144.734 679.6 143.534C678.4 142.734 676.533 142.334 675.733 142.601Z" fill="white"/>
<path d="M300.665 146.067C300.665 147.267 300.132 148.333 299.332 148.333C298.665 148.333 297.999 147.667 297.999 147C297.999 146.2 297.332 145.667 296.532 145.667C295.732 145.667 295.465 146.733 295.865 147.933C296.799 150.867 295.465 152.867 292.132 154.067C290.799 154.6 289.999 155.8 290.399 156.867C291.332 159.4 287.465 160.867 285.199 158.867C283.732 157.667 283.465 158.2 283.732 161.8C283.999 165.667 284.665 166.333 287.332 166.333C290.532 166.467 293.999 164.2 293.999 162.333C293.999 161.8 293.065 161.8 291.865 162.2C290.532 162.733 290.132 162.467 290.799 161.267C292.399 158.467 297.065 153.667 298.132 153.667C299.599 153.667 297.999 158.067 296.132 159.267C295.065 159.933 295.199 160.333 296.265 160.333C297.199 160.333 299.199 159 300.665 157.4C302.799 155.133 303.199 153.267 302.665 149.8C301.865 144.733 300.665 142.6 300.665 146.067Z" fill="white"/>
<path d="M419.732 145.267C417.732 145.934 417.332 149.667 419.198 149.667C419.865 149.667 420.665 148.467 421.065 147C421.465 145.534 421.598 144.334 421.598 144.467C421.465 144.467 420.532 144.867 419.732 145.267Z" fill="white"/>
<path d="M75.6 147.134C73.8666 147.801 72.8 148.867 73.3333 149.534C74.1333 151.001 80.5333 150.867 80.6666 149.267C80.8 145.134 80.6666 145.001 75.6 147.134Z" fill="white"/>
<path d="M84.666 147.001C84.666 147.667 85.866 148.334 87.466 148.334C88.9327 148.334 89.7327 147.667 89.3327 147.001C88.9327 146.201 87.5993 145.667 86.5327 145.667C85.466 145.667 84.666 146.201 84.666 147.001Z" fill="white"/>
<path d="M94 147.001C94 147.667 94.6667 148.334 95.4667 148.334C96.1333 148.334 96.4 147.667 96 147.001C95.6 146.201 94.9333 145.667 94.5333 145.667C94.2667 145.667 94 146.201 94 147.001Z" fill="white"/>
<path d="M318.267 148.467C317.333 149.933 316.8 151.533 317.067 151.8C318 152.733 320.933 148.6 320.4 147C320.133 146.2 319.2 146.867 318.267 148.467Z" fill="white"/>
<path d="M471.332 147.001C471.332 147.667 471.999 148.334 472.799 148.334C473.465 148.334 473.732 147.667 473.332 147.001C472.932 146.201 472.265 145.667 471.865 145.667C471.599 145.667 471.332 146.201 471.332 147.001Z" fill="white"/>
<path d="M764.666 147.001C764.666 147.667 765.333 148.334 765.999 148.334C766.799 148.334 767.333 147.667 767.333 147.001C767.333 146.201 766.799 145.667 765.999 145.667C765.333 145.667 764.666 146.201 764.666 147.001Z" fill="white"/>
<path d="M86.666 150.334C83.466 151.8 83.066 152.334 84.9326 153C87.3326 153.934 92.666 151.667 92.666 149.667C92.666 147.934 91.5993 148.067 86.666 150.334Z" fill="white"/>
<path d="M211.333 150.334C210.267 151.534 210.133 152.867 210.8 153.667C212.4 155.134 215.333 151.801 214.133 149.801C213.333 148.601 212.667 148.734 211.333 150.334Z" fill="white"/>
<path d="M398.666 149.667C399.066 150.333 399.999 151 400.799 151C401.466 151 401.999 150.333 401.999 149.667C401.999 148.867 401.066 148.333 399.866 148.333C398.799 148.333 398.266 148.867 398.666 149.667Z" fill="white"/>
<path d="M450.667 149.667C449.6 151.4 450.534 152.867 452.534 152.2C453.334 151.8 453.467 150.867 452.8 149.8C452 148.467 451.467 148.467 450.667 149.667Z" fill="white"/>
<path d="M466.799 152.6C467.332 155 469.466 158.734 471.599 160.867C474.932 164.067 476.132 164.467 478.132 163.267C479.866 162.067 480.666 162.2 481.066 163.4C481.466 164.6 482.399 164.6 485.066 163.134C489.066 161 489.732 159 486.666 159C485.599 159 484.666 159.8 484.666 160.6C484.532 161.667 483.866 161.4 482.799 159.934C481.866 158.734 480.399 157.667 479.466 157.667C478.666 157.667 477.999 157 477.999 156.334C477.999 155.534 477.066 155 475.866 155C474.532 155 473.999 154.2 474.532 153C474.932 151.667 474.399 151 472.666 151C471.332 151 469.732 150.334 469.332 149.667C467.599 146.734 466.132 148.6 466.799 152.6ZM475.866 157C479.466 159.667 477.999 162.2 474.266 159.667C471.466 157.534 470.266 155 472.399 155C472.932 155 474.399 155.934 475.866 157Z" fill="white"/>
<path d="M534.532 151.934C534.799 153.934 535.599 155.8 536.532 156.067C538.665 156.734 538.399 152.467 536.132 150.2C534.399 148.6 534.265 148.867 534.532 151.934Z" fill="white"/>
<path d="M6.79883 152.6C4.13216 156.467 4.13216 161.4 6.79883 167.8C8.53216 172.067 9.0655 172.467 10.1322 170.6C11.0655 169 10.6655 167.533 8.66549 165.4C5.99883 162.467 4.93216 156.333 7.19883 156.333C7.86549 156.333 8.66549 157.667 9.0655 159.267C9.4655 162.067 9.59883 162.067 10.6655 159.8C11.3322 158.2 11.0655 157 9.99883 156.333C9.0655 155.8 8.66549 154.067 9.0655 152.467C9.99883 148.867 9.33216 148.867 6.79883 152.6Z" fill="white"/>
<path d="M674.134 153.133C674.134 154.6 674.534 155 674.934 153.933C675.334 153 675.2 151.8 674.8 151.4C674.4 150.867 674 151.667 674.134 153.133Z" fill="white"/>
<path d="M679.6 152.867C680.533 153.933 681.6 154.467 681.867 154.333C682.533 153.533 680.533 151 679.2 151C678.533 151 678.667 151.8 679.6 152.867Z" fill="white"/>
<path d="M76.0003 153.4C75.3336 153.933 74.667 155.133 74.5336 155.933C74.267 159.667 73.867 160.067 71.067 159.533C68.2669 159 68.2669 159 70.667 160.067C74.8003 161.933 78.4003 159.933 78.5336 155.933C78.8003 152.2 78.267 151.667 76.0003 153.4Z" fill="white"/>
<path d="M220.666 152.867C220.666 153.134 221.599 153.801 222.799 154.201C223.866 154.601 224.399 154.467 223.999 153.667C223.199 152.334 220.666 151.801 220.666 152.867Z" fill="white"/>
<path d="M530 154.733C530 156.067 532.8 159 534.267 159C536.4 159 535.333 156.467 532.667 155C531.2 154.2 530 154.067 530 154.733Z" fill="white"/>
<path d="M81.7335 155.933C82.6668 156.333 83.8668 156.2 84.2668 155.8C84.8002 155.4 84.0002 155 82.5335 155.133C81.0668 155.133 80.6668 155.533 81.7335 155.933Z" fill="white"/>
<path d="M219.732 156.467C218.932 157.267 218.532 158.867 218.932 159.933C219.332 161 218.932 162.467 217.866 163.267C216.532 164.2 216.799 164.467 218.932 163.933C221.466 163.4 221.732 163.667 220.666 165.667C218.132 170.333 219.332 171.4 222.666 167.533L225.999 163.667L222.799 160.733C220.666 158.867 219.999 157.667 221.066 157.267C221.999 157 222.266 156.333 221.866 155.933C221.466 155.4 220.532 155.667 219.732 156.467Z" fill="white"/>
<path d="M660.265 156.867C658.132 159 658.132 159.4 660.399 162.334C663.332 166.334 665.199 164.6 663.732 159C662.665 154.867 662.399 154.734 660.265 156.867Z" fill="white"/>
<path d="M212.666 158.467C212.666 159.534 213.333 160.067 213.999 159.667C214.799 159.134 215.066 158.2 214.666 157.534C213.466 155.667 212.666 156.067 212.666 158.467Z" fill="white"/>
<path d="M523.865 158.201C521.999 159.001 521.065 160.734 520.932 163.667C520.799 167.534 521.199 168.067 524.399 168.067C526.399 168.067 528.799 167.401 529.865 166.601C531.332 165.401 530.932 164.467 527.865 162.067C525.332 160.067 524.665 159.001 525.999 159.001C527.199 159.001 528.932 160.201 529.999 161.667C531.065 163.134 532.665 164.334 533.599 164.334C536.665 164.334 535.465 161.934 531.065 159.401C527.865 157.667 525.865 157.267 523.865 158.201Z" fill="white"/>
<path d="M675.332 157.667C675.332 158.333 676.265 159 677.332 159C678.399 159 679.332 158.333 679.332 157.667C679.332 156.867 678.399 156.333 677.332 156.333C676.265 156.333 675.332 156.867 675.332 157.667Z" fill="white"/>
<path d="M241.999 159.134C241.999 160.067 240.666 160.334 239.066 159.934C237.333 159.534 234.933 159.934 233.599 160.867C231.466 162.467 231.466 162.734 233.466 163.534C237.066 164.867 242.133 164.467 244.133 162.467C246.533 160.067 246.533 159.534 243.999 158.467C242.933 158.067 241.999 158.334 241.999 159.134Z" fill="white"/>
<path d="M400 159C399.6 159.667 398.4 159.933 397.334 159.4C394.8 158.467 394.8 160.867 397.334 163C398.934 164.333 399.334 164.333 399.334 163C399.334 162.067 400.134 161.667 401.2 162.067C402.534 162.6 403.067 162.067 402.934 160.2C402.8 157.533 401.334 156.867 400 159Z" fill="white"/>
<path d="M734.666 159.934C732.532 162.067 732.532 162.201 734.799 163.934C738.132 166.334 739.732 166.067 738.666 163.267C738.132 162.067 737.599 160.201 737.599 159.267C737.599 157.134 737.332 157.267 734.666 159.934Z" fill="white"/>
<path d="M681.999 160.2C681.999 160.867 682.666 161.667 683.332 161.934C684.266 162.2 683.999 163.4 682.799 165C680.799 167.667 680.799 167.667 680.666 164.6C680.666 161.534 677.332 160.467 676.266 163.267C674.666 167.8 680.799 171.934 682.532 167.534C682.932 166.334 684.132 165.667 685.066 166.067C685.866 166.467 687.599 167.134 688.799 167.667C690.532 168.334 691.199 167.534 691.599 164.6C691.999 161.4 691.732 160.867 689.866 161.267C688.666 161.667 687.199 161.267 686.799 160.467C685.599 158.734 681.999 158.467 681.999 160.2Z" fill="white"/>
<path d="M726.799 162.334C727.333 163.401 726.933 164.334 726.133 164.334C725.333 164.334 724.666 163.667 724.666 163.001C724.666 162.201 723.999 161.667 723.066 161.667C721.866 161.667 721.866 162.067 723.066 163.267C723.999 164.201 724.666 165.934 724.666 167.267C724.666 170.467 726.133 170.334 729.066 166.867C731.733 163.801 731.199 160.334 728.133 160.334C726.799 160.334 726.399 161.134 726.799 162.334Z" fill="white"/>
<path d="M47.7324 163.001C43.1991 164.867 43.9991 166.334 49.4657 166.467C52.1324 166.467 54.6657 167.134 55.0657 167.801C55.7324 168.734 57.0657 168.601 59.0657 167.534C60.7991 166.734 61.5991 165.534 60.9324 165.134C60.1324 164.734 59.0657 165.001 58.6657 165.801C57.9991 166.734 56.7991 166.201 55.1991 164.467C52.2657 161.401 51.9991 161.267 47.7324 163.001Z" fill="white"/>
<path d="M64.6666 163C63.5999 163.667 63.1999 164.6 63.7333 165.134C64.2666 165.667 65.4666 165.4 66.2666 164.6C68.2666 162.6 67.1999 161.4 64.6666 163Z" fill="white"/>
<path d="M304.665 163C302.932 164.2 302.932 164.467 304.665 165.667C307.599 167.667 308.532 167.267 308.265 164.333C308.132 161.4 307.465 161.133 304.665 163Z" fill="white"/>
<path d="M310 163.533C310 164.6 310.933 165.667 312 166.2C314.267 167 314.4 166.733 313.2 163.8C312.133 161.133 310 161 310 163.533Z" fill="white"/>
<path d="M540.398 165.534C539.732 167.8 540.132 169.267 541.598 170.334C542.798 171.267 543.332 172.6 542.798 173.534C542.265 174.334 542.532 175.934 543.332 177C544.132 178.067 544.532 179.4 544.265 180.067C543.865 180.6 543.998 181.934 544.798 183C545.732 184.6 545.998 184.334 545.998 181.934C545.998 180.334 546.665 179 547.332 179C548.132 179 548.665 179.934 548.665 181C548.665 182.067 549.465 182.6 550.532 182.2C553.065 181.267 553.998 173.934 551.732 172.2C550.798 171.4 549.998 170.867 549.865 171.134C549.865 171.4 549.598 172.734 549.332 174.067C548.532 178.334 547.332 178.334 547.332 174.067C547.332 171.134 546.532 169.8 544.798 169.267C543.332 169 541.998 167.267 541.732 165.534L541.332 162.334L540.398 165.534Z" fill="white"/>
<path d="M545.332 164.334C545.732 165 546.665 165.667 547.465 165.667C548.132 165.667 548.665 165 548.665 164.334C548.665 163.534 547.732 163 546.532 163C545.465 163 544.932 163.534 545.332 164.334Z" fill="white"/>
<path d="M550.533 165.134C550.933 166.334 551.333 167.534 551.333 167.801C551.333 168.201 551.866 168.201 552.666 167.667C554.133 166.734 552.933 163.001 551.066 163.001C550.266 163.001 550.133 163.934 550.533 165.134Z" fill="white"/>
<path d="M602.133 164.6C602 165.933 601.067 167 600 167C598.533 167 598 168.467 598 172.2C598 176.733 598.4 177.533 600.667 177.267C602.133 177.133 603.333 176.467 603.467 175.667C603.467 175 603.733 173 604.133 171.4C604.4 169.8 604.133 167.133 603.333 165.4C602.533 163.133 602.133 162.867 602.133 164.6Z" fill="white"/>
<path d="M665.866 163.267C664.666 167.267 665.066 168.067 667.466 166.6C670.533 164.734 670.8 163 668 163C666.933 163 666 163.134 665.866 163.267Z" fill="white"/>
<path d="M614 171.667C614 175.667 614.667 179 615.333 179C616.133 179 616.667 177.8 616.667 176.467C616.667 175 617.333 173.4 618.133 172.867C619.2 172.333 619.2 171.667 618.133 170.6C617.333 169.8 616.667 168.067 616.667 166.733C616.667 165.4 616.133 164.333 615.333 164.333C614.667 164.333 614 167.667 614 171.667Z" fill="white"/>
<path d="M346.133 167.534C344.4 169.534 346.533 181 348.933 182.467C351.2 183.934 352 181.667 350.133 178.734C348.933 176.867 348.8 175.667 349.867 174.6C352.133 172.334 351.6 170.734 348.667 171.667C345.6 172.6 345.333 171.934 347.333 168.2C348.933 165.267 348.267 164.867 346.133 167.534Z" fill="white"/>
<path d="M358 167.133C358 167.8 358.667 168.067 359.333 167.667C360.133 167.267 360.667 166.6 360.667 166.2C360.667 165.933 360.133 165.667 359.333 165.667C358.667 165.667 358 166.333 358 167.133Z" fill="white"/>
<path d="M410 166.867C410 168.334 413.867 171.534 414.667 170.734C416 169.534 413.733 165.667 411.867 165.667C410.8 165.667 410 166.201 410 166.867Z" fill="white"/>
<path d="M462 167.001C462 167.667 462.533 168.334 463.2 168.334C464 168.334 464.933 167.667 465.333 167.001C465.733 166.201 465.2 165.667 464.133 165.667C462.933 165.667 462 166.201 462 167.001Z" fill="white"/>
<path d="M670.932 168.201C670.532 170.067 670.799 170.601 672.132 170.067C673.332 169.667 673.999 170.334 673.999 171.667C673.999 173.001 675.332 175.134 676.932 176.467C680.665 179.801 681.332 179.667 678.799 176.067C677.599 174.467 676.665 172.201 676.665 171.267C676.665 169.534 673.599 165.667 672.265 165.667C671.865 165.667 671.332 166.867 670.932 168.201Z" fill="white"/>
<path d="M0.666016 169.134C0.666016 170.201 1.33268 170.734 1.99935 170.334C2.79935 169.801 3.06602 168.867 2.66602 168.201C1.46602 166.334 0.666016 166.734 0.666016 169.134Z" fill="white"/>
<path d="M47.332 168.067C47.332 169.4 52.7987 172.734 53.5987 171.8C54.532 170.867 50.532 167 48.7987 167C47.9987 167 47.332 167.4 47.332 168.067Z" fill="white"/>
<path d="M224.932 169.134C221.199 171.667 220.932 174.334 224.532 172.334C225.999 171.667 228.399 171.001 229.866 171.001C233.199 171.001 233.599 169.001 230.532 167.801C227.866 166.734 228.399 166.601 224.932 169.134Z" fill="white"/>
<path d="M299.332 167.934C299.332 170.201 301.865 172.601 303.199 171.801C304.265 171.134 304.132 170.334 302.799 168.867C300.665 166.867 299.332 166.467 299.332 167.934Z" fill="white"/>
<path d="M470 168.067C467.733 168.867 466 171 466 173C466 173.667 466.533 173.534 467.2 172.467C468 171.267 469.2 171 470.8 171.667C472.267 172.334 475.333 173 477.733 173.267C481.467 173.8 482 173.534 482 170.734C482 168.2 481.733 168.067 480.667 169.667C479.467 171.4 479.2 171.4 478 169.667C476.667 167.534 473.467 167 470 168.067Z" fill="white"/>
<path d="M532.667 168.334C533.734 169 535.334 169.667 536 169.667C536.8 169.667 536.4 169 535.334 168.334C534.267 167.667 532.8 167 532 167C531.334 167 531.6 167.667 532.667 168.334Z" fill="white"/>
<path d="M259.733 169.934C255.867 171.801 255.867 174.201 259.6 177.667C262.533 180.467 262.667 180.467 264.667 177.934C265.867 176.601 267.733 175.534 269.067 175.801C270.533 175.934 271.333 175.134 271.333 173.534C271.333 171.934 270.4 171.001 268.8 171.001C267.333 171.001 265.733 170.334 265.333 169.667C264.4 168.067 263.6 168.067 259.733 169.934Z" fill="white"/>
<path d="M405.999 170.601C405.999 172.334 405.599 172.467 404.399 171.267C402.399 169.267 396.666 169.134 396.666 171.267C396.666 172.067 397.066 172.334 397.599 171.934C398.133 171.401 400.133 172.601 402.266 174.601C405.333 177.534 405.999 177.801 405.999 175.801C405.999 174.201 406.666 173.667 408.533 174.334C410.533 175.001 410.933 174.467 410.266 171.667C409.599 167.934 405.999 167.001 405.999 170.601Z" fill="white"/>
<path d="M702 171.934C702 174.067 702.533 175 703.067 174.334C703.6 173.534 705.733 173 708 173C710.667 173 712.133 172.334 712.4 170.6C712.8 168.734 711.867 168.334 707.467 168.334C702.4 168.334 702 168.6 702 171.934Z" fill="white"/>
<path d="M731.2 171C729.333 172.467 728.8 173.534 729.733 173.667C732.266 173.667 736.666 171.134 736.666 169.667C736.666 167.534 734.533 168.067 731.2 171Z" fill="white"/>
<path d="M503.866 171.533C503.333 172.733 501.866 173 498.266 172.467C488.666 170.733 479.866 173.267 484.666 176.333C486.533 177.533 491.866 178.333 494.666 177.667C495.466 177.533 497.066 177.267 498.399 177C499.599 176.733 501.333 176.067 501.999 175.667C502.799 175.267 503.333 175.533 503.333 176.467C503.333 177.533 503.866 177.533 505.333 176.333C506.399 175.4 507.333 175.133 507.333 175.8C507.333 177.4 510.533 173.933 510.799 171.933C511.066 169.667 504.799 169.133 503.866 171.533Z" fill="white"/>
<path d="M559.599 174.867C557.066 179.4 556.799 180.867 558.132 181.8C560.666 183.4 563.599 178.467 563.066 173.267L562.666 169L559.599 174.867Z" fill="white"/>
<path d="M231.599 173.8C227.466 177 227.866 177.667 233.999 177.667C239.866 177.667 240.532 176.6 236.932 173.534C234.666 171.534 234.132 171.667 231.599 173.8Z" fill="white"/>
<path d="M532.666 174.334C532.666 176.2 533.333 177.667 533.999 177.667C534.799 177.667 535.333 177.134 535.333 176.334C535.333 175.667 536.266 175.4 537.333 175.8C539.999 176.867 539.866 175 537.066 172.867C533.599 170.334 532.666 170.6 532.666 174.334Z" fill="white"/>
<path d="M46.7993 173.534C46.266 174.2 46.5327 175.134 47.1993 175.534C47.866 176.067 48.7993 175.8 49.1993 175.134C49.7327 174.467 49.466 173.534 48.7993 173.134C48.1327 172.6 47.1993 172.867 46.7993 173.534Z" fill="white"/>
<path d="M55.332 173.8C55.332 174.467 55.9987 174.734 56.6654 174.334C57.4654 173.934 57.9987 173.267 57.9987 172.867C57.9987 172.6 57.4654 172.334 56.6654 172.334C55.9987 172.334 55.332 173 55.332 173.8Z" fill="white"/>
<path d="M364.265 175.533C364.799 177.8 364.132 179.267 362.132 180.6C360.532 181.533 359.332 183.133 359.332 184.067C359.332 185 359.999 185.4 360.799 184.867C361.599 184.467 366.665 184.067 371.999 184.2C386.665 184.467 386.665 181 371.999 180.067C367.332 179.667 366.665 179.267 366.265 175.933C365.999 173.933 365.332 172.333 364.799 172.333C364.132 172.333 363.999 173.8 364.265 175.533Z" fill="white"/>
<path d="M684.666 176.067C684.666 179.4 685.333 179.933 692.666 182.067C697.066 183.4 701.733 184.2 703.066 183.933C705.199 183.4 705.199 183.267 703.066 183.133C701.733 183.133 700.533 182.333 700.533 181.667C700.399 180.867 700.266 179.667 700.133 178.867C699.866 176.6 694.799 175 692.533 176.467C689.066 178.6 687.066 177.933 688.666 175C689.866 172.733 689.733 172.333 687.333 172.333C685.333 172.333 684.666 173.267 684.666 176.067Z" fill="white"/>
<path d="M738.667 175C737.333 176.467 736.933 177.667 737.6 177.667C738.4 177.667 739.733 176.734 740.667 175.667C741.6 174.6 742.933 174.067 743.733 174.6C744.533 175 744.667 174.734 744.133 173.934C742.8 171.667 741.467 171.934 738.667 175Z" fill="white"/>
<path d="M2 177.534C2 179.134 2.66667 180.334 3.33333 180.334C4.13333 180.334 4.66667 179.534 4.66667 178.467C4.66667 177.401 4.13333 176.067 3.33333 175.667C2.66667 175.267 2 176.067 2 177.534Z" fill="white"/>
<path d="M716.932 176.734C715.065 179.001 713.599 184.334 714.799 184.334C715.865 184.334 730.399 180.067 731.199 179.401C731.465 179.267 730.932 178.067 729.999 177.001C728.932 175.667 727.865 175.401 727.332 176.201C726.799 177.134 725.065 177.267 722.399 176.467C719.465 175.534 717.732 175.667 716.932 176.734Z" fill="white"/>
<path d="M609.999 179.533C609.999 181.4 609.466 183 608.666 183C607.999 183 607.332 182.333 607.332 181.667C607.332 180.867 606.132 180.333 604.666 180.333C599.599 180.333 601.999 182.733 608.266 184.067C611.732 184.867 614.932 185.267 615.199 184.867C615.466 184.6 615.199 184.333 614.399 184.333C613.599 184.333 613.199 183.267 613.599 181.933C613.866 180.6 613.199 178.733 612.132 177.8C610.266 176.2 609.999 176.467 609.999 179.533Z" fill="white"/>
<path d="M18.6658 180.201C17.8658 181.667 23.5992 188.334 25.7325 188.334C26.6658 188.334 29.1992 187.134 31.5992 185.667L35.8658 183.134L32.1325 181.667C27.0658 179.801 25.0658 179.934 27.0658 181.934C27.9992 182.867 28.6658 184.067 28.6658 184.734C28.6658 185.401 27.4658 184.467 25.8658 182.467C23.0658 179.001 20.1325 177.934 18.6658 180.201Z" fill="white"/>
<path d="M240.666 180.334C240.666 181 241.866 181.667 243.333 181.667C244.799 181.667 245.999 181 245.999 180.334C245.999 179.534 244.799 179 243.333 179C241.866 179 240.666 179.534 240.666 180.334Z" fill="white"/>
<path d="M249.466 181C248.666 181.8 246.799 183.267 245.333 184.2C242.933 185.667 242.933 185.8 245.199 185.133C246.533 184.6 248.399 184.867 249.333 185.667C250.533 186.6 251.999 186.2 254.799 184.067C256.933 182.333 258.666 181.267 258.799 181.667C258.933 182.067 259.466 181.933 259.999 181.533C260.399 181 258.666 180.333 255.866 180.067C253.199 179.8 250.399 180.2 249.466 181Z" fill="white"/>
<path d="M487.333 180.334C484.4 181.001 484.266 181.267 486.4 182.067C487.733 182.601 489.866 182.467 490.933 181.801C493.733 180.334 491.466 179.267 487.333 180.334Z" fill="white"/>
<path d="M522.666 180.333C522.133 181.133 521.333 181.4 520.666 181C519.999 180.6 517.999 180.867 516.399 181.8C513.466 183.4 513.466 183.4 515.999 184.333C518.799 185.267 527.333 182.067 527.333 180.067C527.333 178.467 523.599 178.733 522.666 180.333Z" fill="white"/>
<path d="M530.666 180.334C530.266 181 530.533 181.667 531.2 181.667C532 181.667 532.666 181 532.666 180.334C532.666 179.534 532.4 179 532.133 179C531.733 179 531.066 179.534 530.666 180.334Z" fill="white"/>
<path d="M39.7336 181.267C40.9336 181.533 43.067 181.533 44.4003 181.267C45.6003 180.867 44.5336 180.6 42.0003 180.6C39.467 180.6 38.4003 180.867 39.7336 181.267Z" fill="white"/>
<path d="M274.398 181.801C275.732 182.601 277.998 183.001 279.465 182.601C280.798 182.201 281.998 182.467 281.998 183.134C281.998 183.801 282.665 184.334 283.332 184.334C284.132 184.334 284.665 183.401 284.665 182.334C284.665 180.867 283.065 180.334 278.398 180.334C273.198 180.467 272.398 180.734 274.398 181.801Z" fill="white"/>
<path d="M387.866 182.333C384.533 184.867 387.333 184.867 392.133 182.333C395.333 180.733 395.599 180.333 393.199 180.333C391.733 180.333 389.333 181.267 387.866 182.333Z" fill="white"/>
<path d="M563.466 182.466C563.466 183.933 563.866 184.333 564.266 183.266C564.666 182.333 564.532 181.133 564.132 180.733C563.732 180.2 563.332 181 563.466 182.466Z" fill="white"/>
<path d="M616.666 181.8C616.666 182.467 617.333 182.734 617.999 182.334C618.799 181.934 619.333 181.267 619.333 180.867C619.333 180.6 618.799 180.334 617.999 180.334C617.333 180.334 616.666 181 616.666 181.8Z" fill="white"/>
<path d="M397.199 183.8C394.799 185.667 394.799 185.8 397.733 184.333C399.333 183.533 400.666 182.6 400.666 182.333C400.666 181.267 399.999 181.533 397.199 183.8Z" fill="white"/>
<path d="M496 183C495.466 183.8 496.8 184.333 499.2 184.333C501.333 184.333 503.6 185 504 185.667C504.533 186.467 505.466 186.733 506.133 186.2C506.933 185.8 505.866 184.6 504 183.533C499.733 181.267 497.2 181.133 496 183Z" fill="white"/>
<path d="M264.533 185.267C262.799 187.534 262.799 187.534 265.333 185.667C266.799 184.6 268.266 183.534 268.533 183.4C268.799 183.134 268.533 183 267.733 183C266.933 183 265.466 184.067 264.533 185.267Z" fill="white"/>
<path d="M554 184.2C554 184.867 554.667 185.933 555.333 186.333C556.133 186.733 556.667 186.6 556.667 185.8C556.667 185.133 556.133 184.067 555.333 183.667C554.667 183.267 554 183.4 554 184.2Z" fill="white"/>
<path d="M559.332 185.8C559.332 186.467 559.999 186.734 560.665 186.334C561.465 185.934 561.999 185.267 561.999 184.867C561.999 184.6 561.465 184.334 560.665 184.334C559.999 184.334 559.332 185 559.332 185.8Z" fill="white"/>
<path d="M601.332 185.667C601.732 186.333 602.399 187 602.799 187C603.066 187 603.332 186.333 603.332 185.667C603.332 184.867 602.666 184.333 601.866 184.333C601.199 184.333 600.932 184.867 601.332 185.667Z" fill="white"/>
<path d="M16.666 187.001C16.666 187.667 17.5993 188.334 18.7993 188.334C19.866 188.334 20.3993 187.667 19.9993 187.001C19.5993 186.201 18.666 185.667 17.866 185.667C17.1993 185.667 16.666 186.201 16.666 187.001Z" fill="white"/>
<path d="M5.99911 191.667C5.99911 193.134 5.59911 195.534 5.19911 197C4.66578 199.134 5.19911 199.667 7.73244 199.667C10.6658 199.667 10.7991 199.4 9.59911 195.667C7.86578 190.467 5.99911 188.334 5.99911 191.667Z" fill="white"/>
</svg>
