<svg width="2337" height="1167" viewBox="0 0 2337 1167" fill="none" xmlns="http://www.w3.org/2000/svg">
<path d="M14.3941 51.6072C69.1874 -20.7818 169.278 -0.000714951 213.365 66.6043C253.49 19.0884 452.474 -0.000730168 468.027 168.806C568.329 184.328 600.655 281.908 568.329 394.354C642.06 394.354 678.463 470.984 660.261 579.417C763.612 579.417 844.44 676.369 844.44 883.203C899.464 865.658 994.467 947.391 1016.44 1075.5C1058.93 995.07 1147.47 980.504 1193.21 1050.84C1221.21 979.964 1310.59 888.332 1435.71 938.381C1435.71 836.024 1528.67 796.041 1582.29 813.915C1557.28 687.849 1592.79 467.614 1758.77 436.923C1758.77 306.828 1807.77 226.393 1893.46 226.393C1893.46 154.419 2049.18 32.1773 2130.77 128.786C2154.31 52.8138 2211.5 -24.9171 2336.63 7.60003C2336.63 133.251 2336.63 1153.53 2336.63 1153.53H0L14.3941 51.6072Z" fill="#4CB7BE" fill-opacity="0.11"/>
<path d="M503.812 772.146C503.812 784.102 504.737 816.675 506.588 830.693C508.431 844.711 512.811 860.379 500.693 935.416C498.73 946.136 525.064 973.76 498.268 984.48C490.418 986.131 487.881 987.778 477.367 974.585C477.367 962.216 438.43 867.489 470.889 770.96C491.343 767.611 495.268 770.586 503.812 772.146Z" fill="#EFB29F"/>
<path d="M472.629 1012.31C472.629 1013.79 473.972 1014.99 475.629 1014.99H510.275C511.931 1014.99 513.275 1013.79 513.275 1012.31V977.986C513.275 976.51 511.931 975.307 510.275 975.307H475.629C473.972 975.307 472.629 976.51 472.629 977.986V1012.31ZM475.629 971.801H510.275C514.103 971.801 517.207 974.571 517.207 977.986V1012.31C517.207 1015.73 514.103 1018.49 510.275 1018.49H475.629C471.8 1018.49 468.696 1015.73 468.696 1012.31V977.986C468.696 974.571 471.8 971.801 475.629 971.801Z" fill="#1D2448" fill-opacity="0.75"/>
<path d="M462.713 1106.13C462.713 1109.54 465.817 1112.31 469.645 1112.31H542.154C545.982 1112.31 549.086 1109.54 549.086 1106.13V1001.05C549.086 997.637 545.982 994.867 542.154 994.867H469.645C465.817 994.867 462.713 997.637 462.713 1001.05V1106.13Z" fill="#29387B"/>
<path d="M463.072 1026.88H544.841C545.222 1026.88 545.535 1026.6 545.535 1026.26C545.535 1025.92 545.222 1025.64 544.841 1025.64H463.072C462.684 1025.64 462.378 1025.92 462.378 1026.26C462.378 1026.6 462.684 1026.88 463.072 1026.88Z" fill="#1D2448" fill-opacity="0.75"/>
<path d="M501.298 1045.02C501.298 1046.39 502.537 1047.49 504.066 1047.49H514.431C515.968 1047.49 517.207 1046.39 517.207 1045.02V1023.69C517.207 1022.32 515.968 1021.21 514.431 1021.21H504.066C502.537 1021.21 501.298 1022.32 501.298 1023.69V1045.02Z" fill="#1D2448" fill-opacity="0.75"/>
<path d="M505.898 1040.49C505.898 1041.85 507.144 1042.96 508.674 1042.96H509.271C510.8 1042.96 512.039 1041.85 512.039 1040.49V1036.83C512.039 1035.46 510.8 1034.35 509.271 1034.35H508.674C507.144 1034.35 505.898 1035.46 505.898 1036.83V1040.49Z" fill="#29387B"/>
<path d="M495.867 960.088C494.718 967.922 496.733 978.848 492.957 978.848C489.174 978.848 486.331 971.22 484.167 960.088C489.174 958.851 490.099 960.088 495.867 960.088Z" fill="#EFB29F"/>
<path d="M492.955 979.465C495.679 979.465 496.089 975.01 496.089 972.352C496.089 970.933 496.343 962.092 496.343 962.002C496.358 961.661 496.052 961.378 495.672 961.368C495.231 961.381 494.97 961.631 494.963 961.972C494.948 962.335 494.702 970.918 494.702 972.352C494.702 975.758 493.97 978.228 492.955 978.228C490.471 978.228 488.045 973.364 485.553 963.358C485.471 963.024 485.09 962.818 484.725 962.888C484.352 962.962 484.12 963.293 484.195 963.627C487.672 977.546 490.456 979.465 492.955 979.465Z" fill="#AB5E46"/>
<path d="M476.32 906.557C483.024 937.484 474.148 1066.95 466.885 1160.95C397.71 1165.08 351.08 1170.84 294.719 1160.95C298.413 1103.23 297.5 1057.44 292.688 1009.63C288.995 972.943 298.923 925.726 314.164 912.123C338.882 903.675 438.203 902.016 476.32 906.557Z" fill="#1B2428" fill-opacity="0.82"/>
<path d="M392.498 1166.85C393.266 1166.85 393.881 1166.3 393.881 1165.61C393.881 1131.67 403.661 1021.67 411.83 1001.81C420.014 981.923 437.848 953.215 438.031 952.927C438.403 952.331 438.168 951.578 437.491 951.246C436.823 950.914 435.979 951.128 435.607 951.726C435.424 952.015 417.483 980.893 409.223 1000.96C400.979 1021.01 391.115 1131.54 391.115 1165.61C391.115 1166.3 391.738 1166.85 392.498 1166.85Z" fill="#29373D" fill-opacity="0.86"/>
<path d="M427.775 650.823C429.345 649.417 432.622 651.446 435.762 657.734C444.049 662.474 498.5 683.387 501.503 691.748C505.192 702.056 512.355 749.702 512.355 773.706C503.347 776.682 488.446 776.064 477.362 776.064C474.239 800.493 465.231 841.001 465.231 850.279C465.231 859.556 476.324 889.86 476.324 906.558C453.452 912.742 384.159 926.348 314.163 912.124C314.163 874.398 307.934 815.336 302.392 767.096C299.535 772.242 297.073 777.578 294.002 782.535C277.376 777.587 244.226 765.97 231.358 760.598C238.984 738.029 263.581 676.183 275.703 669.999C287.842 663.815 347.2 641.654 355.282 637.737C363.372 633.819 412.53 642.577 427.775 650.823Z" fill="white"/>
<path d="M302.391 768.332C302.929 768.332 303.443 768.047 303.671 767.575C303.769 767.369 313.487 746.749 322.178 723.472C322.431 722.825 322.031 722.124 321.306 721.908C320.58 721.69 319.797 722.043 319.553 722.689C310.894 745.878 301.217 766.407 301.119 766.613C300.817 767.242 301.143 767.968 301.853 768.233C302.024 768.3 302.211 768.332 302.391 768.332Z" fill="#989FC5"/>
<path d="M477.358 777.301C478.044 777.301 478.641 776.847 478.731 776.223C478.783 775.9 483.477 743.588 483.477 727.206C483.477 726.522 482.857 725.968 482.096 725.968C481.327 725.968 480.708 726.522 480.708 727.206C480.708 743.427 476.029 775.581 475.985 775.903C475.888 776.58 476.418 777.201 477.179 777.29L477.358 777.301Z" fill="#989FC5"/>
<path d="M435.759 692.365C435.849 692.365 435.938 692.351 436.02 692.319C436.282 692.223 436.453 691.998 436.453 691.747V657.732C436.453 657.39 436.14 657.114 435.759 657.114C435.371 657.114 435.065 657.39 435.065 657.732V690.263C431.013 686.704 427.312 683.752 424.283 681.339C422.141 679.627 420.283 678.148 418.977 676.982C418.708 676.74 418.268 676.74 418 676.982C417.731 677.224 417.731 677.615 418 677.857C419.335 679.046 421.201 680.537 423.365 682.261C426.663 684.897 430.775 688.178 435.267 692.184C435.401 692.303 435.58 692.365 435.759 692.365Z" fill="#989FC5"/>
<path d="M371.852 692.365C372.042 692.365 372.216 692.301 372.35 692.184C378.617 686.593 386.73 679.405 386.73 679.405L385.752 678.526C385.752 678.526 378.254 685.172 372.105 690.656C369.934 686.156 366.249 680.98 362.373 675.518C354.141 663.94 344.819 650.816 349.768 642.774C349.958 642.476 349.839 642.1 349.5 641.935C349.161 641.772 348.742 641.88 348.561 642.179C343.209 650.861 352.357 663.732 361.197 676.181C365.294 681.944 369.161 687.387 371.213 691.977C371.308 692.169 371.489 692.311 371.718 692.353L371.852 692.365Z" fill="#989FC5"/>
<path d="M371.177 782.34C365.725 783.119 355.544 784.327 344.736 784.327C336.747 784.327 329.73 783.674 323.868 782.384C323.86 776.972 323.603 771.558 323.354 766.316C322.849 755.64 322.367 745.545 323.788 735.658H374.236C374.188 743.726 373.281 754.177 372.47 763.425C371.827 770.828 371.217 777.836 371.177 782.34ZM344.736 785.564C356.034 785.564 366.648 784.256 371.98 783.477C372.309 783.428 372.558 783.169 372.558 782.866C372.558 778.442 373.192 771.195 373.851 763.52C374.678 754.013 375.617 743.235 375.617 735.039C375.617 734.698 375.304 734.422 374.927 734.422H323.186C322.833 734.422 322.543 734.651 322.495 734.956C320.962 745.124 321.443 755.444 321.973 766.369C322.222 771.753 322.495 777.319 322.495 782.866C322.495 783.149 322.704 783.395 323.017 783.466C329.079 784.858 336.386 785.564 344.736 785.564Z" fill="#6C685A" fill-opacity="0.5"/>
<path d="M347.723 750.293C363.166 750.293 374.371 748.481 374.539 748.453C374.916 748.39 375.165 748.069 375.093 747.731C375.021 747.395 374.66 747.174 374.282 747.237C374.034 747.279 349.047 751.314 322.303 747.236C321.918 747.179 321.573 747.405 321.501 747.741C321.437 748.077 321.693 748.396 322.071 748.454C331.108 749.833 339.953 750.293 347.723 750.293Z" fill="#6C685A" fill-opacity="0.5"/>
<path d="M457.996 785.57C463.137 785.572 467.525 784.878 472.465 784.099C473.771 783.893 475.114 783.681 476.524 783.475C476.897 783.419 477.159 783.101 477.091 782.765C477.032 782.428 476.674 782.199 476.293 782.254C474.89 782.46 473.54 782.673 472.226 782.88C463.137 784.314 455.937 785.451 442.274 782.384C442.259 776.97 441.997 771.556 441.751 766.314C441.244 755.638 440.759 745.543 442.184 735.657H481.837C482.218 735.657 482.531 735.379 482.531 735.038C482.531 734.696 482.218 734.42 481.837 734.42H441.58C441.229 734.42 440.938 734.649 440.893 734.955C439.356 745.122 439.848 755.442 440.363 766.367C440.624 771.751 440.886 777.318 440.886 782.864C440.886 783.147 441.102 783.393 441.408 783.464C448.169 785.014 453.385 785.57 457.996 785.57Z" fill="#6C685A" fill-opacity="0.5"/>
<path d="M466.102 750.59C475.78 750.59 480.578 749.44 480.899 749.359C481.272 749.267 481.488 748.927 481.384 748.599C481.279 748.27 480.891 748.08 480.526 748.168C480.399 748.199 467.378 751.3 440.701 747.234C440.32 747.177 439.97 747.403 439.902 747.739C439.843 748.075 440.096 748.394 440.47 748.452C451.207 750.09 459.714 750.59 466.102 750.59Z" fill="#6C685A" fill-opacity="0.5"/>
<path d="M288.984 662.937C288.416 663.163 288.153 663.758 288.408 664.268L295.709 679.053C295.955 679.564 296.622 679.795 297.198 679.571L331.018 666.265C331.586 666.041 331.849 665.445 331.594 664.934L324.302 650.15C324.046 649.639 323.372 649.409 322.795 649.632L288.984 662.937Z" fill="#253138"/>
<path d="M320.802 670.287L312.584 653.655L317.028 651.908L325.246 668.54L320.802 670.287Z" fill="#FCCA2B" fill-opacity="0.73"/>
<path d="M311.871 673.801L303.654 657.167L308.096 655.419L316.312 672.052L311.871 673.801Z" fill="#FCCA2B" fill-opacity="0.73"/>
<path d="M302.935 677.307L294.721 660.675L299.168 658.927L307.383 675.56L302.935 677.307Z" fill="#FCCA2B" fill-opacity="0.73"/>
<path d="M448.774 666.194C448.469 666.726 448.7 667.384 449.297 667.663L482.645 683.159C483.242 683.438 483.98 683.231 484.294 682.697L487.122 679.069C487.435 678.537 487.204 677.879 486.607 677.6L453.252 662.103C452.655 661.825 451.916 662.031 451.61 662.567L448.774 666.194Z" fill="#253138"/>
<path d="M459.588 665.047L455.38 670.489L458.402 671.895L462.879 666.577L459.588 665.047Z" fill="#FCCA2B" fill-opacity="0.73"/>
<path d="M466.951 668.468L463.526 674.276L466.422 675.619L470.242 669.997L466.951 668.468Z" fill="#FCCA2B" fill-opacity="0.73"/>
<path d="M474.648 672.046L471.282 677.878L474.648 679.443L478.461 673.819L474.648 672.046Z" fill="#FCCA2B" fill-opacity="0.73"/>
<path d="M410.474 668.341C415.043 672.422 416.938 676.039 418.482 677.418C414.294 687.004 413.232 686.076 410.474 692.57C410.474 705.249 426.428 802.655 436.82 855.842C421.569 884.908 418.841 887.326 414.661 891.061C403.926 881.484 390.569 870.065 384.242 857.078C390.393 807.602 389.232 724.73 393.389 691.746C387.612 686.592 388.078 684.118 386.229 678.965C390.966 674.738 394.275 670.412 397.026 667.954C402.397 667.954 406.76 667.199 410.474 668.341Z" fill="#EB0622" fill-opacity="0.7"/>
<path d="M410.48 692.569C407.477 692.129 404.443 692.04 401.416 691.892C398.784 691.763 396.016 691.529 393.399 691.745C397.768 694.938 405.755 695.537 410.48 692.569Z" fill="#32439F" fill-opacity="0.8"/>
<path d="M371.855 897.897C361.99 945.517 359.219 1015.4 359.219 1041.38C346.745 1041.38 323.187 1041.38 310.706 1038.28C305.163 1011.07 342.926 885.527 371.855 897.897Z" fill="#27316B" fill-opacity="0.81"/>
<path d="M294 782.531C285.759 796.882 282.518 812.138 279.285 819.146C294.529 832.752 357.827 868.622 374.916 876.868C386.46 870.272 394.554 872.126 400.794 870.271C407.025 868.416 414.183 864.912 436.126 873.57C439.705 876.765 433.119 880.066 426.194 878.723C427.581 885.113 431.966 887.794 430.354 891.916C428.734 896.04 431.16 902.328 425.969 906.967C420.769 911.604 423.655 916.242 418.802 920.573C413.949 924.901 410.257 928.818 401.938 925.726C393.627 922.633 375.384 911.295 359.673 902.018C340.269 893.566 229.628 858.005 223.388 846.872C217.148 835.741 223.509 800.026 238.173 763.305C251.068 768.094 276.616 776.632 294 782.531Z" fill="#EFB29F"/>
<path d="M279.291 820.074C279.644 820.074 279.989 819.91 280.183 819.616C280.477 819.175 280.309 818.607 279.821 818.347C279.468 818.163 271.09 813.807 259.936 812.251C259.364 812.181 258.834 812.518 258.75 813.024C258.657 813.531 259.044 814.005 259.616 814.085C270.358 815.583 278.677 819.902 278.769 819.946C278.929 820.032 279.114 820.074 279.291 820.074Z" fill="#AB5E46"/>
<path d="M408.415 882.744C408.685 882.744 408.947 882.654 409.157 882.473C414.46 877.733 425.889 879.616 426.002 879.637C426.564 879.728 427.119 879.403 427.224 878.899C427.329 878.395 426.962 877.911 426.399 877.814C425.882 877.725 413.777 875.723 407.687 881.161C407.275 881.524 407.275 882.11 407.687 882.473C407.89 882.654 408.145 882.744 408.415 882.744Z" fill="#AB5E46"/>
<path d="M374.914 876.87C362.56 887.899 338.659 972.936 329.068 1049.62C301.924 1056.22 253.178 1054.43 231.352 1045.43C235.393 980.357 246.949 908.411 259.766 883.673C272.592 858.935 285.375 838.472 285.375 823.965C293.336 816.849 362.955 849.169 374.914 876.87Z" fill="#27316B" fill-opacity="0.81"/>
<path d="M329.079 1050.87C329.774 1050.87 330.381 1050.39 330.453 1049.77C340.008 973.517 362.927 904.343 363.158 903.653C363.382 902.998 362.967 902.31 362.224 902.114C361.497 901.918 360.73 902.291 360.506 902.947C360.274 903.638 337.284 973.025 327.697 1049.49C327.617 1050.17 328.161 1050.78 328.92 1050.85L329.079 1050.87Z" fill="#1D2348" fill-opacity="0.63"/>
<path d="M275.853 1028.65C284.419 1028.65 293.653 1020.91 301.051 999.051C320.323 942.154 318.072 909.17 348.297 867.115C319.401 878.659 303.42 962.39 288.312 995.151C281.482 1009.95 275.371 1015.85 269.666 1015.85C262.734 1015.85 256.403 1007.16 250.097 995.151C250.097 1008.73 262.116 1028.65 275.853 1028.65Z" fill="#232C5C" fill-opacity="0.82"/>
<path d="M456.227 560.224C470.542 541.671 481.174 523.118 456.227 504.564C431.279 486.011 367.142 477.764 344.465 502.09C321.789 526.416 322.254 553.628 355.057 574.654C384.618 569.295 435.901 560.224 456.227 560.224Z" fill="#27316B" fill-opacity="0.81"/>
<path d="M351.295 540.312C350.879 537.535 350.611 534.71 351.193 531.932C351.947 528.338 353.471 525.354 355.646 522.28C358.207 519.598 361.043 516.974 364.601 515.34C368.379 513.612 372.165 512.261 376.249 511.266C383.884 509.409 391.754 509.145 399.617 508.897C400.269 508.876 400.936 508.865 401.596 508.865C407.181 508.865 412.931 509.583 418.28 510.745C433.384 514.028 448.159 523.439 452.754 537.284C451.419 531.145 447.428 525.258 442.661 520.762C436.99 515.413 429.842 511.574 421.987 509.356C414.714 507.304 407.079 506.437 399.436 506.437C392.618 506.437 385.777 507.127 379.171 508.278C370.397 509.805 361.098 513.566 355.576 520.025C350.47 526 349.418 533.109 351.295 540.312Z" fill="#20264E"/>
<path d="M460.723 543.834C460.723 538.268 448.989 531.551 418.491 530.827C401.235 530.417 350.89 530.827 349.508 543.834C365.789 539.196 412.215 531.465 460.723 543.834Z" fill="#FCCA2B" fill-opacity="0.73"/>
<path d="M388.217 546.607C388.217 546.607 359.74 549.298 354.168 551.153C355.984 558.987 360.053 565.912 361.986 571.562C370.078 574.036 389.493 571.655 388.217 546.607Z" fill="#1B2428" fill-opacity="0.82"/>
<path d="M455.777 551.155C455.777 570.945 457.446 621.451 429.907 631.141C427.126 640.006 427.823 648.664 427.823 653.611C418.64 661.805 411.887 670 404.608 670C397.33 670 374.813 657.631 361.995 641.242C366.845 636.912 369.266 620.524 369.266 594.24C361.65 596.404 356.84 591.612 354.764 582.953C352.68 574.295 355.845 565.25 368.663 570.507C375.667 567.053 384.418 553.103 388.218 546.609C403.559 545.732 430.369 546.413 455.777 551.155Z" fill="#EFB29F"/>
<path d="M368.387 580.013C365.356 577.307 359.723 574.756 359.723 578.776C359.723 582.796 363.447 590.295 368.387 585.888C366.135 583.878 365.699 582.409 368.387 580.013Z" fill="#AB5E46"/>
<path d="M380.173 615.421C392.178 633.769 422.098 634.748 429.895 631.14C429.159 633.464 428.683 635.772 428.354 638.004C402.389 642.366 383.055 623.524 380.173 615.421Z" fill="#AB5E46"/>
<path d="M400.388 581.977C400.252 583.846 401.55 585.442 403.3 585.543C405.042 585.648 406.566 584.214 406.709 582.345C406.845 580.476 405.54 578.88 403.798 578.775C402.048 578.675 400.524 580.108 400.388 581.977Z" fill="#1B2428" fill-opacity="0.82"/>
<path d="M434.571 583.16C434.429 585.029 435.735 586.626 437.481 586.727C439.22 586.831 440.75 585.397 440.884 583.528C441.026 581.659 439.72 580.063 437.981 579.96C436.235 579.858 434.705 581.291 434.571 583.16Z" fill="#1B2428" fill-opacity="0.82"/>
<path d="M410.832 577.879C408.577 574.741 403.199 575.355 400.325 577.265C401.955 577.227 403.561 576.788 405.198 576.889C407.159 577.01 408.992 577.204 410.832 577.879Z" fill="#BC674C"/>
<path d="M414.669 570.554C415.851 567.942 411.495 565.977 405.251 565.856C398.773 565.735 394.689 567.554 395.091 569.933C395.485 572.269 398.318 570.811 404.888 570.644C411.229 570.485 413.222 573.742 414.669 570.554Z" fill="#1B2428" fill-opacity="0.82"/>
<path d="M433.838 578.668C435.539 578.178 437.278 578.015 439.054 578.069C440.867 578.158 442.568 578.625 444.359 578.793C441.658 576.685 436.353 575.694 433.838 578.668Z" fill="#BC674C"/>
<path d="M431.097 571.039C429.575 567.682 433.067 566.791 439.305 567.109C445.775 567.441 449.543 569.612 448.931 571.954C448.334 574.256 446.417 572.586 439.873 571.957C433.56 571.354 432 573.024 431.097 571.039Z" fill="#1B2428" fill-opacity="0.82"/>
<path d="M420.603 597.525C422.685 598.371 425.095 599.213 427.424 599.032C430.558 599.005 432.341 596.73 431.826 594.074C431.326 591.466 429.438 589.512 427.655 587.507C426.692 586.432 425.715 585.37 424.812 584.264C424.655 584.08 423.222 581.863 423.275 581.863C423.096 583.587 424.387 585.464 425.297 586.898C426.595 588.945 428.498 590.841 429.386 593.067C430.192 595.071 430.132 597.342 427.252 597.661C425.073 598.072 422.79 597.657 420.603 597.525Z" fill="#BC674C"/>
<path d="M430.926 608.921C427.546 609.828 423.926 610.624 420.366 610.352C418.07 610.176 416.133 609.457 414.219 608.338C412.858 607.547 411.871 606.357 410.749 605.337C411.37 606.974 412.207 608.399 413.591 609.62C415.386 611.104 417.278 611.704 419.626 612.153C423.619 612.394 427.919 611.381 430.926 608.921Z" fill="#BC674C"/>
</svg>
