<svg width="2337" height="1154" viewBox="0 0 2337 1154" fill="none" xmlns="http://www.w3.org/2000/svg">
<path d="M14.3941 51.6072C69.1874 -20.7818 169.278 -0.000714951 213.365 66.6043C253.49 19.0884 452.474 -0.000730168 468.027 168.806C568.329 184.328 600.655 281.908 568.329 394.354C642.06 394.354 678.463 470.984 660.261 579.417C763.612 579.417 844.44 676.369 844.44 883.203C899.464 865.658 994.467 947.391 1016.44 1075.5C1058.93 995.07 1147.47 980.504 1193.21 1050.84C1221.21 979.964 1310.59 888.332 1435.71 938.381C1435.71 836.024 1528.67 796.041 1582.29 813.915C1557.28 687.849 1592.79 467.614 1758.77 436.923C1758.77 306.828 1807.77 226.393 1893.46 226.393C1893.46 154.419 2049.18 32.1773 2130.77 128.786C2154.31 52.8138 2211.5 -24.9171 2336.63 7.60003C2336.63 133.251 2336.63 1153.53 2336.63 1153.53H0L14.3941 51.6072Z" fill="#4CB7BE" fill-opacity="0.11"/>
<path d="M2052.02 598.85C2067.16 601.794 2097.81 604.492 2105.81 615.842C2119.28 634.983 2144.13 702.526 2156.82 736.38C2130.02 746.96 2113.8 754.717 2102.52 758.243C2098.99 747.665 2092.17 729.915 2089.35 721.099C2085.82 745.079 2074.3 813.961 2074.3 833.005C2074.3 852.047 2128.38 1039.75 2141.07 1154C2073.37 1154 1959.94 1154 1909.16 1154C1892.23 1014.36 1923.06 835.001 1899.77 707.108C1895.16 716.162 1882.47 735.441 1877.35 747.136C1860.78 741.141 1839.44 728.388 1827.45 722.038C1841.91 685.364 1880.57 607.432 1894.22 602.69C1907.07 598.223 1931.37 595.793 1952.53 595.793C1981.68 599.711 2029.92 601.671 2052.02 598.85Z" fill="#4050AA" fill-opacity="0.77"/>
<path d="M1899.77 708.52L1899.89 708.515C1900.66 708.451 1901.24 707.769 1901.18 706.993C1899.51 686.753 1899.08 679.74 1900.03 653.31C1900.06 652.533 1899.45 651.878 1898.67 651.85C1897.9 651.814 1897.24 652.431 1897.21 653.208C1896.25 679.798 1896.69 686.854 1898.37 707.225C1898.43 707.961 1899.04 708.52 1899.77 708.52Z" fill="#E6FFFF"/>
<path d="M2089.35 722.51C2090.04 722.51 2090.64 722.011 2090.74 721.314C2095.83 688.341 2095.83 656.858 2095.83 656.544C2095.83 655.766 2095.2 655.137 2094.42 655.137H2094.42C2093.64 655.138 2093.01 655.77 2093.01 656.55C2093.01 656.862 2093.01 688.134 2087.95 720.884C2087.84 721.654 2088.36 722.375 2089.13 722.493L2089.35 722.51Z" fill="#E6FFFF"/>
<path d="M1921.49 693.361C1921.49 694.139 1922.12 694.771 1922.9 694.771H1964.72C1965.5 694.771 1966.13 694.139 1966.13 693.361V682.192C1966.13 681.413 1965.5 680.782 1964.72 680.782H1922.9C1922.12 680.782 1921.49 681.413 1921.49 682.192V693.361Z" fill="#FFFAEA"/>
<path d="M1989.16 830.655C2013.86 855.359 2024.74 889.897 2031.65 906.355C2031.65 954.784 2042.33 1070.16 2063.02 1154C1963.34 1154 1762.09 1154 1732 1154C1735.36 1049.76 1745.17 928.923 1745.17 889.662C1745.17 850.403 1725.34 777.053 1989.16 830.655Z" fill="#2D3C8F" fill-opacity="0.66"/>
<path d="M2001.42 1127.21H1785.7C1778.61 945.566 1819.86 923.802 1871.56 923.802C1887.88 923.802 1905.24 925.973 1922.45 925.973C1987.5 925.973 1992.7 1055.02 2001.42 1127.21Z" fill="#697ADE"/>
<path d="M1959.34 816.883C1964.29 850.433 1961.54 876.421 1959.34 897.187C1920.56 903.873 1846.27 901.052 1802.09 893.733C1802.09 867.639 1800.65 841.623 1795.01 815.632C1815.46 805.16 1917.15 808.086 1959.34 816.883Z" fill="#FCCA2B" fill-opacity="0.64"/>
<path d="M1908.2 891.16C1923.94 891.16 1938.14 890.59 1948.04 889.131C1948.66 889.041 1949.14 888.552 1949.23 887.932C1952.64 863.665 1950.37 837.29 1949.24 827.076C1949.15 826.301 1948.46 825.738 1947.68 825.83C1946.91 825.915 1946.35 826.613 1946.43 827.387C1947.54 837.347 1949.74 862.829 1946.58 886.489C1915.8 890.701 1846.11 886.842 1815.53 883.815C1815.34 852.344 1808.11 816.5 1808.04 816.135C1807.88 815.373 1807.14 814.879 1806.37 815.035C1805.61 815.19 1805.12 815.935 1805.27 816.699C1805.34 817.064 1812.71 853.612 1812.71 885.09C1812.71 885.815 1813.26 886.42 1813.98 886.493C1834.6 888.596 1874.84 891.16 1908.2 891.16Z" fill="#FEF4CB"/>
<path d="M1989.95 574.856C2025.69 571.685 2034.95 572.505 2039.42 581.908C2043.89 591.313 2047.79 588.508 2052.02 598.851C2050.02 603.258 2044.99 604.176 2039.42 607.827C2030.73 622.874 2003.34 649.162 1965.14 629.884C1959.39 651.511 1959.09 665.877 1955.11 669.849C1951.14 673.822 1942.46 636.935 1942.46 606.843C1933.47 588.622 1949.66 574.916 1953.8 574.503C1968.64 573.026 1963.14 577.236 1989.95 574.856Z" fill="#FCD140"/>
<path d="M1991.83 599.922C1998.82 604.024 2007.19 605.813 2015.06 607.224C2019.57 607.888 2024.04 608.24 2028.6 608.406C2032.18 608.537 2035.85 608.101 2039.42 607.826C2036.03 607.642 2032.64 607.646 2029.25 607.455C2024.59 607.195 2019.89 606.56 2015.28 605.832C2007.36 604.498 1999.34 602.876 1991.83 599.922Z" fill="#C9A124"/>
<path d="M1942.46 606.842C1943.81 612.216 1948.25 616.835 1952.1 620.567C1955.93 624.283 1960.48 627.319 1965.14 629.883C1961.21 626.338 1956.81 623.302 1953.06 619.547C1951.02 617.506 1948.96 615.518 1947.07 613.339C1946.07 612.192 1945.13 610.966 1944.26 609.717C1944.06 609.425 1942.64 606.842 1942.46 606.842Z" fill="#C9A124"/>
<path d="M2038.46 494.013C2040.81 464.859 2044.1 409.849 1978.27 413.139C1918.01 416.153 1917.15 463.921 1930.31 504.826C1970.28 504.826 2011.66 504.826 2038.46 494.013Z" fill="#24160C"/>
<path d="M1931.72 495.894C1938.42 460.025 1962.88 461.436 1978.27 440.883C1996.76 455.558 2027.23 465.273 2034.75 489.253C2049.04 469.681 2050.45 519.052 2036.11 519.052C2034.81 534.125 2028.45 548.903 2018.76 559.352C2019.41 570.55 2022.69 579.333 2024.28 584.404C2011.58 592.868 2001.35 596.042 1991.83 599.922C1974.55 592.163 1967.92 586.167 1960.13 581.585C1962.07 576.428 1961.31 569.053 1960.66 563.261C1948.39 553.163 1939.4 537.799 1936.89 525.046C1920.86 518.699 1919.62 483.787 1931.72 495.894Z" fill="#DFB4A6"/>
<path d="M1928.55 525.28C1928.55 528.004 1930.76 530.213 1933.49 530.213C1936.21 530.213 1938.42 528.004 1938.42 525.28C1938.42 522.555 1936.21 520.346 1933.49 520.346C1930.76 520.346 1928.55 522.555 1928.55 525.28Z" fill="#FFFAEA"/>
<path d="M2034.49 519.089C2034.49 521.813 2036.7 524.023 2039.42 524.023C2042.14 524.023 2044.35 521.813 2044.35 519.089C2044.35 516.365 2042.14 514.158 2039.42 514.158C2036.7 514.158 2034.49 516.365 2034.49 519.089Z" fill="#FFFAEA"/>
<path d="M2035.17 493.073C2034.76 493.073 2034.74 501.809 2034.72 502.598C2034.76 505.748 2034.66 508.998 2035.17 512.117C2037.5 506.464 2037.65 498.715 2035.17 493.073Z" fill="#DD6C49"/>
<path d="M1931.96 501.069C1930.86 506.38 1932.31 513.116 1935.02 517.76C1935.26 514.91 1934.73 512.067 1934.29 509.266C1933.79 506.488 1933.08 503.665 1931.96 501.069Z" fill="#DD6C49"/>
<path d="M1986.92 525.363C1984.24 525.594 1981.4 525.753 1979.12 524.038C1977.35 522.7 1976.57 520.797 1977.55 518.842C1977.9 518.127 1978.57 517.513 1978.96 516.776C1979.84 515.063 1980.39 513.189 1980.8 511.312C1981.42 508.444 1981.87 505.251 1981.4 502.324C1980.5 507.539 1978.95 513.32 1975.83 517.625C1973.83 520.395 1975.6 524.007 1978.33 525.516C1981.09 527.043 1984.15 526.578 1986.92 525.363Z" fill="#CC5D3A"/>
<path d="M1998.4 539.177C1994.81 540.961 1990.91 542.258 1986.91 542.601C1982.79 542.954 1979.25 541.696 1975.45 540.353C1978.58 543.408 1982.54 544.946 1986.92 544.716C1991.08 544.494 1995.74 542.473 1998.4 539.177Z" fill="#CC5D3A"/>
<path d="M1956.93 507.632C1957.07 509.965 1958.76 511.762 1960.71 511.645C1962.65 511.533 1964.11 509.547 1963.98 507.213C1963.84 504.88 1962.15 503.083 1960.2 503.197C1958.26 503.314 1956.8 505.298 1956.93 507.632Z" fill="#1B2428"/>
<path d="M1965.14 499.548C1963.02 495.881 1957.21 497.294 1955.11 500.143C1956.67 500.148 1958.18 499.639 1959.73 499.56C1961.55 499.467 1963.32 499.348 1965.14 499.548Z" fill="#CC5D3A"/>
<path d="M2005.8 506.367C2005.92 508.701 2004.44 510.671 2002.49 510.768C2000.55 510.864 1998.88 509.051 1998.76 506.716C1998.64 504.382 2000.13 502.411 2002.07 502.314C2004.02 502.219 2005.69 504.031 2005.8 506.367Z" fill="#1B2428"/>
<path d="M1996.76 499.223C1998.4 498.861 2000.04 498.722 2001.71 498.667C2003.39 498.651 2005.13 498.913 2006.8 498.723C2004.41 496.13 1998.48 495.358 1996.76 499.223Z" fill="#CC5D3A"/>
<path d="M1991.73 488.924C1990.52 486.164 1995.88 483.91 2001.83 483.614C2008.01 483.307 2012.9 485.118 2012.59 487.671C2012.28 490.181 2008.6 488.724 2002.32 488.724C1996.26 488.724 1993.21 492.297 1991.73 488.924Z" fill="#1B2428"/>
<path d="M1970.53 489.973C1971.3 487.059 1965.67 485.649 1959.73 486.262C1953.58 486.901 1949.03 489.436 1949.72 491.913C1950.41 494.348 1953.82 492.346 1960.03 491.387C1966.02 490.465 1969.58 493.529 1970.53 489.973Z" fill="#1B2428"/>
<path d="M2018.76 559.353C2010.85 573.414 1986.92 589.519 1960.66 563.262C1971.29 571.782 1995.79 579.926 2018.76 559.353Z" fill="#DD6C49"/>
<path d="M2151.04 738.682C2161.62 764.778 2176.57 824.541 2170.22 840.057C2163.88 855.572 2085.59 853.455 2069.37 853.455C2053.15 853.455 2039.77 856.927 2031.66 865.036C2036.59 879.847 2043.63 909.174 2035.87 907.411C2037.75 914.458 2029.64 916.462 2026.17 910.762C2024.16 912.77 2019.69 912.818 2015.81 906.354C2012.29 908 2008.95 912.584 1992.21 879.552C1975.57 888.721 1970.39 888.723 1966.16 884.491C1961.93 880.259 1972.27 862.861 1977.44 853.927C1973.45 846.17 1974.63 843.112 1972.27 838.175C1957.23 835.826 1870.24 822.298 1850.49 818.537C1830.75 814.776 1809.35 812.549 1807 798.914C1804.65 785.278 1814.53 755.956 1831.92 724.454C1846.28 731.428 1863.44 740.479 1875.41 746.407C1868.36 762.393 1862.72 769.997 1862.72 774.698C1881.53 783.631 1979.99 804.322 2015.63 835.824C2034.81 829.241 2094.52 814.197 2122.26 807.613C2118.5 787.866 2113.28 775.97 2105.76 757.162C2125.75 748.531 2139.32 743.594 2151.04 738.682Z" fill="#DAAFA1" fill-opacity="0.97"/>
<path d="M2144.9 815.16C2145.14 815.16 2145.37 815.071 2145.55 814.891C2145.91 814.53 2145.91 813.947 2145.55 813.586C2138.84 806.872 2124 805.964 2123.38 805.929C2122.85 805.901 2122.43 806.29 2122.4 806.798C2122.38 807.305 2122.76 807.742 2123.27 807.77C2123.42 807.779 2138.03 808.676 2144.25 814.891C2144.43 815.071 2144.66 815.16 2144.9 815.16Z" fill="#DD6C49"/>
<path d="M1838.49 778.631C1838.62 778.631 1838.75 778.604 1838.87 778.548C1848.66 774.096 1860.98 775.192 1861.11 775.204C1861.61 775.267 1862.06 774.88 1862.11 774.374C1862.16 773.867 1861.78 773.418 1861.28 773.37C1860.76 773.319 1848.35 772.212 1838.11 776.869C1837.64 777.08 1837.44 777.627 1837.65 778.091C1837.8 778.43 1838.14 778.631 1838.49 778.631Z" fill="#DD6C49"/>
<path d="M2031.18 864.371C2031.26 864.371 2031.35 864.36 2031.44 864.335C2031.92 864.192 2032.21 863.68 2032.06 863.191C2027.64 848.071 2017.76 837.019 2017.34 836.554C2017 836.178 2016.42 836.149 2016.04 836.49C2015.66 836.831 2015.63 837.415 2015.97 837.792C2016.07 837.902 2026 849.008 2030.29 863.708C2030.41 864.111 2030.78 864.371 2031.18 864.371Z" fill="#DD6C49"/>
<path d="M1991.3 879.125C1991.43 879.125 1991.56 879.097 1991.69 879.038C1992.15 878.822 1992.35 878.274 1992.13 877.812C1987.18 867.231 1978.58 855.014 1978.49 854.892C1978.2 854.476 1977.62 854.376 1977.21 854.67C1976.79 854.964 1976.69 855.538 1976.99 855.955C1977.07 856.076 1985.58 868.163 1990.46 878.595C1990.62 878.928 1990.95 879.125 1991.3 879.125Z" fill="#DD6C49"/>
<path d="M2035.63 906.936L2035.83 906.915C2036.33 906.804 2036.64 906.311 2036.53 905.815C2036.48 905.581 2031.28 882.35 2024.74 869.186C2024.51 868.732 2023.96 868.541 2023.5 868.772C2023.05 868.998 2022.86 869.551 2023.09 870.007C2029.53 882.969 2034.68 905.982 2034.73 906.213C2034.83 906.644 2035.21 906.936 2035.63 906.936Z" fill="#DD6C49"/>
</svg>
