<svg width="241" height="231" viewBox="0 0 241 231" fill="none" xmlns="http://www.w3.org/2000/svg">
<path d="M56.8713 2.54259C62.1055 0.467829 68.8298 0.202303 76.6398 1.45228C84.4435 2.70124 93.2882 5.45627 102.733 9.37539C121.623 17.2134 142.859 29.6838 162.878 43.9685C182.895 58.2525 201.677 74.337 215.664 89.3922C222.657 96.9201 228.444 104.182 232.586 110.825C236.734 117.476 239.206 123.466 239.627 128.457C240.04 133.356 237.262 139.134 231.843 145.462C226.441 151.77 218.491 158.538 208.749 165.4C189.268 179.121 162.699 193.169 135.238 204.64C107.776 216.111 79.4546 224.993 56.4737 228.398C44.9807 230.101 34.8533 230.43 26.8483 229.046C18.8375 227.66 13.0364 224.576 10.0548 219.529C3.95075 209.198 1.12573 191.542 1.03541 170.511C0.945214 149.507 3.5822 125.225 8.32806 101.713C13.0742 78.1995 19.9252 55.4768 28.2527 37.5842C32.4164 28.6378 36.9433 20.9121 41.7512 14.9016C46.5621 8.88744 51.6312 4.61973 56.8713 2.54259Z" fill="#6944D5" stroke="#6944D5"/>
</svg>
