<svg width="241" height="231" viewBox="0 0 241 231" fill="none" xmlns="http://www.w3.org/2000/svg">
<path d="M56.8713 2.54308C62.1055 0.468317 68.8298 0.202791 76.6398 1.45276C84.4435 2.70173 93.2882 5.45676 102.733 9.37588C121.623 17.2139 142.859 29.6843 162.878 43.969C182.895 58.253 201.677 74.3375 215.664 89.3927C222.657 96.9206 228.444 104.182 232.586 110.825C236.734 117.477 239.206 123.466 239.627 128.458C240.04 133.357 237.262 139.134 231.843 145.462C226.441 151.771 218.491 158.538 208.749 165.4C189.268 179.121 162.699 193.169 135.238 204.64C107.776 216.112 79.4546 224.993 56.4737 228.399C44.9807 230.102 34.8533 230.431 26.8483 229.046C18.8375 227.661 13.0364 224.576 10.0548 219.53C3.95075 209.199 1.12573 191.543 1.03541 170.512C0.945214 149.507 3.5822 125.226 8.32806 101.714C13.0742 78.2 19.9252 55.4773 28.2527 37.5847C32.4164 28.6383 36.9433 20.9126 41.7512 14.9021C46.5621 8.88793 51.6312 4.62022 56.8713 2.54308Z" fill="#2B3E3C" stroke="#2B3E3C"/>
</svg>
