<svg width="241" height="231" viewBox="0 0 241 231" fill="none" xmlns="http://www.w3.org/2000/svg">
<path d="M56.8716 2.54299C62.1057 0.468233 68.83 0.202707 76.64 1.45268C84.4437 2.70164 93.2884 5.45668 102.734 9.37579C121.623 17.2138 142.859 29.6842 162.878 43.9689C182.896 58.2529 201.677 74.3374 215.664 89.3926C222.658 96.9205 228.444 104.182 232.586 110.825C236.734 117.477 239.207 123.466 239.627 128.458C240.04 133.357 237.262 139.134 231.844 145.462C226.441 151.771 218.491 158.538 208.749 165.4C189.269 179.121 162.699 193.169 135.238 204.64C107.776 216.112 79.4548 224.993 56.4739 228.399C44.9809 230.102 34.8535 230.431 26.8485 229.046C18.8377 227.661 13.0367 224.576 10.055 219.53C3.95096 209.199 1.12593 191.543 1.03562 170.512C0.945415 149.507 3.5824 125.226 8.32826 101.714C13.0744 78.1999 19.9254 55.4773 28.2529 37.5846C32.4166 28.6382 36.9435 20.9125 41.7514 14.9021C46.5623 8.88785 51.6314 4.62013 56.8716 2.54299Z" fill="#EF4129" stroke="#EF4129"/>
</svg>
