<svg width="1440" height="717" viewBox="0 0 1440 717" fill="none" xmlns="http://www.w3.org/2000/svg">
<path d="M1443.49 4.38686L1443.19 131.216C1335.91 97.397 1279.06 147.578 1186.5 150C1144.99 151.092 1077.45 125.927 1027.55 108.053C852.528 45.3602 813.238 154.134 687.5 150C609.87 147.442 561.05 98.3949 515.571 80.1427C441.128 50.2734 364.139 50.3952 217.5 108.053C88.0553 158.945 25.6313 140.876 -18.4726 138.058L-18.1506 0.954269L1443.49 4.38686Z" fill="#82C341"/>
<path d="M-27.0021 711.91L-26.6483 600.423C82.0164 630.275 163.517 604.569 257.276 602.546C299.327 601.634 343.836 605.493 394.374 621.263C571.642 676.573 609.946 606.921 737.313 610.699C815.949 613.038 866.922 630.289 912.984 646.386C988.38 672.728 1050.56 695.948 1199.12 645.434C1330.27 600.847 1409.3 593.563 1453.98 596.091L1453.6 716.609L-27.0021 711.91Z" fill="#00ADAB" fill-opacity="0.39"/>
</svg>
