<svg width="550" height="371" viewBox="0 0 550 371" fill="none" xmlns="http://www.w3.org/2000/svg">
<path d="M507.62 362.502H32.8287C24.0663 362.502 16.9628 355.4 16.9628 346.637V43.4098C16.9628 34.6475 24.0663 27.5439 32.8287 27.5439H507.62C516.383 27.5439 523.486 34.6475 523.486 43.4098V346.637C523.486 355.4 516.383 362.502 507.62 362.502Z" fill="#33535F"/>
<path d="M529.776 370.179H19.7641C9.0587 370.179 0.379761 361.499 0.379761 350.794V340.87H549.161V350.794C549.161 361.499 540.482 370.179 529.776 370.179Z" fill="#33535F"/>
<path d="M220.291 337.729L227.102 348.562H322.925L329.248 337.729H220.291Z" fill="#2B3E3C"/>
<path d="M519.134 337.728C519.134 337.91 406.71 338.057 268.06 338.057C129.362 338.057 16.9628 337.91 16.9628 337.728C16.9628 337.548 129.362 337.4 268.06 337.4C406.71 337.4 519.134 337.548 519.134 337.728Z" fill="#2B3E3C"/>
<path d="M503.435 328.872H35.0332C33.064 328.872 31.4673 327.277 31.4673 325.308V50.3696C31.4673 48.4004 33.0629 46.8048 35.0321 46.8048H503.435C505.404 46.8048 506.999 48.4004 506.999 50.3696V325.308C506.999 327.277 505.404 328.872 503.435 328.872Z" fill="black"/>
<path d="M506.491 329.285H30.9586L31.4673 67.8846H506.491V329.285Z" fill="white"/>
<path d="M70.4682 57.6987C70.4682 59.7964 68.768 61.4966 66.6703 61.4966C64.5736 61.4966 62.8734 59.7964 62.8734 57.6987C62.8734 55.601 64.5736 53.9008 66.6703 53.9008C68.768 53.9008 70.4682 55.601 70.4682 57.6987Z" fill="#2B3E3C"/>
<path d="M47.4508 57.6987C47.4508 59.7964 45.7517 61.4966 43.6529 61.4966C41.5562 61.4966 39.8549 59.7964 39.8549 57.6987C39.8549 55.601 41.5562 53.9008 43.6529 53.9008C45.7517 53.9008 47.4508 55.601 47.4508 57.6987Z" fill="#2B3E3C"/>
<path d="M58.4993 57.6987C58.4993 59.7964 56.7992 61.4966 54.7014 61.4966C52.6037 61.4966 50.9035 59.7964 50.9035 57.6987C50.9035 55.601 52.6037 53.9008 54.7014 53.9008C56.7992 53.9008 58.4993 55.601 58.4993 57.6987Z" fill="#2B3E3C"/>
<path d="M506.999 329.285H30.9586V304.045H506.999V329.285Z" fill="#2B3E3C"/>
<path d="M48.943 319.586V320.394H45.1527V319.755L47.196 317.815C47.6948 317.339 47.783 317.036 47.783 316.751C47.783 316.282 47.4595 316.009 46.8278 316.009C46.3279 316.009 45.9086 316.177 45.6232 316.545L44.9544 316.03C45.3509 315.494 46.0643 315.178 46.9084 315.178C48.0248 315.178 48.7447 315.743 48.7447 316.655C48.7447 317.154 48.6064 317.61 47.893 318.279L46.5196 319.586H48.943Z" fill="white"/>
<path d="M49.4603 319.837C49.4603 319.468 49.7315 319.227 50.0616 319.227C50.3927 319.227 50.665 319.468 50.665 319.837C50.665 320.188 50.3927 320.445 50.0616 320.445C49.7315 320.445 49.4603 320.188 49.4603 319.837ZM49.4603 317.036C49.4603 316.669 49.7315 316.428 50.0616 316.428C50.3927 316.428 50.665 316.669 50.665 317.036C50.665 317.388 50.3927 317.646 50.0616 317.646C49.7315 317.646 49.4603 317.388 49.4603 317.036Z" fill="white"/>
<path d="M53.0567 315.251V320.394H52.1026V316.053H51.0156V315.251H53.0567Z" fill="white"/>
<path d="M58.6605 319.227H57.7489V320.394H56.8231V319.227H54.0022V318.565L56.5367 315.251H57.5583L55.1698 318.418H56.8525V317.383H57.7489V318.418H58.6605V319.227Z" fill="white"/>
<path d="M457.244 318.949H67.0624V317.17H457.244V318.949Z" fill="white"/>
<path d="M188.702 319.999H66.7705V315.255H188.702V319.999Z" fill="#F2575D" fill-opacity="0.57"/>
<path d="M192.638 318.061C192.638 321.338 189.981 323.997 186.702 323.997C183.424 323.997 180.765 321.338 180.765 318.061C180.765 314.783 183.424 312.124 186.702 312.124C189.981 312.124 192.638 314.783 192.638 318.061Z" fill="#F2575D" fill-opacity="0.57"/>
<path d="M466.146 318.047C466.146 317.511 465.742 317.173 465.118 317.173C464.5 317.173 464.074 317.548 464.074 318.056C464.074 318.539 464.455 318.921 465.139 318.921C465.734 318.921 466.146 318.583 466.146 318.047ZM467.07 318.003C467.07 319.025 466.241 319.672 465.191 319.672C463.788 319.672 462.964 318.768 462.964 317.115C462.964 315.35 463.992 314.382 465.484 314.382C465.999 314.382 466.491 314.491 466.836 314.711L466.483 315.432C466.205 315.248 465.867 315.181 465.506 315.181C464.536 315.181 463.927 315.785 463.927 316.952V316.961C464.235 316.601 464.728 316.424 465.301 316.424C466.315 316.424 467.07 317.041 467.07 318.003Z" fill="white"/>
<path d="M467.535 319.039C467.535 318.671 467.806 318.431 468.138 318.431C468.468 318.431 468.74 318.671 468.74 319.039C468.74 319.391 468.468 319.649 468.138 319.649C467.806 319.649 467.535 319.391 467.535 319.039ZM467.535 316.24C467.535 315.873 467.806 315.629 468.138 315.629C468.468 315.629 468.74 315.873 468.74 316.24C468.74 316.592 468.468 316.849 468.138 316.849C467.806 316.849 467.535 316.592 467.535 316.24Z" fill="white"/>
<path d="M472.691 317.027C472.691 315.785 472.206 315.211 471.5 315.211C470.802 315.211 470.317 315.785 470.317 317.027C470.317 318.268 470.802 318.84 471.5 318.84C472.206 318.84 472.691 318.268 472.691 317.027ZM469.354 317.027C469.354 315.337 470.28 314.382 471.5 314.382C472.728 314.382 473.652 315.337 473.652 317.027C473.652 318.715 472.728 319.672 471.5 319.672C470.28 319.672 469.354 318.715 469.354 317.027Z" fill="white"/>
<path d="M477.629 317.027C477.629 315.785 477.145 315.211 476.438 315.211C475.74 315.211 475.255 315.785 475.255 317.027C475.255 318.268 475.74 318.84 476.438 318.84C477.145 318.84 477.629 318.268 477.629 317.027ZM474.293 317.027C474.293 315.337 475.218 314.382 476.438 314.382C477.666 314.382 478.592 315.337 478.592 317.027C478.592 318.715 477.666 319.672 476.438 319.672C475.218 319.672 474.293 318.715 474.293 317.027Z" fill="white"/>
<path d="M486.9 316.706H485.121V311.579H490.239V313.357H486.9V316.706Z" fill="white"/>
<path d="M490.244 323.4H485.116V318.282H486.894V321.621H490.244V323.4Z" fill="white"/>
<path d="M498.411 323.4H493.292V321.621H496.632V318.27H498.411V323.4Z" fill="white"/>
<path d="M498.416 316.696H496.637V313.357H493.288V311.579H498.416V316.696Z" fill="white"/>
<path d="M96.1693 83.4281H68.1407L54.1263 107.701L68.1407 131.975H96.1693L110.184 107.701L96.1693 83.4281Z" fill="black"/>
<path d="M70.4279 112.452C69.1753 111.066 67.9119 109.664 66.9992 108.035C66.0865 106.404 65.5419 104.501 65.8447 102.657C66.0211 101.579 66.4797 100.552 66.5515 99.4618C66.6517 97.962 66.0211 96.3946 66.5537 94.9885C67.3848 92.7906 70.3429 92.4508 72.1368 90.9325C73.5331 89.7507 74.2138 87.8316 75.7496 86.8372C77.0925 85.968 78.8167 85.9865 80.3992 86.2109C81.9829 86.4353 83.5752 86.835 85.16 86.6215C86.2894 86.469 87.3536 86.0127 88.4602 85.7382C89.5657 85.4648 90.8008 85.3929 91.7854 85.9648C92.7711 86.5377 93.3244 87.9362 92.6785 88.8761C94.5149 88.0287 96.8468 89.4599 97.35 91.4182C97.8521 93.3776 96.8457 95.4928 95.2903 96.7846C93.735 98.0763 91.7222 98.6765 89.7356 99.0511C84.11 100.112 78.0074 99.5129 73.1595 96.4687" fill="#2B3E3C"/>
<path d="M96.4144 118.443C96.226 114.968 95.2534 107.847 94.2992 101.41C93.2722 94.4875 87.1031 89.5133 80.1204 89.9795L79.4266 90.0263C71.9756 90.9641 68.609 97.8149 69.7516 105.238L71.9397 131.975H90.1234L89.691 127.238C89.691 127.238 96.8065 125.639 96.4144 118.443Z" fill="#F4C4B6"/>
<path d="M89.6953 127.133C89.6953 127.133 85.1775 127.806 80.1444 125.096C80.1444 125.096 82.7061 130.122 89.8369 128.995L89.6953 127.133Z" fill="#F68260" fill-opacity="0.46"/>
<path d="M91.9847 107.578C92.0392 108.118 91.6275 108.612 91.0633 108.679C90.5002 108.748 89.9992 108.366 89.9436 107.825C89.8881 107.284 90.2998 106.791 90.8629 106.722C91.426 106.655 91.9292 107.037 91.9847 107.578Z" fill="#2B3E3C"/>
<path d="M92.9879 105.026C92.8703 105.169 92.0534 104.645 90.949 104.722C89.8446 104.783 89.0713 105.406 88.9427 105.279C88.8796 105.223 88.9928 104.973 89.3294 104.692C89.6594 104.412 90.2356 104.125 90.9239 104.081C91.6123 104.038 92.2081 104.253 92.5577 104.49C92.916 104.728 93.0467 104.963 92.9879 105.026Z" fill="#2B3E3C"/>
<path d="M81.5472 108.324C81.6028 108.865 81.19 109.358 80.6258 109.426C80.0638 109.494 79.5617 109.112 79.5061 108.572C79.4506 108.03 79.8634 107.537 80.4254 107.468C80.9896 107.401 81.4917 107.783 81.5472 108.324Z" fill="#2B3E3C"/>
<path d="M82.1409 105.96C82.0232 106.102 81.2064 105.579 80.1019 105.656C78.9975 105.716 78.2242 106.339 78.0957 106.211C78.0325 106.156 78.1458 105.905 78.4823 105.624C78.8124 105.345 79.3885 105.057 80.0769 105.013C80.7652 104.972 81.361 105.185 81.7117 105.423C82.0679 105.661 82.1997 105.895 82.1409 105.96Z" fill="#2B3E3C"/>
<path d="M86.7002 113.886C86.6904 113.822 87.3689 113.658 88.4722 113.441C88.7522 113.393 89.0157 113.319 89.0506 113.123C89.1029 112.915 88.9645 112.619 88.8066 112.3C88.4951 111.635 88.1694 110.938 87.8285 110.208C86.4649 107.226 85.4574 104.767 85.5783 104.714C85.6992 104.659 86.9016 107.033 88.2653 110.014C88.5942 110.749 88.909 111.45 89.2085 112.121C89.337 112.435 89.5451 112.786 89.4285 113.218C89.3675 113.435 89.1704 113.601 88.9929 113.662C88.8153 113.73 88.6574 113.743 88.518 113.76C87.4027 113.895 86.7078 113.948 86.7002 113.886Z" fill="#2B3E3C"/>
<path d="M82.1375 101.611C82.0482 101.918 80.9362 101.849 79.6499 102.093C78.3592 102.31 77.3398 102.759 77.1492 102.502C77.0642 102.377 77.2276 102.082 77.6306 101.763C78.0303 101.445 78.6805 101.124 79.4528 100.985C80.225 100.848 80.946 100.924 81.4307 101.085C81.9186 101.245 82.1746 101.465 82.1375 101.611Z" fill="#2B3E3C"/>
<path d="M92.3681 101.857C92.1906 102.12 91.4118 101.911 90.4958 101.959C89.5787 101.977 88.8163 102.241 88.6214 101.991C88.5342 101.869 88.6388 101.61 88.9623 101.349C89.2803 101.09 89.8249 100.859 90.4555 100.836C91.0851 100.814 91.646 101.005 91.9815 101.24C92.3224 101.477 92.4454 101.728 92.3681 101.857Z" fill="#2B3E3C"/>
<path d="M70.6959 110.522C70.5695 110.476 65.6574 109.392 66.1431 114.296C66.6289 119.201 71.9451 117.602 71.9397 117.46C71.9331 117.32 70.6959 110.522 70.6959 110.522Z" fill="#F4C4B6"/>
<path d="M69.7657 115.849C69.7429 115.836 69.6862 115.918 69.5479 115.999C69.4139 116.077 69.1765 116.146 68.9107 116.075C68.3738 115.935 67.8564 115.157 67.7443 114.276C67.6876 113.83 67.7399 113.395 67.863 113.028C67.9773 112.655 68.1843 112.38 68.4402 112.309C68.694 112.222 68.8944 112.361 68.9685 112.493C69.0469 112.623 69.0251 112.725 69.0523 112.73C69.0676 112.741 69.1504 112.637 69.0905 112.439C69.06 112.344 68.9913 112.234 68.8661 112.151C68.7397 112.067 68.5611 112.035 68.3814 112.073C68.0056 112.136 67.7007 112.518 67.5645 112.922C67.4088 113.329 67.3402 113.818 67.4033 114.318C67.533 115.303 68.1309 116.178 68.8606 116.313C69.2135 116.369 69.4913 116.236 69.6285 116.105C69.769 115.969 69.7832 115.857 69.7657 115.849Z" fill="#F68260" fill-opacity="0.46"/>
<path d="M93.9354 94.6945C93.5989 96.6462 89.6387 98.4347 86.3559 98.3399C83.3291 98.2517 81.8337 96.7497 79.6347 95.6823C78.2427 95.007 78.2427 95.007 76.353 95.3131C74.826 95.5614 74.0342 97.364 73.177 98.6514C74.8096 102.213 74.1496 106.354 73.4569 110.21C73.3807 110.636 73.2859 111.096 72.9602 111.382C72.4091 111.868 71.516 111.577 70.9736 111.08C70.1055 110.286 69.7091 109.106 69.4248 107.965C68.7767 105.363 68.5273 102.639 68.939 99.9889C69.3507 97.3389 70.4475 94.7652 72.2577 92.7873C74.5199 90.316 77.8277 88.8903 81.1737 88.7182C84.5207 88.5472 87.8808 89.5819 90.6843 91.4182C91.9847 92.27 93.2003 93.3232 93.9354 94.6945Z" fill="#2B3E3C"/>
<path d="M87.4222 116.369C86.5879 115.981 85.7558 115.592 84.9226 115.204C84.7777 115.137 84.6242 115.068 84.4673 115.089C84.2909 115.113 84.1482 115.245 84.0349 115.383C83.4555 116.086 83.3084 117.146 83.7572 117.937C84.2059 118.73 85.2624 119.148 86.1043 118.8C86.9898 118.433 87.4211 117.404 87.4898 116.447L87.4222 116.369Z" fill="#F68260" fill-opacity="0.46"/>
<path d="M86.1817 118.976C86.2209 119.025 85.66 119.378 84.7168 119.108C84.2615 118.972 83.7419 118.621 83.4206 118.055C83.0928 117.504 82.9719 116.714 83.2551 116.005C83.3912 115.653 83.6025 115.343 83.8607 115.097C83.9925 114.973 84.1253 114.872 84.2865 114.779C84.4444 114.661 84.7832 114.644 84.9444 114.74C85.5162 115.058 85.9018 115.329 86.2852 115.575C87.0182 116.061 87.4506 116.395 87.4114 116.463C87.3721 116.53 86.8668 116.319 86.0836 115.921C85.6273 115.684 85.1862 115.453 84.7494 115.224C84.6449 115.197 84.6558 115.196 84.5556 115.248C84.4564 115.311 84.341 115.401 84.2473 115.497C84.0524 115.69 83.8901 115.935 83.7855 116.208C83.5677 116.756 83.6417 117.347 83.8792 117.804C84.1133 118.266 84.4913 118.571 84.8573 118.732C85.6077 119.055 86.1675 118.886 86.1817 118.976Z" fill="#2B3E3C"/>
<path d="M85.3931 107.701C85.3386 107.703 85.3441 107.245 85.1263 106.477C84.9095 105.724 84.3856 104.628 83.2485 103.789C82.1485 102.948 80.3502 102.484 78.6152 103.137C76.8954 103.733 75.4131 105.565 75.4327 107.7C75.4131 109.836 76.8943 111.668 78.6152 112.266C80.3502 112.918 82.1496 112.454 83.2485 111.613C84.3856 110.775 84.9095 109.678 85.1263 108.924C85.3441 108.157 85.3386 107.699 85.3931 107.701C85.4127 107.701 85.4269 107.814 85.4334 108.031C85.4454 108.248 85.4247 108.572 85.3397 108.979C85.1807 109.781 84.6895 110.982 83.4925 111.932C82.3369 112.882 80.3709 113.451 78.4377 112.758C76.5196 112.126 74.8423 110.09 74.8652 107.7C74.8423 105.312 76.5196 103.276 78.4377 102.644C80.3709 101.952 82.3358 102.519 83.4914 103.47C84.6884 104.42 85.1807 105.622 85.3397 106.424C85.4247 106.83 85.4454 107.155 85.4334 107.371C85.4269 107.588 85.4127 107.701 85.3931 107.701Z" fill="#2B3E3C"/>
<path d="M97.6255 107.221C97.5711 107.222 97.5765 106.776 97.363 106.028C97.1517 105.295 96.6409 104.228 95.5332 103.412C94.4626 102.594 92.7112 102.144 91.0241 102.778C89.35 103.361 87.9079 105.142 87.9265 107.22C87.9079 109.298 89.35 111.08 91.0241 111.663C92.7123 112.298 94.4626 111.847 95.5332 111.029C96.6409 110.213 97.1517 109.146 97.363 108.413C97.5765 107.664 97.5711 107.219 97.6255 107.221C97.6451 107.221 97.6593 107.33 97.6669 107.542C97.6789 107.754 97.6593 108.069 97.5765 108.466C97.4229 109.248 96.9437 110.42 95.7772 111.348C94.6499 112.276 92.733 112.83 90.8454 112.154C88.9742 111.538 87.3372 109.551 87.3601 107.22C87.3383 104.889 88.9753 102.902 90.8454 102.287C92.733 101.611 94.6499 102.165 95.7761 103.093C96.9437 104.021 97.4229 105.193 97.5765 105.975C97.6593 106.371 97.6789 106.687 97.6669 106.899C97.6593 107.111 97.6451 107.221 97.6255 107.221Z" fill="#2B3E3C"/>
<path d="M87.6433 106.09C87.5322 106.195 87.0465 105.881 86.3919 105.902C85.7362 105.902 85.2657 106.235 85.1491 106.136C84.9988 106.058 85.4563 105.351 86.3821 105.336C87.3068 105.322 87.7882 106.005 87.6433 106.09Z" fill="#2B3E3C"/>
<path d="M75.4577 106.973C75.5514 107.099 74.6005 107.968 73.3338 108.914C72.066 109.859 70.9627 110.524 70.869 110.399C70.7754 110.273 71.7262 109.405 72.994 108.458C74.2607 107.513 75.364 106.847 75.4577 106.973Z" fill="#2B3E3C"/>
<path d="M176.55 107.454C176.55 107.61 163.949 107.737 148.41 107.737C132.866 107.737 120.268 107.61 120.268 107.454C120.268 107.297 132.866 107.171 148.41 107.171C163.949 107.171 176.55 107.297 176.55 107.454Z" fill="#2B3E3C"/>
<path d="M150.522 113.344C150.522 113.5 143.831 113.627 135.58 113.627C127.325 113.627 120.636 113.5 120.636 113.344C120.636 113.187 127.325 113.06 135.58 113.06C143.831 113.06 150.522 113.187 150.522 113.344Z" fill="#2B3E3C"/>
<path d="M345.162 150.972C345.162 150.972 360.121 158.26 365.374 177.079C370.628 195.9 386.716 244.91 386.716 244.91C386.716 244.91 395.908 255.726 396.894 263.737C397.879 271.745 395.908 291.117 392.955 294.729C390 298.34 385.786 297.743 385.786 297.743L347.089 294.072L331.851 192.043L345.162 150.972Z" fill="#CCFCFB"/>
<path d="M217.198 149.189C217.198 149.189 189.53 157.867 182.635 165.419L205.29 270.815L204.928 304.07H336.104C336.104 302.427 337.282 193.656 337.282 193.656L345.162 150.972L298.538 142.763L289.344 135.539L237.467 138.166L229.587 146.047L217.198 149.189Z" fill="#CCFCFB"/>
<path d="M205.022 291.459L205.113 287.037L205.065 291.422C205.051 291.434 205.037 291.446 205.022 291.459Z" fill="#A7A9A8"/>
<path d="M205.066 291.422L205.113 287.037L205.357 275.276C212.692 264.791 218.328 253.695 222.59 241.631C223.086 240.227 224.023 238.53 225.405 238.53C225.521 238.53 225.641 238.542 225.764 238.567C226.726 238.765 227.303 239.731 227.707 240.626C231.823 249.733 229.958 260.681 225.084 269.406C220.219 278.114 212.697 284.997 205.066 291.422Z" fill="#2C8580"/>
<path d="M182.635 165.419C182.635 165.419 173.518 177.847 169.732 185.959C165.946 194.072 134.578 262.217 132.685 269.248C130.793 276.279 125.924 298.453 140.257 303.591H169.732L199.317 243.768L200.83 174.332L182.635 165.419Z" fill="#CCFCFB"/>
<path d="M171.619 260.377C171.58 260.421 170.963 259.796 169.605 259.024C168.251 258.258 166.146 257.379 163.418 256.783C162.058 256.485 160.544 256.253 158.909 256.151C157.275 256.047 155.52 256.078 153.74 256.486C150.164 257.283 146.611 259.542 143.816 262.715C140.978 265.886 139.227 269.629 138.197 273.161C137.153 276.702 136.706 280.021 136.425 282.805C136.148 285.592 136.046 287.862 135.949 289.429C135.903 290.161 135.865 290.759 135.836 291.234C135.804 291.647 135.778 291.863 135.758 291.863C135.739 291.863 135.727 291.645 135.721 291.231C135.724 290.755 135.726 290.157 135.729 289.422C135.757 287.85 135.8 285.576 136.025 282.768C136.257 279.966 136.665 276.614 137.696 273.014C138.71 269.428 140.488 265.581 143.391 262.34C146.25 259.091 149.919 256.773 153.625 255.977C155.474 255.567 157.288 255.556 158.94 255.68C160.601 255.805 162.134 256.065 163.508 256.392C166.262 257.046 168.376 257.997 169.718 258.834C170.388 259.257 170.873 259.638 171.179 259.919C171.482 260.206 171.634 260.362 171.619 260.377Z" fill="#2B3E3C"/>
<path d="M157.642 248.465C157.639 248.426 157.991 248.371 158.633 248.306C159.275 248.227 160.212 248.208 161.367 248.268C162.524 248.318 163.894 248.517 165.388 248.862C166.874 249.236 168.478 249.774 170.081 250.527C171.677 251.3 173.106 252.209 174.331 253.127C175.539 254.071 176.555 255.011 177.323 255.879C178.097 256.739 178.672 257.481 179.014 258.027C179.368 258.569 179.546 258.876 179.514 258.896C179.426 258.959 178.628 257.778 177.032 256.155C176.241 255.338 175.218 254.446 174.018 253.546C172.8 252.67 171.397 251.794 169.837 251.039C168.27 250.303 166.708 249.763 165.26 249.368C163.804 249.004 162.469 248.769 161.335 248.668C159.07 248.45 157.65 248.572 157.642 248.465Z" fill="#2B3E3C"/>
<path d="M184.292 245.186C184.284 245.225 183.798 245.185 182.928 245.083C182.059 244.97 180.797 244.844 179.236 244.729C176.118 244.492 171.782 244.436 167.043 244.996C162.303 245.569 158.103 246.647 155.127 247.613C153.638 248.092 152.441 248.513 151.623 248.827C150.802 249.133 150.339 249.286 150.323 249.25C150.306 249.215 150.74 248.994 151.539 248.623C152.334 248.245 153.516 247.765 154.999 247.231C157.96 246.163 162.189 245.011 166.975 244.433C171.76 243.867 176.142 243.988 179.272 244.328C180.838 244.497 182.099 244.685 182.961 244.865C183.824 245.036 184.298 245.148 184.292 245.186Z" fill="#2B3E3C"/>
<path d="M268.246 186.964C268.234 186.973 268.133 186.852 267.946 186.61C267.735 186.328 267.471 185.973 267.142 185.533C266.419 184.532 265.423 183.151 264.179 181.428C261.635 177.837 258.086 172.831 253.913 166.943L254.37 166.878C252.782 171.542 251.03 176.688 249.184 182.104L249.068 182.447L248.771 182.255C248.578 182.131 248.369 181.997 248.16 181.862C245.72 180.315 243.568 178.456 241.741 176.442C239.922 174.419 238.413 172.26 237.159 170.106C234.653 165.786 233.142 161.525 232.116 157.914C231.097 154.294 230.563 151.296 230.207 149.231C230.036 148.242 229.899 147.452 229.794 146.856C229.745 146.585 229.689 146.385 229.656 146.248C229.606 146.123 229.579 146.053 229.587 146.047C229.707 145.995 230.027 147.137 230.424 149.191C230.847 151.242 231.439 154.218 232.502 157.803C233.57 161.377 235.109 165.588 237.61 169.843C238.861 171.962 240.358 174.083 242.153 176.068C243.955 178.044 246.069 179.865 248.462 181.382C248.668 181.514 248.873 181.647 249.062 181.769L248.648 181.919C250.509 176.511 252.277 171.37 253.88 166.71L254.047 166.225L254.337 166.645C258.442 172.581 261.933 177.629 264.435 181.249C265.629 183.008 266.586 184.418 267.278 185.437C267.579 185.897 267.822 186.268 268.016 186.561C268.18 186.82 268.258 186.958 268.246 186.964Z" fill="#2B3E3C"/>
<path d="M336.167 297.774C336.199 294.61 336.244 290.402 336.295 285.493C336.312 289.716 336.296 293.871 336.167 297.774Z" fill="#A7A9A8"/>
<path d="M336.167 297.778C325.023 292.701 316.081 283.239 309.976 272.624C303.873 262.009 301.182 249.463 302.397 237.279L336.367 263.404C336.137 270.316 336.267 278.013 336.295 285.493C336.244 290.402 336.199 294.61 336.167 297.774C336.167 297.776 336.167 297.778 336.167 297.778Z" fill="#2F857A"/>
<path d="M301.163 223.038C301.163 223.038 296.398 224.361 299.972 234.122C303.546 243.884 304.738 243.294 307.12 252.427C309.503 261.559 312.281 269.893 316.449 275.054C320.62 280.217 336.104 290.738 336.104 290.738L350.002 277.634C350.002 277.634 347.713 267.87 348.261 261.238C348.811 254.605 350.202 238.326 350.002 235.547C349.803 232.766 346.826 226.017 346.826 226.017V221.4L339.679 199.413C339.679 199.413 335.708 197.626 334.318 203.978L331.935 197.236C331.935 197.236 328.163 196.633 327.171 204.377C326.179 212.119 327.965 222.841 327.965 222.841L325.98 236.34L323.002 245.472L320.422 245.869C320.422 245.869 316.536 244.809 314.408 237.498C312.281 230.186 306.524 221.45 301.163 223.038Z" fill="#F4C4B6"/>
<path d="M345.349 257.572C345.334 257.572 345.312 257.4 345.285 257.071C345.259 256.692 345.225 256.212 345.184 255.616C345.113 254.284 345.014 252.443 344.891 250.148C344.676 245.408 344.379 238.811 344.032 231.11L344.093 231.27C343.456 230.506 342.316 230.279 341.281 230.537C340.229 230.792 339.288 231.446 338.705 232.425C337.492 234.379 337.425 236.925 337.045 239.381C336.292 244.945 335.574 250.244 334.919 255.073C334.589 257.485 334.24 259.781 333.77 261.905C333.313 264.032 332.67 265.968 332.047 267.695C331.432 269.429 330.888 270.998 330.553 272.411C330.212 273.82 330.077 275.068 330.104 276.087C330.146 278.138 330.741 279.178 330.652 279.201C330.635 279.208 330.52 278.948 330.32 278.439C330.155 277.922 329.926 277.137 329.882 276.094C329.822 275.057 329.928 273.778 330.244 272.339C330.556 270.899 331.078 269.307 331.668 267.564C332.268 265.824 332.876 263.916 333.311 261.804C333.756 259.698 334.086 257.414 334.402 255.003C335.043 250.172 335.745 244.871 336.483 239.306C336.658 238.064 336.792 236.839 337.008 235.617C337.228 234.402 337.566 233.181 338.234 232.127C338.869 231.056 339.98 230.27 341.157 230.005C342.317 229.713 343.707 229.967 344.5 230.928L344.56 231L344.563 231.088C344.828 238.793 345.054 245.393 345.218 250.135C345.276 252.432 345.324 254.275 345.358 255.609C345.365 256.206 345.37 256.688 345.373 257.068C345.372 257.398 345.365 257.571 345.349 257.572Z" fill="#F68260" fill-opacity="0.46"/>
<path d="M337.751 232.553C337.718 232.567 337.496 232.13 337.165 231.31C336.84 230.489 336.406 229.282 336.002 227.752C335.597 226.221 335.22 224.367 335.004 222.281C334.898 221.24 334.822 220.126 334.944 218.965C335.063 217.816 335.405 216.594 336.143 215.562C336.77 214.666 337.666 213.953 338.685 213.655L338.898 213.592L339.006 213.784C341.019 217.335 342.768 220.469 343.997 222.723C344.561 223.779 345.036 224.668 345.42 225.389C345.745 226.019 345.907 226.372 345.876 226.389C345.847 226.405 345.626 226.086 345.248 225.487C344.823 224.789 344.3 223.929 343.679 222.905C342.363 220.699 340.554 217.601 338.521 214.061L338.843 214.189C337.967 214.452 337.176 215.077 336.605 215.89C335.938 216.823 335.618 217.935 335.497 219.027C335.373 220.122 335.432 221.204 335.524 222.231C335.709 224.291 336.039 226.129 336.391 227.655C336.741 229.182 337.114 230.396 337.373 231.236C337.639 232.073 337.79 232.537 337.751 232.553Z" fill="#F68260" fill-opacity="0.46"/>
<path d="M334.429 234.339C334.39 234.34 334.346 233.889 334.301 233.073C334.263 232.138 334.216 230.982 334.16 229.619C334.067 226.7 333.976 222.669 333.912 218.214C333.878 213.765 333.705 209.718 334.088 206.787C334.275 205.327 334.565 204.164 334.832 203.387C335.098 202.607 335.315 202.205 335.342 202.216C335.441 202.249 334.736 203.935 334.487 206.83C334.21 209.714 334.446 213.749 334.478 218.206C334.544 222.66 334.57 226.693 334.561 229.613C334.546 230.979 334.532 232.133 334.521 233.07C334.499 233.887 334.467 234.339 334.429 234.339Z" fill="#F68260" fill-opacity="0.46"/>
<path d="M322.678 270.948C322.598 270.882 323.468 269.858 324.543 268.002C325.087 267.078 325.641 265.926 326.159 264.611C326.655 263.289 327.099 261.796 327.399 260.193C327.679 258.585 327.784 257.031 327.784 255.618C327.757 254.204 327.642 252.931 327.454 251.876C327.096 249.762 326.638 248.498 326.739 248.463C326.775 248.451 326.913 248.756 327.133 249.324C327.365 249.888 327.615 250.736 327.847 251.802C328.089 252.866 328.249 254.163 328.306 255.607C328.336 257.052 328.245 258.647 327.957 260.294C327.651 261.935 327.179 263.461 326.646 264.804C326.087 266.138 325.484 267.296 324.886 268.209C324.296 269.126 323.763 269.833 323.349 270.28C322.944 270.736 322.709 270.973 322.678 270.948Z" fill="#F68260" fill-opacity="0.46"/>
<path d="M347.075 264.118L359.135 268.304C359.135 268.304 370.65 262.348 378.591 268.304C386.532 274.26 393.431 289.957 391.246 296.311C391.246 296.311 385.766 303.077 381.597 304.07C377.428 305.062 361.22 301.137 354.477 299.716C347.715 298.293 336.104 290.738 336.104 290.738L347.075 264.118Z" fill="#F4C4B6"/>
<path d="M348.556 281.887C348.518 281.888 348.473 281.506 348.427 280.818C348.379 280.001 348.322 279.033 348.256 277.904C348.128 275.444 347.962 272.043 347.911 268.277C347.854 264.511 347.962 261.095 348.19 258.633C348.297 257.401 348.432 256.409 348.555 255.728C348.679 255.047 348.765 254.675 348.804 254.68C348.893 254.695 348.705 256.206 348.59 258.661C348.465 261.115 348.423 264.513 348.48 268.27C348.547 271.951 348.609 275.279 348.657 277.893C348.67 279.126 348.668 280.124 348.648 280.814C348.625 281.504 348.595 281.887 348.556 281.887Z" fill="#F68260" fill-opacity="0.46"/>
<path d="M388.325 267.831C388.234 267.916 386.999 266.199 384.313 264.215C381.671 262.236 377.378 260.124 372.295 259.839C367.21 259.563 362.711 261.19 359.867 262.868C356.979 264.545 355.565 266.114 355.483 266.021C355.46 265.999 355.793 265.597 356.477 264.945C357.157 264.291 358.222 263.419 359.661 262.522C362.501 260.727 367.098 258.988 372.327 259.272C377.553 259.566 381.93 261.797 384.556 263.895C385.887 264.943 386.85 265.926 387.454 266.651C388.062 267.376 388.35 267.811 388.325 267.831Z" fill="#2B3E3C"/>
<path d="M386.775 257.776C386.697 257.892 385.086 256.266 381.757 255.008C378.481 253.724 373.398 253.131 368.179 254.601C365.575 255.328 363.194 256.368 361.157 257.523C359.123 258.688 357.423 259.962 356.071 261.116C354.717 262.271 353.682 263.279 352.973 263.981C352.263 264.684 351.869 265.072 351.838 265.045C351.81 265.02 352.151 264.582 352.813 263.829C353.477 263.078 354.474 262.02 355.807 260.814C357.139 259.609 358.839 258.282 360.896 257.071C362.957 255.87 365.37 254.796 368.027 254.054C373.372 252.548 378.591 253.224 381.903 254.635C383.576 255.322 384.822 256.111 385.615 256.73C386.023 257.024 386.298 257.307 386.498 257.481C386.693 257.66 386.788 257.76 386.775 257.776Z" fill="#2B3E3C"/>
<path d="M386.875 249.06C386.843 249.172 384.736 248.528 381.233 248.053C379.484 247.804 377.383 247.666 375.051 247.662C372.72 247.695 370.158 247.887 367.504 248.34C364.855 248.821 362.381 249.515 360.178 250.279C357.987 251.079 356.059 251.927 354.501 252.758C351.37 254.398 349.609 255.724 349.543 255.629C349.52 255.597 349.949 255.256 350.751 254.665C351.147 254.362 351.643 254.007 352.248 253.64C352.848 253.268 353.517 252.811 354.31 252.404C355.86 251.521 357.792 250.624 360 249.788C362.219 248.987 364.722 248.268 367.407 247.781C370.094 247.323 372.691 247.144 375.051 247.138C377.411 247.172 379.533 247.355 381.292 247.656C382.176 247.768 382.959 247.969 383.652 248.114C384.346 248.252 384.933 248.416 385.409 248.565C386.364 248.849 386.885 249.022 386.875 249.06Z" fill="#2B3E3C"/>
<path d="M294.475 142.404C294.475 142.404 295.034 143.448 295.31 145.611C295.607 147.76 295.566 150.978 294.852 154.966C294.494 156.959 294.011 159.148 293.294 161.487C292.544 163.827 291.409 166.221 290.126 168.731C287.53 173.741 284.26 179.201 280.474 185.027L280.032 185.708L280.031 184.893C280.025 181.045 280.019 177.004 280.012 172.807L280.436 173.011C277.194 175.628 273.78 178.383 270.264 181.221L270.354 181.093C267.995 188.562 266.444 196.881 265.829 205.542C264.834 218.798 265.636 231.476 266.262 242.977C266.797 254.494 267.148 264.866 267.508 273.575C267.853 282.284 268.166 289.33 268.429 294.197C268.572 296.607 268.683 298.49 268.761 299.798C268.801 300.417 268.834 300.901 268.858 301.254C268.877 301.583 268.871 301.752 268.871 301.752C268.871 301.752 268.837 301.586 268.799 301.26C268.763 300.908 268.712 300.425 268.647 299.807C268.527 298.529 268.37 296.642 268.209 294.209C267.879 289.345 267.503 282.3 267.107 273.592C266.717 264.877 266.254 254.511 265.739 243.004C265.086 231.511 264.264 218.806 265.263 205.5C265.881 196.804 267.447 188.439 269.832 180.924L269.857 180.847L269.921 180.794C273.442 177.965 276.861 175.216 280.109 172.606L280.534 172.264L280.533 172.807C280.526 177.004 280.521 181.045 280.514 184.893L280.071 184.76C287.553 173.156 293.639 163.074 294.576 154.916C295.326 150.957 295.41 147.765 295.164 145.628C295.059 144.556 294.848 143.755 294.716 143.215C294.545 142.685 294.475 142.404 294.475 142.404Z" fill="#2B3E3C"/>
<path d="M274.94 282.902L274.55 282.889C272.974 282.933 271.57 284.374 271.566 285.95C271.561 287.526 272.957 288.976 274.532 289.031C276.108 289.085 277.6 287.736 277.704 286.164C277.809 284.59 276.508 283.056 274.94 282.902Z" fill="black"/>
<path d="M274.94 240.923L274.55 240.91C272.974 240.956 271.57 242.396 271.566 243.972C271.561 245.548 272.957 246.998 274.532 247.052C276.108 247.107 277.6 245.759 277.704 244.186C277.809 242.612 276.508 241.078 274.94 240.923Z" fill="black"/>
<path d="M274.532 203.367C276.108 203.423 277.6 202.073 277.704 200.501C277.809 198.928 276.508 197.393 274.94 197.239L274.55 197.226C272.974 197.27 271.57 198.711 271.566 200.288C271.561 201.864 272.957 203.313 274.532 203.367Z" fill="black"/>
<path d="M227.509 93.2165C223.69 88.9894 219.837 84.7155 217.054 79.7445C214.271 74.7747 212.611 68.9738 213.532 63.3515C214.071 60.0644 215.468 56.933 215.69 53.6089C215.995 49.0343 214.073 44.2551 215.695 39.967C218.229 33.2665 227.25 32.2307 232.717 27.6017C236.977 23.9965 239.051 18.1433 243.735 15.1122C247.828 12.4644 253.087 12.5221 257.913 13.2039C262.74 13.8879 267.597 15.1056 272.428 14.4554C275.872 13.9925 279.116 12.5995 282.49 11.7641C285.862 10.9287 289.626 10.7087 292.631 12.4546C295.636 14.2005 297.324 18.4657 295.352 21.3292C300.952 18.7467 308.063 23.111 309.595 29.0829C311.128 35.0549 308.061 41.506 303.316 45.4444C298.572 49.3829 292.438 51.2138 286.379 52.3563C269.226 55.589 250.62 53.7646 235.839 44.4816" fill="#2B1515"/>
<path d="M287.807 150.882C286.971 144.39 286.285 138.972 286.243 138.3C286.243 138.3 307.941 133.424 306.745 111.484C306.168 100.881 303.198 79.14 300.287 59.5023C297.158 38.4117 278.334 23.2733 257.06 24.6958L254.946 24.8374C232.227 27.6953 221.962 48.5867 225.447 71.2185L237.706 147.101C237.706 147.101 242.937 163.888 254.125 166.794L268.246 186.964L270.58 178.282L281.105 169.12C281.105 169.12 283.519 166.506 286.293 161.394C288.561 157.217 288.084 152.92 287.807 150.882Z" fill="#F4C4B6"/>
<path d="M286.259 144.981C286.259 144.981 272.48 147.034 257.135 138.771C257.135 138.771 264.946 154.095 286.689 150.658L286.259 144.981Z" fill="#F68260" fill-opacity="0.46"/>
<path d="M293.236 78.3548C293.405 80.0038 292.148 81.5068 290.429 81.7149C288.713 81.9218 287.181 80.7575 287.012 79.1085C286.845 77.4584 288.1 75.9543 289.816 75.7462C291.536 75.5371 293.067 76.7047 293.236 78.3548Z" fill="#2B3E3C"/>
<path d="M296.298 70.577C295.935 71.0094 293.447 69.4138 290.078 69.6479C286.711 69.8331 284.355 71.7326 283.961 71.3449C283.77 71.1728 284.115 70.4104 285.139 69.5543C286.147 68.7036 287.903 67.8236 290.002 67.6918C292.102 67.5622 293.919 68.2168 294.985 68.94C296.075 69.6653 296.476 70.3798 296.298 70.577Z" fill="#2B3E3C"/>
<path d="M261.411 80.629C261.58 82.2791 260.323 83.7821 258.605 83.9902C256.888 84.1982 255.358 83.0328 255.188 81.3827C255.02 79.7348 256.276 78.2295 257.994 78.0204C259.711 77.8124 261.243 78.9811 261.411 80.629Z" fill="#2B3E3C"/>
<path d="M263.225 73.4198C262.863 73.8533 260.371 72.2576 257.005 72.4918C253.638 72.678 251.281 74.5754 250.888 74.1876C250.696 74.0166 251.038 73.2542 252.067 72.3981C253.074 71.5464 254.831 70.6674 256.93 70.5346C259.029 70.4071 260.845 71.0606 261.914 71.7838C262.999 72.5092 263.402 73.2248 263.225 73.4198Z" fill="#2B3E3C"/>
<path d="M277.122 97.5851C277.093 97.3956 279.163 96.8935 282.527 96.2324C283.381 96.0864 284.184 95.8599 284.289 95.2641C284.452 94.6291 284.029 93.7251 283.546 92.7525C282.597 90.7255 281.605 88.5995 280.562 86.371C276.406 77.2819 273.336 69.7841 273.703 69.6196C274.071 69.4563 277.738 76.6905 281.895 85.7807C282.9 88.0233 283.86 90.1614 284.772 92.2068C285.164 93.1631 285.798 94.2348 285.445 95.5538C285.257 96.2117 284.656 96.7203 284.115 96.9055C283.575 97.1113 283.091 97.1527 282.668 97.2072C279.265 97.6189 277.148 97.7757 277.122 97.5851Z" fill="#2B3E3C"/>
<path d="M263.212 60.1591C262.941 61.0969 259.547 60.8878 255.627 61.6295C251.691 62.2906 248.582 63.6608 248.003 62.8755C247.742 62.4975 248.24 61.5979 249.47 60.6253C250.688 59.6548 252.67 58.6768 255.025 58.2542C257.38 57.8359 259.578 58.0679 261.056 58.5569C262.546 59.0438 263.325 59.7147 263.212 60.1591Z" fill="#2B3E3C"/>
<path d="M294.406 60.9095C293.864 61.7133 291.49 61.0751 288.697 61.2243C285.9 61.2755 283.578 62.0837 282.98 61.3191C282.717 60.9466 283.037 60.1547 284.022 59.3618C284.99 58.5722 286.653 57.8686 288.575 57.7978C290.496 57.7314 292.204 58.313 293.227 59.0318C294.265 59.7517 294.642 60.5185 294.406 60.9095Z" fill="#2B3E3C"/>
<path d="M228.324 87.3306C227.939 87.1934 212.963 83.8834 214.444 98.8388C215.926 113.793 232.132 108.919 232.116 108.488C232.1 108.056 228.324 87.3306 228.324 87.3306Z" fill="#F4C4B6"/>
<path d="M225.488 103.577C225.418 103.535 225.246 103.785 224.825 104.031C224.416 104.269 223.69 104.478 222.882 104.264C221.245 103.84 219.666 101.464 219.326 98.7756C219.153 97.4185 219.311 96.094 219.686 94.9722C220.034 93.834 220.667 92.9986 221.448 92.7786C222.221 92.5183 222.831 92.9376 223.055 93.3406C223.298 93.7392 223.233 94.0464 223.314 94.0649C223.36 94.0987 223.611 93.7828 223.429 93.1772C223.337 92.8864 223.127 92.551 222.748 92.2983C222.359 92.0423 221.817 91.9454 221.269 92.0597C220.123 92.2536 219.191 93.4179 218.777 94.6487C218.301 95.8903 218.093 97.3814 218.287 98.9063C218.681 101.91 220.503 104.578 222.727 104.988C223.806 105.158 224.653 104.754 225.07 104.356C225.497 103.941 225.543 103.598 225.488 103.577Z" fill="#F68260" fill-opacity="0.46"/>
<path d="M299.185 39.0695C298.158 45.0229 286.084 50.4764 276.073 50.1856C266.844 49.9165 262.285 45.3366 255.58 42.0822C251.336 40.0236 251.336 40.0236 245.576 40.9592C240.92 41.7162 238.503 47.21 235.888 51.1375C240.869 61.9954 238.856 74.6211 236.744 86.3786C236.511 87.678 236.222 89.0809 235.231 89.9533C233.549 91.4357 230.824 90.5469 229.17 89.034C226.523 86.6106 225.319 83.0164 224.451 79.5343C222.474 71.5997 221.715 63.2926 222.969 55.2143C224.224 47.1348 227.567 39.2873 233.087 33.2566C239.985 25.7196 250.069 21.3749 260.273 20.8499C270.477 20.3249 280.726 23.4835 289.271 29.0818C293.237 31.6795 296.944 34.8915 299.185 39.0695Z" fill="#2B1515"/>
<path d="M279.325 105.161C276.784 103.976 274.243 102.791 271.702 101.606C271.264 101.402 270.795 101.192 270.315 101.257C269.775 101.329 269.343 101.733 268.996 102.153C267.229 104.294 266.782 107.526 268.152 109.943C269.521 112.359 272.74 113.635 275.306 112.572C278.008 111.453 279.321 108.316 279.532 105.399L279.325 105.161Z" fill="#F68260" fill-opacity="0.46"/>
<path d="M275.545 113.111C275.565 113.178 275.192 113.397 274.429 113.556C273.673 113.7 272.504 113.758 271.15 113.315C269.809 112.885 268.298 111.842 267.364 110.169C266.413 108.539 266.07 106.235 266.9 104.157C267.295 103.124 267.914 102.212 268.669 101.491C269.051 101.126 269.447 100.828 269.905 100.555C270.143 100.422 270.442 100.294 270.784 100.276C271.121 100.257 271.423 100.344 271.669 100.446C272.167 100.67 272.489 100.909 272.856 101.121C273.212 101.339 273.559 101.552 273.896 101.759C274.553 102.171 275.172 102.558 275.753 102.92C278.013 104.355 279.371 105.311 279.292 105.446C279.214 105.582 277.712 104.871 275.348 103.614C274.747 103.288 274.105 102.941 273.423 102.571C273.076 102.381 272.72 102.185 272.354 101.983C271.991 101.788 271.595 101.54 271.277 101.416C270.929 101.295 270.777 101.304 270.443 101.495C270.111 101.705 269.749 101.982 269.441 102.289C268.815 102.909 268.294 103.688 267.958 104.563C267.26 106.317 267.512 108.225 268.281 109.667C269.042 111.132 270.27 112.084 271.43 112.563C272.6 113.049 273.661 113.122 274.382 113.118C275.108 113.099 275.521 113.028 275.545 113.111Z" fill="#2B3E3C"/>
<path d="M273.14 78.7305C273.051 78.7382 273.151 77.3375 272.544 74.9435C271.944 72.5963 270.379 69.1448 266.849 66.4752C265.1 65.1715 262.898 64.0638 260.359 63.6194C257.839 63.1925 254.995 63.2742 252.29 64.3067C250.928 64.7816 249.615 65.4971 248.408 66.4012C247.188 67.2877 246.08 68.3878 245.168 69.6632C243.28 72.1737 242.217 75.402 242.185 78.7273C242.216 82.0558 243.279 85.2841 245.167 87.7968C246.079 89.0711 247.187 90.1722 248.408 91.0588C249.614 91.9628 250.927 92.6784 252.29 93.1533C254.995 94.1858 257.839 94.2686 260.36 93.8406C262.899 93.3962 265.102 92.2896 266.85 90.9848C270.38 88.3141 271.944 84.8626 272.544 82.5165C273.151 80.1225 273.051 78.7229 273.14 78.7305C273.149 78.7305 273.154 78.8155 273.155 78.9832C273.153 79.1858 273.149 79.4298 273.146 79.7293C273.147 80.0582 273.13 80.4634 273.05 80.9383C272.988 81.4143 272.928 81.9675 272.758 82.5699C272.502 83.793 271.952 85.2438 271.068 86.786C270.176 88.3218 268.877 89.9315 267.094 91.3039C265.315 92.6632 263.059 93.8242 260.446 94.3035C257.853 94.7653 254.917 94.6977 252.111 93.6445C250.701 93.1598 249.338 92.4257 248.085 91.4934C246.819 90.5796 245.669 89.4436 244.719 88.1257C242.757 85.527 241.647 82.1767 241.619 78.7273C241.648 75.2801 242.758 71.9309 244.72 69.3332C245.67 68.0153 246.819 66.8793 248.085 65.9666C249.338 65.0353 250.701 64.3001 252.111 63.8155C254.916 62.7633 257.852 62.6947 260.446 63.1576C263.059 63.6358 265.314 64.7968 267.093 66.1561C268.876 67.5274 270.176 69.1371 271.067 70.6729C271.952 72.2151 272.502 73.6659 272.757 74.889C272.927 75.4924 272.988 76.0457 273.05 76.5217C273.13 76.9966 273.147 77.4028 273.146 77.7307C273.149 78.0302 273.153 78.2742 273.155 78.4768C273.154 78.6445 273.149 78.7305 273.14 78.7305Z" fill="#2B3E3C"/>
<path d="M310.438 77.2645C310.352 77.2722 310.448 75.9074 309.855 73.5755C309.271 71.2893 307.745 67.9271 304.306 65.3272C302.603 64.0562 300.458 62.9779 297.985 62.5466C295.529 62.1305 292.759 62.2111 290.125 63.2164C288.799 63.6782 287.519 64.3764 286.345 65.2565C285.155 66.1202 284.077 67.1919 283.187 68.4335C281.35 70.8787 280.315 74.0232 280.283 77.2624C280.314 80.5026 281.349 83.647 283.186 86.0944C284.076 87.3361 285.155 88.4089 286.344 89.2715C287.519 90.1527 288.799 90.8508 290.125 91.3126C292.76 92.3179 295.53 92.3985 297.986 91.9825C300.459 91.5501 302.604 90.4718 304.307 89.2018C307.745 86.6009 309.271 83.2386 309.855 80.9524C310.448 78.6216 310.352 77.2569 310.438 77.2645C310.458 77.2645 310.46 77.5989 310.447 78.2382C310.448 78.5585 310.432 78.9538 310.354 79.4167C310.293 79.8796 310.235 80.4198 310.07 81.0069C309.542 83.341 308.049 86.8078 304.55 89.521C302.817 90.8454 300.619 91.9781 298.072 92.4454C295.543 92.8963 292.68 92.8298 289.945 91.8038C288.571 91.3311 287.242 90.6145 286.021 89.7072C284.786 88.8163 283.665 87.7086 282.738 86.4233C280.827 83.891 279.745 80.6246 279.717 77.2624C279.747 73.9012 280.828 70.6358 282.74 68.1035C283.666 66.8194 284.787 65.7117 286.022 64.8219C287.242 63.9135 288.571 63.1979 289.945 62.7252C292.68 61.6992 295.543 61.6339 298.071 62.0837C300.618 62.5499 302.816 63.6826 304.549 65.0081C308.047 67.7201 309.542 71.187 310.07 73.5221C310.235 74.1092 310.293 74.6484 310.354 75.1123C310.432 75.5752 310.448 75.9706 310.447 76.2908C310.46 76.9302 310.458 77.2645 310.438 77.2645Z" fill="#2B3E3C"/>
<path d="M280.001 73.8195C279.939 73.8826 279.58 73.5788 278.917 73.2651C278.261 72.9514 277.278 72.6443 276.174 72.6639C275.069 72.6791 274.098 73.0222 273.454 73.3609C272.805 73.6997 272.459 74.0188 272.396 73.9578C272.342 73.9153 272.596 73.4808 273.245 73.0189C273.885 72.5615 274.939 72.1138 276.164 72.0964C277.39 72.0746 278.457 72.4831 279.113 72.9155C279.779 73.3511 280.05 73.7748 280.001 73.8195Z" fill="#2B3E3C"/>
<path d="M242.844 76.5108C242.938 76.636 239.882 79.0769 236.02 81.961C232.155 84.8451 228.948 87.0812 228.854 86.9559C228.76 86.8307 231.815 84.3909 235.68 81.5057C239.543 78.6227 242.751 76.3855 242.844 76.5108Z" fill="#2B3E3C"/>
<path d="M248.443 187.859C247.554 187.859 246.66 187.302 245.918 186.74C234.127 177.833 228.504 162.356 229.932 147.647C230.011 148.102 230.102 148.63 230.207 149.231C230.563 151.296 231.097 154.294 232.116 157.914C233.142 161.525 234.653 165.786 237.159 170.106C238.413 172.26 239.922 174.419 241.741 176.442C243.568 178.456 245.72 180.315 248.16 181.862C248.369 181.997 248.578 182.131 248.771 182.255L249.068 182.447L249.184 182.104C250.966 176.873 252.662 171.895 254.207 167.358C254.263 167.438 254.321 167.518 254.377 167.598C255.215 174.086 254.052 180.348 250.766 186.038C250.361 186.738 249.873 187.469 249.113 187.743C248.891 187.824 248.667 187.859 248.443 187.859Z" fill="#2C8580"/>
<path d="M249.068 182.447L248.771 182.255C248.578 182.131 248.369 181.997 248.159 181.862C245.72 180.315 243.568 178.456 241.741 176.442C239.922 174.419 238.413 172.26 237.159 170.106C234.653 165.786 233.142 161.525 232.116 157.914C231.097 154.294 230.563 151.296 230.207 149.231C230.102 148.63 230.011 148.102 229.932 147.647C229.94 147.565 229.949 147.481 229.956 147.399C232.148 162.404 238.586 175.74 248.916 182.012C250.812 176.841 252.422 171.988 254.3 167.045C254.327 167.23 254.354 167.414 254.376 167.598C254.321 167.518 254.263 167.438 254.207 167.358C252.662 171.895 250.966 176.873 249.184 182.104L249.068 182.447Z" fill="#0F191D"/>
<path d="M280.232 192.544L278.79 177.832L270.888 180.718C274.032 178.18 277.091 175.712 280.013 173.352C280.02 177.354 280.025 181.211 280.031 184.893L280.032 185.708L280.474 185.027C284.26 179.201 287.53 173.741 290.126 168.731C291.409 166.221 292.544 163.827 293.294 161.487C294.011 159.148 294.494 156.959 294.852 154.966C295.401 151.895 295.553 149.282 295.457 147.261C295.439 146.47 295.39 146.047 295.39 146.047C295.39 146.047 297.389 159.822 293.504 167.628C289.62 175.436 280.232 192.544 280.232 192.544Z" fill="#2F857A"/>
<path d="M280.032 185.708L280.031 184.893C280.025 181.212 280.02 177.354 280.013 173.352C277.091 175.712 274.032 178.18 270.888 180.718L270.092 181.009L280.274 172.808V184.894L287.373 173.353C295.011 160.924 295.532 150.676 295.457 147.261C295.553 149.283 295.401 151.895 294.852 154.966C294.494 156.959 294.011 159.148 293.294 161.487C292.544 163.827 291.409 166.221 290.126 168.731C287.53 173.741 284.26 179.201 280.474 185.027L280.032 185.708Z" fill="#0F191D"/>
<path d="M138.407 270.815L138.26 270.794C137.82 266.285 140.212 261.8 143.739 258.955C147.265 256.109 151.783 254.731 156.285 254.208C157.509 254.065 158.75 253.983 159.989 253.983C163.063 253.983 166.124 254.483 168.89 255.789C172.769 257.621 175.762 260.13 176.283 264.389C174.873 262.884 173.305 261.533 171.62 260.376C171.63 260.359 171.48 260.203 171.179 259.919C170.873 259.638 170.387 259.257 169.718 258.834C168.376 257.997 166.262 257.046 163.508 256.392C162.134 256.065 160.601 255.805 158.94 255.68C158.372 255.638 157.784 255.61 157.181 255.61C156.034 255.61 154.837 255.708 153.625 255.977C149.919 256.773 146.25 259.091 143.391 262.341C141.075 264.926 139.475 267.898 138.407 270.815ZM171.349 260.193C170.006 259.293 168.59 258.514 167.119 257.875C168.114 258.255 168.948 258.652 169.605 259.024C170.478 259.522 171.045 259.957 171.349 260.193Z" fill="#2C8580"/>
<path d="M138.697 270.856L138.407 270.815C139.475 267.898 141.075 264.926 143.391 262.34C146.25 259.091 149.919 256.773 153.625 255.977C154.837 255.708 156.034 255.61 157.181 255.61C157.784 255.61 158.372 255.638 158.94 255.68C160.601 255.805 162.134 256.065 163.508 256.392C166.262 257.046 168.376 257.997 169.718 258.834C170.387 259.257 170.873 259.638 171.179 259.919C171.48 260.203 171.63 260.359 171.62 260.375C171.53 260.314 171.44 260.252 171.349 260.192C171.045 259.957 170.478 259.522 169.605 259.024C168.948 258.652 168.114 258.255 167.119 257.875C164.121 256.571 160.898 255.845 157.606 255.845C156.925 255.845 156.24 255.876 155.555 255.939C147.77 256.664 141.731 262.642 138.697 270.856Z" fill="#0F191D"/>
<path d="M392.686 276.012C391.404 273.204 390.079 270.35 388.321 267.833C388.322 267.833 388.324 267.832 388.325 267.831C388.35 267.811 388.062 267.376 387.454 266.651C387.38 266.563 387.301 266.47 387.217 266.375C386.718 265.769 386.187 265.19 385.614 264.645C382.563 261.737 378.507 259.993 374.316 259.48C373.669 259.381 373.004 259.31 372.327 259.272C371.947 259.251 371.569 259.242 371.196 259.242C367.266 259.242 363.754 260.345 361.167 261.667C360.201 262.101 359.259 262.588 358.346 263.121L356.686 264.47C361.242 260.341 367.385 258.046 373.525 258.046C374.906 258.046 376.287 258.162 377.65 258.4C381.876 259.137 385.971 261.043 388.886 264.19C391.8 267.335 393.412 271.787 392.686 276.012Z" fill="#2C8580"/>
<path d="M388.321 267.833C387.971 267.333 387.605 266.845 387.217 266.375C387.301 266.47 387.38 266.563 387.454 266.651C388.062 267.376 388.35 267.811 388.325 267.831C388.324 267.832 388.322 267.833 388.321 267.833ZM361.167 261.667C363.754 260.345 367.265 259.242 371.196 259.242C371.569 259.242 371.947 259.251 372.327 259.272C373.004 259.31 373.669 259.381 374.316 259.48C373.648 259.398 372.978 259.347 372.307 259.329C372.094 259.322 371.883 259.32 371.669 259.32C368.057 259.32 364.472 260.183 361.167 261.667Z" fill="#0F191D"/>
<path d="M332.806 195.854C332.77 195.839 332.911 195.416 333.195 194.666C333.532 193.805 333.946 192.748 334.433 191.5C335.487 188.831 336.932 185.142 338.458 181.042C339.984 176.938 341.301 173.202 342.247 170.492C342.694 169.229 343.073 168.159 343.38 167.288C343.656 166.534 343.824 166.122 343.861 166.133C343.9 166.145 343.802 166.58 343.59 167.354C343.382 168.131 343.053 169.246 342.628 170.618C341.778 173.362 340.519 177.128 338.991 181.24C337.46 185.347 335.954 189.021 334.804 191.653C334.229 192.97 333.749 194.029 333.399 194.753C333.051 195.477 332.841 195.871 332.806 195.854Z" fill="#2B3E3C"/>
<path d="M195.494 196.924C195.34 196.954 194.156 191.771 192.85 185.348C191.543 178.922 190.609 173.69 190.763 173.658C190.916 173.626 192.1 178.809 193.406 185.234C194.713 191.659 195.647 196.893 195.494 196.924Z" fill="#2B3E3C"/>
<path d="M193.439 261.713C193.783 261.886 189.449 227.772 189.449 227.772C189.449 227.772 192.185 201.884 193.723 200.687L193.762 191.552C193.762 191.552 197.996 188.988 199.133 193.129C199.133 193.129 202.887 189.868 203.543 197.629C204.199 205.389 204.337 213.32 204.337 213.32L212.693 234.215L214.07 234.91C214.07 234.91 215.865 218.542 216.909 216.132C217.954 213.723 218.669 207.866 222.629 208.743C226.591 209.624 226.922 212.9 226.208 218.241C225.496 223.582 224.611 229.095 224.94 232.544C225.271 235.993 226.837 243.585 226.356 249.617C225.874 255.647 222.572 262.012 219.104 266.479C215.637 270.946 209.015 280.185 205.414 282.969C204.157 283.941 193.439 261.713 193.439 261.713Z" fill="#F4C4B6"/>
<path d="M197.658 233.952C197.618 233.949 197.629 233.429 197.681 232.492C197.752 231.444 197.843 230.116 197.953 228.529C198.208 225.184 198.599 220.569 199.066 215.473C199.306 212.932 199.536 210.512 199.746 208.291C199.855 207.195 199.924 206.156 199.784 205.212C199.652 204.269 199.282 203.449 198.742 202.859C197.638 201.663 196.22 201.36 195.331 201.361C194.409 201.355 193.928 201.605 193.909 201.543C193.902 201.526 194.017 201.465 194.248 201.364C194.483 201.28 194.843 201.166 195.323 201.14C196.256 201.072 197.784 201.314 199.036 202.585C199.652 203.216 200.089 204.131 200.248 205.139C200.419 206.15 200.36 207.234 200.267 208.338C200.07 210.56 199.856 212.982 199.631 215.526C199.163 220.621 198.709 225.23 198.353 228.566C198.171 230.146 198.02 231.469 197.9 232.512C197.781 233.443 197.696 233.956 197.658 233.952Z" fill="#F68260" fill-opacity="0.46"/>
<path d="M202.15 220C202.231 220.069 201.3 220.888 200.67 222.694C199.996 224.472 199.754 227.144 199.281 230.057C198.831 232.974 198.392 235.609 198.046 237.513C197.701 239.416 197.449 240.586 197.37 240.574C197.294 240.561 197.406 239.37 197.65 237.451C197.894 235.532 198.27 232.886 198.72 229.97C199.193 227.072 199.497 224.377 200.296 222.548C200.674 221.634 201.136 220.966 201.504 220.558C201.869 220.144 202.13 219.979 202.15 220Z" fill="#F68260" fill-opacity="0.46"/>
<path d="M199.078 192.679C199.116 192.673 199.219 193.055 199.369 193.753C199.522 194.449 199.711 195.465 199.919 196.723C200.335 199.24 200.791 202.74 201.079 206.623C201.365 210.51 201.428 214.038 201.385 216.589C201.366 217.864 201.328 218.896 201.278 219.607C201.233 220.319 201.188 220.712 201.149 220.711C201.065 220.709 201.046 219.134 200.984 216.591C200.924 214.047 200.798 210.535 200.514 206.665C200.226 202.797 199.835 199.305 199.522 196.78C199.209 194.256 198.996 192.693 199.078 192.679Z" fill="#F68260" fill-opacity="0.46"/>
<path d="M223.184 224.664C223.266 224.792 221.962 225.398 220.369 224.902C218.769 224.425 218.027 223.195 218.166 223.134C218.292 223.026 219.129 223.949 220.534 224.36C221.929 224.804 223.139 224.503 223.184 224.664Z" fill="#F68260" fill-opacity="0.46"/>
<path d="M193.909 257.472L171.833 266.748H158.68C158.68 266.748 145.671 270.809 143.669 283.003C141.667 295.198 141.382 301.475 147.1 302.984C152.819 304.492 168.974 304.659 176.979 302.002C184.986 299.345 205.956 282.422 205.956 282.422L207.978 270.18L193.909 257.472Z" fill="#F4C4B6"/>
<path d="M199.078 270.948C199.05 270.974 198.829 270.77 198.451 270.372C198.059 269.988 197.575 269.354 197.017 268.549C195.925 266.919 194.73 264.447 193.934 261.566C193.109 258.691 192.757 256.002 192.574 254.065C192.406 252.121 192.416 250.914 192.488 250.91C192.572 250.904 192.705 252.1 192.972 254.018C193.256 255.933 193.666 258.581 194.48 261.41C195.264 264.247 196.373 266.683 197.356 268.334C198.349 269.983 199.157 270.877 199.078 270.948Z" fill="#F68260" fill-opacity="0.46"/>
<path d="M208.689 274.819C208.572 274.775 209.565 273.097 209.947 270.086C210.13 268.592 210.114 266.773 209.687 264.831C209.264 262.884 208.334 260.88 206.982 259.009C205.641 257.129 204.133 255.492 202.862 253.909C201.578 252.334 200.55 250.793 199.878 249.398C199.2 248.001 198.888 246.771 198.771 245.916C198.66 245.056 198.705 244.578 198.734 244.578C198.844 244.553 198.807 246.526 200.236 249.217C200.938 250.555 201.973 252.038 203.266 253.578C204.547 255.128 206.072 256.758 207.444 258.68C208.827 260.59 209.792 262.701 210.198 264.719C210.612 266.737 210.584 268.613 210.345 270.141C210.105 271.673 209.684 272.863 209.333 273.647C209.164 274.046 209.002 274.337 208.887 274.534C208.775 274.73 208.708 274.828 208.689 274.819Z" fill="#F68260" fill-opacity="0.46"/>
<path d="M246.164 169.951C246.04 170.045 244.159 167.784 241.963 164.902C239.768 162.018 238.088 159.603 238.213 159.509C238.337 159.414 240.218 161.675 242.414 164.558C244.61 167.441 246.289 169.855 246.164 169.951Z" fill="white"/>
<path d="M292.356 152.67C292.199 152.675 291.979 150.313 291.864 147.391C291.749 144.469 291.782 142.097 291.94 142.091C292.096 142.084 292.316 144.447 292.431 147.369C292.545 150.29 292.513 152.663 292.356 152.67Z" fill="white"/>
<path d="M337.941 86.004L347.507 69.1437C343.274 62.2732 340.829 54.1861 340.829 45.5261C340.829 20.619 361.019 0.428017 385.927 0.428017C410.833 0.428017 431.024 20.619 431.024 45.5261C431.024 70.4321 410.833 90.6231 385.927 90.6231C375.527 90.6231 365.956 87.0931 358.328 81.179L358.342 81.1986L337.941 86.004Z" fill="#FAFAF9"/>
<path d="M337.941 86.004C338.91 85.7818 345.368 84.306 358.375 81.3336L358.584 81.2868L358.453 81.1147L358.437 81.0951L358.243 81.289C360.816 83.2822 363.897 85.246 367.519 86.8819C371.146 88.4906 375.301 89.8041 379.89 90.4141C382.18 90.707 384.572 90.8955 387.032 90.7757C388.26 90.706 389.512 90.6765 390.773 90.5709C392.027 90.3814 393.297 90.1886 394.585 89.9947C399.692 88.9861 404.916 87.0474 409.787 84.025C414.655 81.0123 419.163 76.9225 422.777 71.8971C426.385 66.8804 429.121 60.9324 430.401 54.4682C431.67 48.0138 431.565 41.0954 429.869 34.3992C428.162 27.727 424.973 21.2083 420.199 15.8463L418.356 13.8183C417.751 13.1375 417.029 12.5744 416.373 11.9492C415.686 11.3578 415.065 10.688 414.327 10.1652L412.161 8.54668C411.461 7.98031 410.689 7.52287 409.921 7.06325C409.156 6.59926 408.393 6.13636 407.631 5.67455C406.831 5.28572 406.031 4.89799 405.235 4.51024C404.432 4.13992 403.659 3.70206 402.816 3.43522C396.264 0.834282 389.274 -0.15686 382.594 0.32782C375.911 0.809227 369.518 2.72618 364.033 5.81397C358.53 8.8778 353.891 12.9665 350.309 17.5345C346.717 22.1047 344.186 27.1442 342.62 32.1642C341.062 37.2071 340.642 42.2085 340.659 46.8375C340.793 51.4784 341.637 55.7534 342.868 59.5056C344.102 63.2633 345.721 66.4948 347.394 69.2134L347.391 69.0772C341.355 79.8894 338.405 85.173 337.941 86.004C338.415 85.1806 341.438 79.9363 347.624 69.209L347.663 69.1415L347.621 69.0729C345.978 66.3587 344.388 63.1391 343.182 59.4033C341.979 55.6728 341.16 51.4284 341.044 46.8266C341.046 42.2358 341.48 37.2822 343.036 32.2927C344.602 27.3261 347.12 22.3432 350.684 17.8297C354.238 13.3173 358.834 9.28078 364.28 6.2616C369.707 3.21629 376.029 1.33096 382.633 0.862617C389.236 0.391006 396.138 1.3745 402.611 3.94712C403.443 4.20961 404.206 4.64419 405 5.01124C405.786 5.39354 406.576 5.77584 407.365 6.16032C408.118 6.61777 408.871 7.07523 409.625 7.53487C410.386 7.98796 411.148 8.43887 411.84 8.99979L413.978 10.5987C414.708 11.1149 415.32 11.7772 415.998 12.362C416.646 12.9796 417.361 13.534 417.959 14.2082L419.779 16.2101C424.495 21.5067 427.644 27.9448 429.334 34.5343C431.011 41.1466 431.121 47.9833 429.874 54.3637C428.616 60.7516 425.918 66.6332 422.36 71.5976C418.794 76.5718 414.344 80.6268 409.533 83.6165C404.72 86.6183 399.556 88.5494 394.502 89.5634C393.227 89.7595 391.968 89.9533 390.728 90.145C389.478 90.2529 388.24 90.2855 387.022 90.3596C384.586 90.487 382.212 90.3073 379.94 90.0263C375.392 89.4382 371.265 88.1529 367.657 86.5736C364.054 84.9671 360.982 83.0338 358.413 81.069L357.572 80.4264L358.217 81.264L358.233 81.2835L358.31 81.0635C345.345 84.208 338.906 85.7698 337.941 86.004Z" fill="#2B3E3C"/>
<path d="M398.103 43.6429C398.103 46.0772 400.076 48.0497 402.51 48.0497C404.944 48.0497 406.918 46.0772 406.918 43.6429C406.918 41.2097 404.944 39.2361 402.51 39.2361C400.076 39.2361 398.103 41.2097 398.103 43.6429Z" fill="#2B3E3C"/>
<path d="M380.466 43.6429C380.466 46.0772 382.439 48.0497 384.873 48.0497C387.307 48.0497 389.281 46.0772 389.281 43.6429C389.281 41.2097 387.307 39.2361 384.873 39.2361C382.439 39.2361 380.466 41.2097 380.466 43.6429Z" fill="#2B3E3C"/>
<path d="M362.873 41.4396C361.656 43.5482 362.378 46.2428 364.487 47.4605C366.595 48.6771 369.29 47.955 370.507 45.8464C371.724 43.7388 371.003 41.0431 368.895 39.8265C366.786 38.6099 364.092 39.332 362.873 41.4396Z" fill="#2B3E3C"/>
</svg>
