<svg width="765" height="568" viewBox="0 0 765 568" fill="none" xmlns="http://www.w3.org/2000/svg">
<g clip-path="url(#clip0_84_2925)">
<path d="M631.912 385.019H536.753V306.51H631.912V385.019Z" fill="#E2E2E0"/>
<path d="M631.912 385.019H594.482V306.51H631.912V385.019Z" fill="#DADBD8"/>
<path d="M550.757 284.037C550.757 292.558 564.513 299.463 581.483 299.463C598.449 299.463 612.207 292.558 612.207 284.037H550.757" fill="#FAFAF9"/>
<path d="M550.757 272.507C550.757 281.027 564.513 287.932 581.483 287.932C598.449 287.932 612.207 281.027 612.207 272.507H550.757" fill="#FAFAF9"/>
<path d="M363.746 355.434H150.834V339.798H363.746V355.434Z" fill="#EDEDEB"/>
<path d="M17.5927 546.178C17.5927 558.23 184.74 568 390.932 568C597.122 568 764.271 558.23 764.271 546.178C764.271 534.128 597.122 524.358 390.932 524.358C184.74 524.358 17.5927 534.128 17.5927 546.178Z" fill="#F3F2F1"/>
<path d="M296.945 525.747L324.181 522.601V366.299H347.509V522.601L374.744 525.747L377.108 533.498H294.58L296.945 525.747" fill="#17282F"/>
<path d="M294.58 533.498H377.108L375.064 526.79H365.696L366.1 524.748L347.509 522.601V432.198H324.181V480.969V481.45V522.601L296.945 525.747L294.58 533.498" fill="#323232"/>
<path d="M342.89 155.967C302.459 155.969 262.029 155.969 221.599 155.967C242.387 221.801 252.952 288.862 252.904 354.694C293.334 354.694 333.767 354.694 374.197 354.694C374.245 288.862 363.68 221.801 342.89 155.967Z" fill="#406FBF"/>
<path d="M246.338 263.766H253.62C248.421 227.734 240.153 191.668 228.879 155.967C226.451 155.969 224.027 155.969 221.599 155.967C222.523 158.898 223.428 161.829 224.312 164.762C225.64 169.169 226.925 173.584 228.161 178.001C230.647 186.873 232.948 195.764 235.062 204.666C236.406 210.327 237.673 215.985 238.867 221.653C239.658 225.408 240.417 229.168 241.141 232.926C243.122 243.203 244.855 253.486 246.338 263.766" fill="#2B3E3C"/>
<path d="M344.447 156.166C305.908 156.168 267.367 156.168 228.827 156.166C248.645 221.931 258.716 288.922 258.67 354.685C297.21 354.685 335.751 354.685 374.29 354.685C374.334 288.922 364.265 221.931 344.447 156.166Z" fill="#474747"/>
<path d="M280.655 373.343H452.374C445.16 357.625 432.03 347.983 417.847 347.983H292.293L280.655 373.343" fill="#406FBF"/>
<path d="M245.774 373.343H328.686C321.473 357.625 308.344 347.983 294.159 347.983H264.816C250.63 347.983 243.608 356.184 245.774 373.343" fill="#406FBF"/>
<path d="M415.105 517.413L430.642 519.456L440.751 484.229L425.214 482.187L415.105 517.413" fill="#E1B791"/>
<path d="M432.591 515.391L415.153 513.1C414.52 513.017 413.982 513.395 413.863 514.009L411.206 527.705C410.93 529.128 412.095 530.659 413.559 530.825C419.645 531.519 422.591 531.542 430.259 532.55C434.978 533.171 451.201 535.437 457.773 535.475C464.198 535.509 464.191 529.008 461.41 528.403C448.939 525.694 439.07 520.719 435.138 516.698C434.43 515.973 433.519 515.515 432.591 515.391Z" fill="#17282F"/>
<path d="M420 500.354L423.139 489.422H423.131L419.99 500.353L420 500.354" fill="#C3C5C2"/>
<path d="M435.533 502.395L438.502 492.064L423.139 489.422L420 500.355L435.533 502.395" fill="#D8898C"/>
<path d="M362.644 292.232C362.644 292.232 484.328 301.304 479.417 347.733C472.36 414.468 444.716 502.093 444.716 502.093L416.485 497.045C416.485 497.045 428.381 416.201 434.657 364.202C404.294 351.091 321.974 363.645 312.304 336.341C304.392 314.004 308.67 292.232 308.67 292.232H362.644" fill="#17282F"/>
<path d="M410.049 508.435L443.183 512.792L447.658 500.86L414.47 493.421L410.049 508.435" fill="#2B3E3C"/>
<path d="M434.738 517.328C437.441 518.247 439.498 518.429 440.316 517.804C440.657 517.544 440.795 517.132 440.743 516.544C440.718 516.272 440.613 516.093 440.41 515.983C439.442 515.45 436.688 516.417 434.738 517.328V517.328ZM437.738 518.822C436.303 518.633 434.755 518.13 433.673 517.724L433.438 517.404L433.634 517.057C434.176 516.777 438.964 514.349 440.761 515.343C441.179 515.573 441.423 515.966 441.469 516.479C441.545 517.326 441.306 517.968 440.757 518.384C440.062 518.914 438.939 518.98 437.738 518.822" fill="#406FBF"/>
<path d="M436.702 511.724C436.402 511.686 436.132 511.755 435.884 511.942C434.83 512.718 434.368 515.26 434.216 516.74C435.716 515.777 437.58 513.516 437.49 512.376C437.474 512.158 437.387 511.89 436.87 511.757L436.702 511.724ZM433.754 517.742L433.594 517.681L433.438 517.363C433.448 517.172 433.687 512.659 435.45 511.354C435.926 511.001 436.463 510.901 437.05 511.05C437.753 511.229 438.167 511.682 438.217 512.318C438.352 514.06 435.614 516.999 433.947 517.715L433.754 517.742Z" fill="#406FBF"/>
<path d="M365.696 526.79H381.35L388.521 490.509H372.866L365.696 526.79Z" fill="#E1B791"/>
<path d="M381.836 522.98H364.25C363.611 522.98 363.127 523.426 363.089 524.05L362.236 537.976C362.147 539.42 363.501 540.788 364.976 540.763C371.099 540.657 374.024 540.296 381.759 540.296C386.517 540.296 402.657 540.792 409.228 540.792C415.654 540.792 415.611 534.288 412.827 533.701C400.34 531.06 388.953 527.418 384.533 523.944C383.736 523.317 382.773 522.98 381.836 522.98" fill="#17282F"/>
<path d="M369.158 509.221H369.169L370.061 504.706H370.051L369.158 509.221Z" fill="#C3C5C2"/>
<path d="M369.17 509.221H384.819L385.714 504.706H370.061L369.17 509.221Z" fill="#D8898C"/>
<path d="M333.084 292.232C333.084 292.232 436.884 301.034 434.332 346.291C431.535 395.848 391.574 507.296 391.574 507.296H362.739C362.739 507.296 375.777 406.464 382.096 356.004C352.839 356.004 292.141 361.534 282.408 335.037C274.444 313.36 279.633 293.039 279.633 293.039L333.084 292.232" fill="#17282F"/>
<path d="M357.913 518.795L392.306 520.357L394.954 505.562L358.966 505.693L357.913 518.795Z" fill="#2B3E3C"/>
<path d="M384.218 524.62C387.018 525.179 389.08 525.092 389.81 524.364C390.114 524.063 390.199 523.636 390.07 523.059C390.01 522.793 389.883 522.629 389.667 522.546C388.637 522.144 386.034 523.464 384.218 524.62V524.62ZM387.385 525.711C385.939 525.711 384.339 525.412 383.215 525.15L382.939 524.862L383.088 524.494C383.588 524.148 388.019 521.115 389.931 521.867C390.374 522.04 390.668 522.397 390.78 522.901C390.967 523.73 390.813 524.396 390.324 524.882C389.702 525.499 388.598 525.711 387.385 525.711Z" fill="#406FBF"/>
<path d="M385.437 518.808C385.132 518.808 384.874 518.914 384.653 519.13C383.709 520.037 383.58 522.618 383.625 524.105C384.986 522.955 386.54 520.471 386.301 519.349C386.257 519.138 386.138 518.883 385.606 518.818L385.437 518.808ZM383.297 525.16L383.13 525.119L382.933 524.824C382.918 524.634 382.566 520.128 384.147 518.604C384.572 518.193 385.092 518.024 385.693 518.093C386.413 518.182 386.883 518.575 387.016 519.2C387.376 520.908 385.042 524.179 383.482 525.108L383.297 525.16" fill="#406FBF"/>
<path d="M280.154 229.526C280.154 229.524 280.154 229.521 280.154 229.519C279.937 224.289 279.633 218.866 279.215 213.306C279.633 218.87 279.937 224.292 280.154 229.526" fill="#406FBF"/>
<path d="M280.154 229.526C284.671 217.717 287.175 206.706 288.417 197.248C285.018 209.021 281.812 213.673 281.812 213.673L279.214 213.306C279.632 218.866 279.936 224.289 280.154 229.519C280.154 229.521 280.154 229.524 280.154 229.526" fill="#658FD2"/>
<path d="M299.348 112.633L308.872 120.538L321.836 131.314C321.457 133.07 321.161 134.844 321.012 136.556C320.317 143.593 322.133 149.997 332.479 152.448C332.479 152.448 342.649 161.966 322.3 162.251C301.95 162.536 297.215 152.658 297.215 152.658C304.965 145.01 301.988 124.109 299.348 112.633Z" fill="#ECB28F"/>
<path d="M298.653 146.956C298.653 146.956 309.297 158.081 323.317 162.257C317.906 163.238 314.225 168.211 314.136 173.021C304.067 170.027 292.117 154.872 292.437 152.059C295.483 149.951 298.653 146.956 298.653 146.956" fill="white"/>
<path d="M327.827 150.091C327.827 150.091 337.335 158.081 323.317 162.257C328.728 163.238 332.35 166.02 334.198 171.963C341.8 162.895 337.433 153.701 335.756 151.421C332.063 151.109 327.827 150.091 327.827 150.091" fill="white"/>
<path d="M321.012 136.556C321.16 134.844 321.457 133.068 321.836 131.314L308.871 120.538C308.744 121.825 308.787 123.623 309.041 125.483C309.717 130.428 316.177 135.583 321.012 136.556" fill="#CA9A9C"/>
<path d="M334.256 77.4356C340.662 82.7157 339.493 103.223 333.366 101.339C327.239 99.4541 323.713 68.7426 334.256 77.4356Z" fill="#17282F"/>
<path d="M295.422 96.13C298.732 111.365 299.895 120.422 308.887 127.375C322.41 137.831 340.335 128.541 341.648 112.786C342.832 98.6024 337.217 76.0694 321.205 71.7566C305.427 67.5056 292.112 80.8947 295.422 96.13Z" fill="#ECB28F"/>
<path d="M300.498 106.58C302.96 103.545 303.136 95.7965 301.376 93.3318C304.016 91.2178 306.646 84.4423 304.603 81.7984C309.769 81.4477 336.474 87.8724 341.8 68.6771C339.033 69.5577 333.428 68.6771 333.428 68.6771C333.428 68.6771 338.858 59.6373 329.238 56.9375C327.831 61.5161 316.216 61.9786 310.468 61.7493C298.653 61.281 285.193 66.1989 290.643 75.3698C281.961 79.1256 280.553 95.8794 300.498 106.58" fill="#17282F"/>
<path d="M292.695 74.7532C292.695 74.7532 286.799 75.9846 287.945 68.4576C283.148 72.5949 286.229 80.1239 292.695 74.7532Z" fill="#17282F"/>
<path d="M292.944 110.255C295.177 113.188 298.443 114.932 301.304 115.437C305.606 116.195 306.915 112.232 305.013 108.386C303.299 104.923 298.997 100.356 295.017 101.343C291.097 102.316 290.388 106.9 292.944 110.255" fill="#ECB28F"/>
<path d="M301.816 101.206C301.816 101.206 304.456 110.679 309.588 116.755C314.719 122.829 319.782 124.02 325.308 123.916C330.834 123.812 329.991 116.168 329.991 116.168L332.7 115.551C332.7 115.551 332.421 124.961 337.801 120.981C338.975 120.112 340.094 117.339 340.826 115.164C341.388 113.495 341.712 111.762 341.8 110.003C343.11 112.078 343.593 121.297 341.584 125.691C340.177 128.774 336.403 131.426 332.964 132.517C327.214 134.336 318.859 134.247 312.719 131.815C302.887 127.919 301.464 118.48 301.112 113.082C300.759 107.685 299.265 101.206 299.265 101.206H301.816" fill="#17282F"/>
<path d="M321.492 97.5231C321.686 98.7718 322.506 99.7064 323.325 99.6081C324.145 99.5118 324.653 98.4192 324.461 97.1704C324.268 95.9198 323.448 94.9851 322.628 95.0834C321.809 95.1817 321.299 96.2724 321.492 97.5231Z" fill="#17282F"/>
<path d="M335.665 95.8371C335.858 97.0858 336.678 98.0204 337.498 97.9221C338.317 97.8258 338.825 96.7331 338.633 95.4844C338.44 94.2337 337.62 93.2991 336.801 93.3974C335.981 93.4957 335.473 94.5864 335.665 95.8371" fill="#17282F"/>
<path d="M331.347 96.3382C331.347 96.3382 334.321 102.401 337.266 105.249C335.519 107.118 332.219 106.475 332.219 106.475L331.347 96.3382" fill="#F46878"/>
<path d="M332.198 112.643C327.268 113.323 324.091 110.627 323.947 110.502L323.91 109.978L324.432 109.941C324.469 109.972 328.083 113.044 333.453 111.637C333.653 111.583 333.854 111.702 333.906 111.903C333.958 112.099 333.84 112.304 333.64 112.354C333.145 112.485 332.664 112.579 332.198 112.643" fill="#17282F"/>
<path d="M313.449 89.7802L313.119 89.6106C312.813 89.3389 312.786 88.8687 313.058 88.5623C315.752 85.533 319.148 86.0842 319.291 86.1092C319.678 86.1381 319.965 86.5621 319.893 86.9667C319.824 87.3695 319.441 87.6393 319.038 87.5699C318.898 87.5487 316.281 87.1691 314.167 89.549C313.98 89.759 313.705 89.838 313.449 89.7802" fill="#17282F"/>
<path d="M388.261 254.988C388.261 254.988 394.417 252.356 399.046 253.417C403.663 254.477 414.484 258.448 419.829 259.108C425.186 259.767 430.268 262.822 430.173 264.567C430.066 266.313 388.893 267.74 388.703 263.764C388.5 259.787 388.261 254.988 388.261 254.988Z" fill="#ECB28F"/>
<path d="M423.205 165.281C423.205 165.281 428.484 158.601 429.308 157.608C430.146 156.614 433.429 155.674 437.267 154.952C441.091 154.23 446.5 155.134 446.925 155.669C447.362 156.203 448.032 156.51 448.212 158.373C448.38 160.239 447.594 161.966 447.594 161.966C447.594 161.966 448.792 164.104 447.671 166.161C447.671 166.161 448.727 168.233 447.118 170.359C447.118 170.359 448.084 172.414 446.809 173.856C446.809 173.856 443.512 174.804 442.379 175.537C441.246 176.271 434.305 177.732 427.506 178.014C427.506 178.014 421.093 175.886 423.205 165.281" fill="#ECB28F"/>
<path d="M435.905 165.285L434.238 163.555L454.683 143.821L456.35 145.551L435.905 165.285Z" fill="#EB4747"/>
<path d="M454.685 143.819L458.527 141.781L456.353 145.548L454.685 143.819" fill="#ECB28F"/>
<path d="M445.919 155.814C445.919 155.814 436.231 157.903 436.269 159.652C436.308 161.399 437.287 161.965 437.287 161.965L433.564 164.803C433.564 164.803 432.005 168.166 435.715 168.892C435.715 168.892 433.976 171.881 437.648 172.107C437.648 172.107 437.274 174.607 438.936 175.044C440.611 175.48 446.808 173.854 446.808 173.854C446.808 173.854 448.006 172.868 447.117 170.357C447.117 170.357 448.753 168.416 447.684 166.16C447.684 166.16 448.792 164.39 447.594 161.965C447.594 161.965 449.784 157.822 446.937 155.667C446.937 155.667 446.318 155.723 445.919 155.814" fill="#ECB28F"/>
<path d="M429.608 157.506C429.608 157.506 435.981 159.544 438.957 162.368C439.624 163.005 440.162 163.765 439.842 164.719C439.534 165.673 437.905 166.448 435.084 165.722C432.275 164.996 428.287 165.49 428.287 165.49C428.287 165.49 425.645 163.802 429.608 157.506" fill="#ECB28F"/>
<path d="M336.533 155.465C340.477 153.413 353.64 157.909 357.529 163.964C366.571 178.037 383.637 195.428 383.637 195.428L421.726 163.409L429.352 182.494L384.159 220.599C380.298 223.845 374.623 223.647 371.009 220.138C359.137 208.606 334.692 184.359 332.809 178.301C330.322 170.273 329.003 159.386 336.533 155.465" fill="#17282F"/>
<path d="M326.036 147.614C326.036 147.614 351.106 156.723 354.859 162.432C358.598 168.14 356.176 219.512 354.034 237.888C351.905 256.263 346.01 295.87 347.447 301.222L289.11 314.066C289.11 314.066 270.387 245.916 269.855 235.033C269.323 224.15 255.577 173.482 262.19 169.38C268.777 165.276 297.493 149.219 297.493 149.219L318.506 150.309L326.036 147.614Z" fill="#EDDAD3"/>
<path d="M289.118 314.067L286.259 303.542L347.569 291.599L347.437 301.222L289.118 314.067" fill="#1F2136"/>
<path d="M319.622 296.495L334.147 293.461V304.968L319.622 308.358V296.495" fill="#4F558A"/>
<path d="M313.099 266.539C312.942 269.55 312.746 272.598 312.59 275.687L312.551 275.726C310.478 309.585 307.388 345.007 307.388 345.007C303.124 348.565 249.106 336.017 249.106 336.017C249.106 336.017 255.756 326.984 262.17 301.961C268.625 276.977 263.579 252.971 256.89 212.31C250.24 171.649 255.756 171.884 255.756 171.884L297.505 149.207C300.243 159.607 311.299 197.336 313.92 218.956C314.859 226.854 314.272 245.739 313.099 266.539" fill="#17282F"/>
<path d="M326.441 147.69C326.441 147.69 338.588 179.095 343.756 211.127C349.017 243.789 348.751 302.925 354.451 304.366C360.152 305.809 358.393 304.845 358.393 304.845C358.393 304.845 357.328 269.12 356.809 257.275C355.65 230.841 360.578 171.258 358.287 165.239C356.009 159.219 339.64 150.069 326.441 147.69" fill="#17282F"/>
<path d="M298.542 144.247C298.542 144.247 308.495 149.067 318.539 149.998L313.641 160.412L297.498 149.218L298.542 144.247Z" fill="#D6C5BF"/>
<path d="M318.541 149.997C318.541 149.997 325.541 147.674 325.489 144.247L326.446 147.687L323.588 158.673L318.541 149.997Z" fill="#D6C5BF"/>
<path d="M321.411 156.836C321.411 156.836 336.388 200.897 336.506 232.177C336.625 263.458 334.149 282.131 334.149 282.131L330.856 288.292L326.035 282.666C326.035 282.666 329.446 191.836 316.129 157.516C316.129 157.516 320.858 155.259 321.411 156.836Z" fill="#D44040"/>
<path d="M260.392 169.382C271.346 164.911 282.692 180.085 288.749 195.249C294.82 210.414 306.408 238.007 306.408 238.007L387.405 251.134L388.552 266.535H294.051C294.051 266.535 258.045 202.029 255.549 194.001C253.04 185.972 252.514 172.592 260.392 169.382Z" fill="#17282F"/>
<path d="M340.335 86.7434C340.105 86.8089 339.851 86.7646 339.655 86.6008C337.061 84.4444 334.396 85.1574 334.369 85.1652C333.975 85.275 333.566 85.0457 333.455 84.6506C333.345 84.2575 333.574 83.849 333.965 83.7372L333.969 83.7353C334.109 83.6968 337.417 82.8103 340.602 85.46C340.918 85.7221 340.96 86.1903 340.699 86.5044L340.335 86.7434Z" fill="#17282F"/>
<path d="M203.479 543.578H196.446V275.223H203.479V543.578Z" fill="#794018"/>
<path d="M161.979 543.578H154.942V275.223H161.979V543.578Z" fill="#794018"/>
<path d="M154.943 543.578H161.979V432.198H154.943V480.969V481.45V543.578" fill="#5A3114"/>
<path d="M602.841 543.578H595.807V275.223H602.841V543.578Z" fill="#794018"/>
<path d="M595.807 455.525L602.841 439.793V432.198H595.807V455.525Z" fill="#5A3114"/>
<path d="M644.342 543.578H637.31V275.223H644.342V543.578Z" fill="#794018"/>
<path d="M644.342 432.198H196.446V275.222H644.342V432.198Z" fill="#794018"/>
<path d="M648.832 275.222H196.446V263.766H648.832V275.222Z" fill="#794018"/>
<path d="M196.446 432.198H154.942V275.222H196.446V432.198Z" fill="#794018"/>
<path d="M154.943 432.198H196.446V283.206H154.943V339.798V355.434V394.542V395.023V432.198" fill="#663C1E"/>
<path d="M196.446 275.222H150.454V263.766H196.446V275.222Z" fill="#794018"/>
<path d="M150.455 275.222H196.446V263.766H150.455V275.222Z" fill="#5A3114"/>
<path d="M644.342 283.207H196.446V275.223H644.342V283.207Z" fill="#5A3114"/>
<path d="M196.446 283.207H154.942V275.223H196.446V283.207Z" fill="#5A3114"/>
<path d="M463.624 232.886H630.084C636.421 232.886 641.843 227.696 642.13 221.355L646.53 124.541C646.819 118.199 641.87 113.01 635.533 113.01H469.073C462.736 113.01 457.316 118.199 457.027 124.541L452.627 221.355C452.338 227.696 457.289 232.886 463.624 232.886" fill="#4DC0C0"/>
<path d="M465.862 232.886H632.32C638.657 232.886 644.077 227.696 644.366 221.355L648.766 124.541C649.055 118.199 644.106 113.01 637.769 113.01H471.309C464.972 113.01 459.552 118.199 459.263 124.541L454.863 221.355C454.574 227.696 459.525 232.886 465.862 232.886" fill="#4DC0C0"/>
<path d="M465.861 232.886H534.129V179.009L532.533 168.137H566.923L576.437 232.886H601.27H630.296H632.319C633.656 232.886 634.95 232.655 636.165 232.233C640.713 230.649 644.138 226.361 644.365 221.355L644.387 220.882L648.765 124.541C648.773 124.368 648.779 124.194 648.779 124.023C648.783 117.92 643.932 113.01 637.769 113.01H471.308C464.971 113.01 459.551 118.199 459.262 124.541L454.862 221.355C454.855 221.528 454.851 221.701 454.851 221.873C454.845 227.978 459.697 232.886 465.861 232.886" fill="#2B3E3C"/>
<path d="M565.921 232.886H534.129V174.386H565.921V232.886Z" fill="#4DC0C0"/>
<path d="M546.724 198.488L548.996 213.924C549.343 216.296 551.365 218.048 553.752 218.048H558.932C561.878 218.048 564.131 215.429 563.707 212.517L561.435 197.081C561.088 194.713 559.067 192.958 556.679 192.958H551.499C548.553 192.958 546.3 195.58 546.724 198.488ZM566.923 168.137L580.96 263.661H546.57L532.533 168.137H566.923" fill="#4DC0C0"/>
<path d="M545.544 256.687H579.936L566.923 168.137H532.533L534.129 179.009L542.047 232.886L545.544 256.687ZM563.759 213.226C563.755 215.839 561.635 218.048 558.932 218.048H553.752C551.365 218.048 549.343 216.296 548.996 213.924L546.724 198.488C546.689 198.251 546.672 198.014 546.672 197.781C546.674 195.168 548.794 192.957 551.499 192.957H556.679C559.067 192.957 561.088 194.713 561.435 197.081L563.707 212.517C563.742 212.756 563.759 212.993 563.759 213.226Z" fill="#2B3E3C"/>
<path d="M526.972 256.687H587.154L594.544 263.694H510.959L526.972 256.687Z" fill="#4DC0C0"/>
<path d="M510.959 263.694H594.544L587.154 256.687H526.972L510.959 263.694Z" fill="#2B3E3C"/>
<path d="M188.732 254.844V230.106C184.684 230.106 181.265 235.772 181.265 242.476C181.265 249.18 184.684 254.844 188.732 254.844ZM188.732 225.88V223.281C188.732 222.125 189.67 221.186 190.827 221.186H216.752C217.909 221.186 218.847 222.125 218.847 223.281V263.764H188.732V259.072C182.177 259.072 177.042 251.782 177.042 242.476C177.042 233.17 182.177 225.88 188.732 225.88Z" fill="#007979"/>
<path d="M188.732 263.764H218.847V223.281C218.847 222.125 217.909 221.186 216.752 221.186H190.827C189.67 221.186 188.732 222.125 188.732 223.281V225.88C182.177 225.88 177.042 233.17 177.042 242.476C177.042 251.782 182.177 259.072 188.732 259.072H192.159L188.732 260.662V263.764M188.732 254.844C184.684 254.844 181.265 249.18 181.265 242.476C181.265 235.772 184.684 230.106 188.732 230.106H192.159L188.732 239.618V254.844" fill="#00ADAB"/>
<path d="M188.732 260.662L192.159 259.072H188.732V260.662Z" fill="#007979"/>
</g>
<defs>
<clipPath id="clip0_84_2925">
<rect width="765" height="568" fill="white" transform="matrix(-1 0 0 1 765 0)"/>
</clipPath>
</defs>
</svg>
