<svg width="595" height="581" viewBox="0 0 595 581" fill="none" xmlns="http://www.w3.org/2000/svg">
<path d="M309.688 581C271.326 581 232.957 580.447 194.606 579.339C155.977 578.224 117.358 576.547 78.7603 574.308C76.8518 574.197 74.6252 574.164 72.1551 574.164C70.2982 574.164 68.3034 574.183 66.2036 574.202C64.1007 574.22 61.8933 574.24 59.6102 574.24C37.3816 574.24 8.11706 572.451 1.21605 551.456C0.440507 549.094 0.226731 546.533 0.793477 543.779C2.8442 533.814 12.5752 532.749 20.6998 532.749C21.8041 532.749 22.8804 532.768 23.9021 532.789C24.9243 532.808 25.8938 532.828 26.7868 532.828C27.3603 532.828 27.9022 532.82 28.4068 532.798C31.3934 532.67 34.7572 531.831 36.3419 528.675C37.6575 526.056 37.2933 522.589 36.2381 519.792C32.4151 509.662 22.0788 507.116 13.3191 504.625C5.55303 502.418 -6.47045 490.066 4.2474 480.928C7.97723 477.747 12.7871 477.535 17.3062 477.434C75.1584 477.434 133.091 474.838 190.935 473.541C208.437 473.149 225.86 473 243.254 473C282.518 473 321.622 473.76 361.057 474.2C364.73 474.241 369.344 475.115 370.366 479.51C372.157 487.211 360.493 491.093 360.966 499.09C361.313 504.937 367.498 506.599 372.213 506.599C372.227 506.599 372.24 506.599 372.255 506.599C415.95 506.511 459.689 502.787 503.345 502.787C521.159 502.787 538.964 503.408 556.741 505.148C568.045 506.256 580.3 508.375 588.242 518.468C611.502 548.035 568.455 560.872 553.46 565.1C514 581.486 467.378 578.091 426.423 579.291C387.515 580.43 348.605 581 309.688 581Z" fill="#F0F2F3"/>
<path d="M437.602 210.97C438.414 208.153 439.227 205.339 439.902 202.485C439.206 200.82 438.505 199.159 437.803 197.496C438.391 194.977 438.908 192.436 439.542 189.931C440.313 189.918 443.594 190.116 443.723 190.879C443.999 192.512 443.753 193.729 444.84 195.048C446.635 193.096 447.825 191.054 448.737 188.513C449.533 186.298 449.879 183.673 452.812 185.179C453.599 185.583 454.223 186.435 454.669 187.297C455.797 189.474 456.289 191.816 456.02 194.286C455.808 196.234 455.196 197.989 455.486 199.973C455.533 200.299 455.716 200.489 455.567 200.935C455.206 202.015 453.354 203.63 452.667 204.351C451.98 205.073 450.753 206.617 450.603 206.94C449.188 209.997 448.115 212.232 446.643 214.958C443.635 213.622 440.585 212.366 437.602 210.97Z" fill="#EACDB0"/>
<path d="M419.468 241.085C422.392 237.481 424.067 232.493 426.089 228.205C429.683 220.579 433.437 214.188 438.02 207.314C439.334 207.596 456.055 214.513 456.115 214.323C452.293 226.543 448.472 238.763 444.65 250.983C443.285 255.351 441.858 259.834 438.978 263.39C430.622 273.707 415.34 277.469 402.969 280.636C389.112 284.182 374.624 286.011 360.317 285.172C357.121 284.984 354.455 284.065 351.707 282.986C344.682 280.231 342.744 273.202 343.32 265.891C343.674 261.388 345.842 256.848 349.712 254.52C352.989 252.548 356.997 252.361 360.817 252.165C378.026 251.283 395.169 249.129 412.061 245.727C415.291 245.076 417.627 243.356 419.468 241.085Z" fill="#CE8D95"/>
<path d="M368.804 520.78C368.544 526.761 367.169 532.025 370.609 537.191C371.344 538.294 372.177 539.382 373.32 540.055C373.995 540.452 374.754 540.689 375.426 541.088C376.023 541.443 376.54 541.919 377.135 542.275C379.635 543.771 382.837 542.888 385.549 541.819C386.89 541.291 388.452 540.372 388.363 538.933C388.315 538.161 387.779 537.522 387.304 536.911C385.702 534.857 384.521 532.477 383.85 529.96C383.606 529.04 376.926 517.118 377.388 516.91L368.804 520.78Z" fill="#3A3029"/>
<path d="M401.241 368.811L397.783 441.931L383.268 524.155L367.569 524.287L362.134 444.101L349.098 383.488L401.241 368.811Z" fill="#4E4E4E"/>
<path d="M297.817 509.833C298.321 511.234 299.03 512.56 299.822 513.822C302.185 517.582 305.329 520.841 308.992 523.325C309.667 523.784 310.398 524.229 311.21 524.282C313.271 524.42 314.627 522.069 314.859 520.001C315.343 515.7 313.345 511.642 313.178 507.388C313.031 503.653 313.459 503.017 310.491 500.743C309.695 500.133 302.495 494.581 302.84 494.015C299.788 499.03 295.666 501.653 297.419 508.54C297.531 508.977 297.665 509.409 297.817 509.833Z" fill="#3A3029"/>
<path d="M314.721 506.277C314.428 506.619 314.135 506.96 313.842 507.301C313.585 507.599 313.311 507.91 312.98 508.004C312.482 508.148 312.02 507.766 311.624 507.399C307.574 503.654 303.673 499.656 299.936 495.421C305.314 482.701 310.692 469.983 316.07 457.264C317.232 454.514 318.414 451.697 318.825 448.667C319.358 444.742 318.551 440.86 317.809 437.1C315.815 426.996 314.247 416.72 313.115 406.329C312.365 399.445 311.831 392.215 313.714 385.47C315.23 380.037 318.194 375.376 320.119 370.131C320.977 367.791 321.694 365.22 323.253 363.554C325.061 361.621 326.167 362.799 327.852 363.297C329.869 363.893 332.065 364.661 334.579 364.829C340.641 365.234 346.688 365.788 352.718 366.487C355.021 366.755 362.595 366.098 364.164 368.082C365.751 370.088 364.015 379.369 363.822 382.293C362.423 403.561 360.35 424.813 357.611 445.978C357.416 447.48 357.216 448.994 356.769 450.424C356.291 451.949 355.548 453.329 354.795 454.677C351.765 460.101 348.458 465.282 344.905 470.17C340.296 476.51 335.285 482.343 330.282 488.167C325.095 494.204 319.908 500.241 314.721 506.277Z" fill="#4E4E4E"/>
<path d="M323.811 207.155C322.499 205.477 321.614 203.472 321.282 201.366C321.012 199.657 320.839 197.639 322.105 196.457C323.04 195.584 324.508 195.5 325.718 195.917C326.833 196.3 327.79 197.067 328.739 197.728C331.078 194.933 330.307 188.988 332.051 185.519C333.248 183.139 335.176 181.142 337.111 179.216C338.38 177.953 339.692 176.685 341.314 175.836C347.539 172.576 355.258 172.725 361.724 175.134C375.428 180.24 374.977 195.379 377.064 207.389C378.724 216.948 378.565 226.49 368.104 231.058C365.424 232.227 362.412 234.139 361.145 236.843C360.457 238.312 360.2 239.932 359.995 241.53C359.842 242.721 359.693 243.973 358.979 244.953C357.738 246.659 355.307 246.938 353.175 247.061C350.578 247.212 347.562 247.193 345.931 245.227C343.846 242.713 344.555 238.635 342.898 235.815C341.528 233.484 339.382 232.103 337.629 230.184C335.829 228.212 334.211 225.998 332.4 224.003C330.015 221.373 327.666 218.382 328 214.667C328.117 213.355 328.471 211.905 327.738 210.812C327.379 210.276 326.812 209.924 326.289 209.546C325.352 208.868 324.52 208.059 323.811 207.155Z" fill="#EACDB0"/>
<path d="M321.216 178.779C323.66 175.009 327.007 171.768 330.853 169.352C333.882 167.45 337.105 165.712 340.629 165.102C342.918 164.705 346.429 165.271 350.144 165.838C357.057 166.891 364.678 167.945 366.451 162.796C367.467 159.844 372.223 158.99 374.229 161.399C374.826 162.118 375.174 163.007 375.787 163.713C376.4 164.418 377.456 164.92 378.312 164.499C379.437 163.946 379.421 162.282 380.425 161.543C381.673 160.623 383.543 161.853 383.911 163.317C384.123 164.159 383.71 165.122 383.907 165.892C384.058 166.481 384.506 166.705 384.703 167.263C385.146 168.52 385.618 169.577 384.81 170.868C384.487 171.381 384.026 171.811 383.764 172.354C383.261 173.4 383.593 174.611 383.644 175.758C383.756 178.282 382.45 180.621 380.798 182.65C381.68 185.107 382.313 187.695 382.136 190.15C381.841 194.236 378.773 198.883 377.155 202.624C376.357 201.473 376.145 200.031 375.787 198.676C375.029 195.811 373.519 193.147 371.45 191.027C370.432 189.983 369.287 189.061 368.344 187.952C368.18 187.993 368.015 188.034 367.858 188.078C366.869 188.352 365.854 188.629 364.829 188.557C362.8 188.413 360.775 188.462 358.724 188.51C357.253 188.545 355.769 188.58 354.263 188.544C350.535 188.454 346.714 188.472 343.208 189.74C339.701 191.007 336.517 193.769 335.735 197.415C335.383 199.054 335.42 200.996 334.122 202.057C331.648 204.08 329.935 202.389 328.283 200.698C326.915 199.298 325.588 197.898 323.904 198.606C321.187 199.748 323.148 204.14 324.305 205.841C325.332 207.351 326.748 208.567 327.75 210.092C328.753 211.619 329.287 213.679 328.357 215.25C328.137 215.621 327.795 215.972 327.365 215.989C326.855 216.008 326.462 215.564 326.153 215.156C321.821 209.434 318.186 202.943 317.194 195.834C316.335 189.677 317.987 183.765 321.216 178.779Z" fill="#3A3029"/>
<path d="M404.453 358.269C403.783 349.737 402.805 341.223 402.208 332.66C401.612 324.131 400.806 315.618 399.712 307.147C397.379 289.083 393.519 271.251 382.329 256.597C379.882 253.391 377.248 249.95 373.77 247.797C371.409 246.334 367.712 246.052 365.813 243.975C364.444 242.478 364.448 239.606 364.888 237.712C358.098 237.596 350.713 237.7 343.695 237.327C338.19 237.037 339.289 239.855 337.176 243.532C334.91 247.479 329.244 249.436 326.05 252.411C323.088 255.169 320.938 258.805 319.09 262.534C316.049 268.674 313.704 275.231 312.297 282.031C310.941 288.58 310.461 295.301 310.081 302C308.765 325.194 308.604 348.467 309.601 371.681C309.776 375.756 309.372 381.493 310.867 385.299C312.392 389.177 316.721 388.63 320.575 389.209C329.574 390.563 338.658 391.25 347.743 391.272C365.914 391.317 384.093 388.706 401.611 383.468C402.596 383.174 403.639 382.83 404.293 381.981C405.012 381.049 405.09 379.737 405.125 378.521C405.317 371.739 404.981 364.998 404.453 358.269Z" fill="#CE8D95"/>
<path d="M377.209 208.269C377.162 207.975 377.113 207.682 377.062 207.388C376.587 204.655 376.243 201.758 375.834 198.856C376.166 200.158 376.393 201.523 377.156 202.624C377.34 202.196 377.544 201.757 377.761 201.308C378.288 202.466 378.565 203.764 378.441 205.079C378.303 206.529 377.815 207.55 377.209 208.269Z" fill="#DDF1FA"/>
<path d="M373.046 210.062C371.012 210.062 368.955 209.106 367.744 207.426C366.799 206.114 365.988 203.814 367.545 200.469C368.458 198.508 370.329 197.028 372.353 197.028C372.398 197.028 372.443 197.028 372.488 197.029C373.116 197.05 373.757 197.215 374.388 197.551C374.855 197.801 375.316 198.131 375.748 198.526C375.762 198.575 375.775 198.625 375.788 198.675C375.804 198.735 375.82 198.795 375.835 198.856C376.244 201.758 376.588 204.654 377.063 207.388C377.114 207.682 377.163 207.975 377.21 208.268C376.479 209.136 375.577 209.565 374.917 209.776C374.313 209.969 373.681 210.062 373.046 210.062Z" fill="#CBC8B8"/>
<path d="M377.157 202.625C376.394 201.524 376.167 200.159 375.835 198.857C375.82 198.796 375.804 198.736 375.788 198.676C375.775 198.626 375.762 198.576 375.748 198.527C376.555 199.263 377.268 200.224 377.762 201.309C377.545 201.758 377.341 202.197 377.157 202.625Z" fill="#374447"/>
<path d="M353.234 211.478C350.534 211.478 347.824 210.394 346.24 208.472C344.984 206.948 343.933 204.267 346.122 200.365C347.398 198.092 349.94 196.388 352.647 196.388C352.717 196.388 352.786 196.388 352.856 196.391C353.696 196.418 354.549 196.612 355.383 197.003C358.375 198.409 361.072 201.985 360.61 205.672C360.147 209.357 357.452 210.662 355.838 211.122C354.998 211.362 354.116 211.478 353.234 211.478Z" fill="#CBC8B8"/>
<path d="M360.607 205.672C360.144 209.357 357.45 210.662 355.835 211.122C352.422 212.097 348.34 211.021 346.238 208.472C344.981 206.948 343.93 204.267 346.12 200.365C347.428 198.033 350.069 196.3 352.853 196.391C353.693 196.418 354.546 196.611 355.381 197.003C358.373 198.409 361.07 201.985 360.607 205.672ZM355.618 196.354C351.647 194.469 347.286 196.633 345.406 199.958C343.525 203.285 343.594 206.523 345.609 208.953C347.503 211.237 350.844 212.434 354.016 212.189C354.7 212.136 355.376 212.017 356.028 211.827C359.018 210.957 360.888 208.761 361.257 205.797C361.756 201.781 358.851 197.888 355.618 196.354Z" fill="#333333"/>
<path d="M378.441 205.079C378.138 208.279 376.122 209.39 374.916 209.776C372.376 210.589 369.331 209.63 367.743 207.426C366.797 206.114 365.987 203.814 367.544 200.469C368.477 198.465 370.411 196.963 372.487 197.03C373.115 197.05 373.756 197.215 374.387 197.551C376.657 198.762 378.745 201.872 378.441 205.079ZM374.556 196.987C371.561 195.375 368.354 197.259 367.012 200.122C365.676 202.973 365.773 205.745 367.287 207.836C368.715 209.807 371.207 210.864 373.567 210.683C374.078 210.643 374.583 210.546 375.069 210.388C377.307 209.659 378.694 207.767 378.935 205.19C379.263 201.695 377.012 198.31 374.556 196.987Z" fill="#333333"/>
<path d="M366.312 203.612C365.771 202.662 364.758 202.258 363.79 202.364C362.909 202.462 361.419 203.135 361.169 204.15C361.13 204.308 361.272 204.456 361.412 204.456C362.121 204.458 362.634 203.789 363.264 203.534C364.078 203.204 364.999 203.285 365.551 204.15C365.907 204.709 366.64 204.187 366.312 203.612Z" fill="black"/>
<path d="M572.268 345.42H574.861C585.922 345.42 594.89 336.459 594.89 325.405C594.89 314.352 585.922 305.391 574.861 305.391H569.978C581.041 305.391 590.007 296.43 590.007 285.376C590.007 274.323 580.291 265.362 569.229 265.362H554.248H529.861C517.921 259.991 514.054 250.554 513.603 240.208C513.257 232.27 514.918 223.799 516.477 216.223C518.512 206.339 519.572 196.007 516.388 186.363C513.205 176.718 505.019 167.85 493.952 165.512C490.486 164.78 486.697 164.73 483.496 166.113C478.327 168.347 475.88 173.803 475.75 178.882C475.62 183.961 477.315 188.919 478.23 193.935C479.54 201.108 479.22 208.606 476.438 215.445C471.044 228.704 457.441 237.743 444.827 246.375C437.747 251.222 430.987 256.557 424.627 262.279C422.05 264.598 421.209 266.43 419.917 269.757C419.513 270.799 418.254 275.848 416.695 275.848C416.181 275.848 360.504 275.848 360.504 275.848V399.864C369.462 399.864 378.42 399.864 387.378 399.864C398.287 399.864 413.384 396.643 421.479 405.405C423.313 407.389 424.823 409.72 427.028 411.28C434.062 416.261 447.332 413.791 455.374 413.775C488.332 413.711 521.29 413.704 554.248 413.704H565.844C573.652 413.704 579.982 407.378 579.982 399.576C579.982 391.774 573.652 385.448 565.844 385.448H571.478H572.268C583.33 385.448 592.297 376.488 592.297 365.433C592.297 354.38 583.33 345.42 572.268 345.42Z" fill="#B0DAED"/>
<path d="M403.871 414.314H354.553C352.651 414.314 351.109 412.773 351.109 410.871V249.372C351.109 247.47 352.651 245.928 354.553 245.928H403.871C405.773 245.928 407.315 247.47 407.315 249.372V410.871C407.315 412.773 405.773 414.314 403.871 414.314Z" fill="#3C5D84"/>
<path d="M371.41 300.993L379.098 298.066L381.728 294.074L388.112 291.644C388.112 291.644 390.012 295.138 389.515 295.33C388.363 295.775 387.385 296.866 387.067 298.006C389.417 298.815 393.941 298.404 395.919 296.91C397.808 295.484 400.013 297.001 399.625 299.353C399.461 300.344 398.908 301.225 398.323 302.043C396.775 304.21 394.933 306.148 393.1 308.08C392.512 308.699 391.869 309.348 391.034 309.521C390.497 309.631 389.944 309.528 389.406 309.426C386.131 308.804 382.809 307.773 379.55 308.244C377.296 308.569 374.986 309.268 372.73 309.706L371.41 300.993Z" fill="#EACDB0"/>
<path d="M336.845 297.152C340.16 299.877 346.508 298.751 350.428 298.505C352.724 298.36 373.598 294.409 374.146 295.401C375.899 298.482 377.009 301.943 377.366 305.471C377.827 310.03 377.456 310.194 373.525 311.865C366.952 314.658 359.633 316.384 352.706 318.052C344.246 320.088 336.14 323.418 327.678 325.49C320.94 327.14 306.637 331.22 303.32 322.284C302.319 319.588 302.485 316.615 302.747 313.75C303.565 304.837 305.188 295.998 307.592 287.376C308.724 283.311 310.08 279.2 312.681 275.878C318.648 268.258 334.089 268.038 336.567 279.125C337.973 285.409 331.445 291.493 336.338 296.68C336.497 296.848 336.667 297.006 336.845 297.152Z" fill="#CE8D95"/>
<path d="M250.024 135.384L252.011 135.292C260.482 134.898 267.035 127.709 266.639 119.234C266.251 110.76 259.063 104.209 250.585 104.603L246.845 104.777C255.32 104.383 261.87 97.1929 261.475 88.7191C261.079 80.2445 253.32 73.7201 244.845 74.114L233.367 74.6467L214.684 75.5152C205.346 71.8218 202.046 64.7236 201.332 56.8081C200.785 50.735 201.756 44.1811 202.681 38.3174C203.887 30.6671 204.331 22.7081 201.549 15.4277C198.766 8.14648 192.179 1.63913 183.617 0.239494C180.936 -0.197845 178.03 -0.100917 175.628 1.07307C171.748 2.96976 170.067 7.24003 170.148 11.1396C170.229 15.0377 171.705 18.7783 172.585 22.591C173.844 28.0446 173.865 33.8037 171.978 39.1463C168.318 49.5036 158.218 56.9174 148.863 63.9854C143.611 67.9525 138.621 72.2832 133.953 76.897C132.061 78.7673 131.483 80.2003 130.611 82.7979C130.338 83.6106 129.554 87.5257 128.36 87.5823C127.966 87.6001 85.3105 89.5821 85.3105 89.5821L89.7281 184.663C96.5914 184.344 103.454 184.025 110.317 183.706C118.675 183.318 130.125 180.311 136.64 186.741C138.115 188.196 139.356 189.93 141.1 191.048C146.666 194.616 156.745 192.25 162.905 191.951C188.152 190.729 213.402 189.55 238.652 188.376L247.535 187.964C253.517 187.685 258.141 182.612 257.861 176.63C257.582 170.648 252.511 166.024 246.529 166.302L250.845 166.102L251.45 166.073C259.924 165.68 266.476 158.49 266.081 150.015C265.685 141.541 258.497 134.99 250.024 135.384Z" fill="#F1CA62"/>
<path d="M114.794 196.683L81.8576 198.214C79.9431 198.303 78.3201 196.824 78.2309 194.91L73.0038 82.4008C72.9147 80.487 74.3941 78.8641 76.3079 78.7741L109.245 77.2442C111.158 77.155 112.782 78.6353 112.871 80.5483L118.099 193.057C118.188 194.971 116.708 196.595 114.794 196.683Z" fill="#E5B13C"/>
<path d="M127.422 204.91C127.405 204.009 127.402 203.109 127.385 202.222C127.357 200.75 127.329 199.279 127.3 197.807C127.3 193.691 126.745 190.836 125.364 186.949C125.228 186.568 125.084 186.173 124.791 185.894C124.085 185.219 122.936 185.526 122.023 185.874C121.619 184.859 121.205 183.829 120.524 182.974C119.843 182.121 118.842 181.454 117.75 181.439C115.938 181.413 114.531 183.181 114.216 184.966C114 186.188 114.103 187.582 113.273 188.505C113.024 188.783 112.699 189.001 112.519 189.327C112.33 189.668 112.326 190.075 112.325 190.464C112.323 192.045 112.322 193.626 112.32 195.207C112.32 195.71 112.324 196.234 112.548 196.685C112.782 197.155 113.224 197.482 113.622 197.826C117.726 201.366 118.752 210.048 119.627 215.132C119.691 215.504 119.764 215.906 120.054 216.165C120.331 216.412 120.74 216.469 121.123 216.512C123.891 216.829 129.03 217.925 129.07 213.988C129.086 212.419 127.976 210.575 127.726 208.991C127.516 207.654 127.451 206.281 127.422 204.91Z" fill="#E9DCD4"/>
<path d="M176.421 295.114C175.372 297.408 174.246 299.495 173.087 301.244C171.505 303.633 168.745 305.466 165.901 305.11C162.58 304.694 160.338 301.637 158.378 298.924C153.979 292.835 148.975 287.184 143.465 282.078C129.454 269.098 119.834 260.805 116.483 241.235C115.64 236.312 116.145 230.898 116.027 225.862C115.903 220.586 116.398 215.363 115.887 210.064C115.846 209.633 115.805 209.171 116.012 208.789C116.282 208.285 116.888 208.079 117.44 207.929C120.336 207.144 126.229 205.485 129.139 206.701C132.453 208.087 132.283 211.739 133.184 215.386C133.689 217.436 137.965 238.189 138.811 238.189C141.726 249.997 148.65 256.95 160.753 259.123C166.381 260.133 171.956 260.321 177.655 260.318C182.588 260.316 182.33 264.15 182.549 268.577C182.921 276.07 180.168 286.915 176.421 295.114Z" fill="#B3B8E2"/>
<path d="M254.821 186.423L254.87 186.435C255.861 186.676 256.8 185.791 257.172 184.841C257.947 182.854 258.203 181.541 257.141 179.722C256.185 178.092 254.799 176.563 254.642 174.595C254.407 171.645 257.366 170.779 259.614 170.934C260.405 170.988 261.196 171.043 261.987 171.098C262.569 171.138 263.158 171.18 263.716 171.361C264.957 171.767 265.872 172.816 266.648 173.866C268.144 175.876 269.4 178.065 270.37 180.371C270.494 180.653 270.61 180.967 270.517 181.257C270.424 181.521 270.183 181.697 269.974 181.873C266.143 185.015 267.167 191.7 267.446 195.981C267.469 196.358 267.493 196.766 267.268 197.086C267.059 197.39 266.678 197.54 266.314 197.672C263.685 198.632 259.653 200.449 257.358 197.859C257.04 197.495 256.927 197.013 256.823 196.549C256.525 195.259 256.46 193.439 255.815 192.279C255.06 190.923 253.429 190.358 252.621 189.072C252.071 188.197 249.597 185.547 250.85 184.552C251.33 184.17 252.052 184.205 252.579 184.521C253.429 185.031 253.875 186.159 254.821 186.423Z" fill="#E9DCD4"/>
<path d="M251.543 276.228C254.865 273.401 258.265 270.659 261.723 268.007C265.383 265.209 269.121 261.564 270.245 256.913C271.633 251.169 270.803 244.2 270.974 238.306C271.369 224.641 271.827 210.977 272.16 197.311C272.168 196.913 257.52 197.11 256.098 197.429C250.927 198.594 250.734 201.146 249.7 206.207C247.137 218.752 245.256 231.446 243.992 244.186C243.86 245.532 243.716 246.931 243.011 248.085C242.315 249.227 241.154 249.991 240.032 250.717C232.17 255.8 223.075 264.21 213.131 263.785C212.197 263.745 211.079 263.719 210.544 264.486C210.292 264.849 210.24 265.314 210.238 265.756C210.232 267.922 211.231 269.947 212.206 271.881C216.494 280.378 220.78 288.874 225.067 297.37C225.292 297.815 225.532 298.278 225.938 298.567C227.149 299.424 228.731 298.243 229.738 297.152C236.58 289.751 243.866 282.761 251.543 276.228Z" fill="#B3B8E2"/>
<path d="M172.189 209.965C171.792 211.919 171.559 214.034 171.364 216.01C171.145 218.247 171.702 220.53 170.978 222.714C170.517 224.108 169.582 225.287 168.863 226.566C166.553 230.668 166.568 235.984 168.902 240.072C169.703 241.476 170.753 242.739 171.419 244.211C172.531 246.665 172.458 249.392 172.622 252.022C172.797 254.811 173.89 256.946 174.399 259.587C175.122 263.334 174.353 267.215 173.194 270.85C172.924 271.695 172.629 272.573 172.759 273.45C172.955 274.77 174.202 275.32 175.388 275.5C189.913 277.704 204.602 277.375 219.228 277.043C218.08 277.069 219.269 266.52 219.441 265.682C220.3 261.498 221.614 257.408 223.357 253.507C224.257 251.495 225.288 249.469 225.438 247.269C225.652 244.147 224.082 240.846 225.359 237.989C226.496 235.442 229.086 233.675 229.527 230.759C230.019 227.511 227.968 223.979 226.363 221.326C225.04 219.139 223.583 216.942 222.793 214.49C222.118 212.4 222.318 210.521 221.393 208.5C219.503 204.367 216.388 200.704 212.848 197.89C211.52 196.833 210.101 195.867 208.528 195.232C206.654 194.475 204.617 194.212 202.598 194.113C198.018 193.889 193.493 194.475 188.974 194.763C184.229 195.065 179.477 197.716 176.408 201.277C174.282 203.744 172.837 206.775 172.189 209.965Z" fill="#CE732E"/>
<path d="M225.767 225.222C224.917 223.698 223.182 222.646 221.446 222.819C220.522 222.91 219.786 223.216 219.199 223.672C218.899 220.766 218.291 217.884 217.362 215.091C216.735 213.211 215.966 211.342 214.714 209.807C213.62 208.466 212.197 207.43 210.698 206.567C205.602 203.632 199.433 202.61 193.662 203.742C185.553 205.334 180.694 209.743 178.308 216.238C177.488 218.471 176.96 220.951 176.692 223.647C176.682 223.758 176.671 223.871 176.661 223.983C176.183 223.754 175.631 223.609 174.994 223.565C173.253 223.448 171.553 224.556 170.753 226.106C169.952 227.656 169.989 229.558 170.632 231.179C171.277 232.801 172.48 234.157 173.875 235.204C174.724 235.84 175.714 236.38 176.752 236.483C177.57 242.762 179.818 248.808 184.806 252.449C188.249 254.961 188.25 255.956 188.263 260.44C188.27 262.745 188.725 265.339 190.619 266.652C191.618 267.344 192.865 267.559 194.073 267.692C195.723 267.874 197.386 267.934 199.045 267.871C200.321 267.824 201.68 267.671 202.67 266.866C204.2 265.622 204.287 263.356 204.228 261.385C204.063 255.983 204.117 256.646 208.113 253.939C210.713 252.178 212.69 249.775 214.268 247.081C216.368 243.494 217.816 239.613 218.63 235.615C218.871 235.735 219.141 235.795 219.411 235.815C220.704 235.909 221.927 235.225 222.939 234.414C224.299 233.323 225.459 231.93 226.05 230.288C226.641 228.647 226.617 226.745 225.767 225.222Z" fill="#E9DCD4"/>
<path d="M185.174 235.196C184.746 235.18 184.72 235.846 185.15 235.861C185.578 235.877 185.603 235.212 185.174 235.196Z" fill="#6C4E28"/>
<path d="M182.377 238.647C181.949 238.631 181.923 239.297 182.352 239.312C182.781 239.328 182.807 238.663 182.377 238.647Z" fill="#6C4E28"/>
<path d="M191.176 238.087L191.172 238.198C191.156 238.626 191.822 238.652 191.837 238.223L191.841 238.112C191.858 237.683 191.192 237.658 191.176 238.087Z" fill="#6C4E28"/>
<path d="M197.801 236.224C197.373 236.209 197.347 236.874 197.776 236.89C198.205 236.906 198.23 236.241 197.801 236.224Z" fill="#6C4E28"/>
<path d="M200.426 237.322C199.998 237.306 199.972 237.972 200.401 237.988C200.83 238.004 200.855 237.338 200.426 237.322Z" fill="#6C4E28"/>
<path d="M210.175 238.132L210.17 238.243C210.154 238.671 210.82 238.697 210.836 238.267L210.84 238.156C210.857 237.728 210.19 237.702 210.175 238.132Z" fill="#6C4E28"/>
<path d="M213.598 235.705C213.169 235.688 213.144 236.354 213.573 236.371C214.001 236.386 214.027 235.721 213.598 235.705Z" fill="#6C4E28"/>
<path d="M208.613 235.296C208.185 235.279 208.16 235.945 208.588 235.962C209.017 235.978 209.042 235.312 208.613 235.296Z" fill="#6C4E28"/>
<path d="M206.768 237.116C206.34 237.1 206.314 237.766 206.743 237.782C207.172 237.797 207.197 237.132 206.768 237.116Z" fill="#6C4E28"/>
<path d="M211.26 235.839L211.148 235.835C210.72 235.818 210.695 236.484 211.124 236.501L211.235 236.505C211.663 236.52 211.689 235.854 211.26 235.839Z" fill="#6C4E28"/>
<path d="M185.74 237.884L185.629 237.88C185.367 237.87 185.258 238.115 185.309 238.311C185.257 238.417 185.258 238.548 185.364 238.662L185.471 238.776C185.743 239.07 186.177 238.697 186 238.39C186.107 238.197 186.028 237.894 185.74 237.884Z" fill="#6C4E28"/>
<path d="M182.801 236.218C182.373 236.203 182.347 236.868 182.776 236.884C183.205 236.9 183.23 236.235 182.801 236.218Z" fill="#6C4E28"/>
<path d="M192.742 234.813L192.739 234.923C192.723 235.352 193.388 235.378 193.405 234.949L193.409 234.838C193.425 234.409 192.759 234.383 192.742 234.813Z" fill="#6C4E28"/>
<path d="M181.144 241.743C180.538 241.743 179.967 241.645 179.484 241.38C178.295 240.727 177.958 238.947 178.42 237.758C178.862 236.622 179.882 235.783 181.009 235.314C182.135 234.847 183.369 234.709 184.586 234.632C185.424 234.579 186.263 234.553 187.103 234.553C187.887 234.553 188.672 234.576 189.455 234.622C190.464 234.682 191.503 234.791 192.388 235.279C193.274 235.766 193.971 236.728 193.854 237.732C193.844 237.82 193.828 237.906 193.807 237.989C193.516 239.153 192.233 239.863 191.054 240.239C189.021 240.887 187.012 240.606 185.024 241.039C183.951 241.273 182.467 241.743 181.144 241.743ZM182.361 238.647C181.947 238.647 181.928 239.297 182.351 239.312C182.357 239.313 182.361 239.313 182.366 239.313C182.781 239.313 182.8 238.662 182.376 238.647C182.371 238.647 182.366 238.647 182.361 238.647ZM185.612 237.879C185.361 237.879 185.257 238.118 185.307 238.31C185.255 238.417 185.257 238.548 185.362 238.662L185.469 238.776C185.539 238.851 185.62 238.883 185.697 238.883C185.924 238.883 186.13 238.618 185.998 238.39C186.105 238.196 186.027 237.894 185.738 237.884L185.627 237.88C185.622 237.88 185.617 237.879 185.612 237.879ZM191.505 237.778C191.343 237.778 191.183 237.879 191.175 238.087L191.171 238.199C191.162 238.419 191.334 238.533 191.507 238.533C191.668 238.533 191.828 238.431 191.836 238.224L191.84 238.113C191.849 237.892 191.676 237.778 191.505 237.778ZM182.785 236.218C182.371 236.218 182.351 236.868 182.775 236.884C182.781 236.884 182.785 236.884 182.791 236.884C183.204 236.884 183.225 236.235 182.8 236.218C182.796 236.218 182.79 236.218 182.785 236.218ZM185.157 235.196C184.743 235.196 184.723 235.846 185.147 235.862C185.152 235.862 185.157 235.862 185.162 235.862C185.576 235.862 185.596 235.212 185.172 235.196C185.168 235.196 185.162 235.196 185.157 235.196Z" fill="#E7D4D2"/>
<path d="M185.164 235.862C185.159 235.862 185.154 235.862 185.149 235.862C184.725 235.846 184.745 235.196 185.159 235.196C185.164 235.196 185.169 235.196 185.174 235.196C185.598 235.212 185.578 235.862 185.164 235.862Z" fill="#775538"/>
<path d="M182.367 239.313C182.362 239.313 182.358 239.313 182.352 239.313C181.929 239.297 181.948 238.647 182.362 238.647C182.367 238.647 182.372 238.647 182.377 238.647C182.801 238.663 182.782 239.313 182.367 239.313Z" fill="#775538"/>
<path d="M191.508 238.532C191.336 238.532 191.164 238.418 191.172 238.198L191.176 238.086C191.184 237.879 191.344 237.777 191.506 237.777C191.678 237.777 191.85 237.891 191.841 238.112L191.837 238.223C191.83 238.431 191.669 238.532 191.508 238.532Z" fill="#775538"/>
<path d="M185.699 238.883C185.621 238.883 185.541 238.851 185.471 238.776L185.364 238.662C185.258 238.548 185.257 238.417 185.309 238.311C185.258 238.118 185.362 237.879 185.614 237.879C185.619 237.879 185.624 237.88 185.629 237.88L185.74 237.884C186.028 237.894 186.107 238.197 186 238.39C186.131 238.618 185.925 238.883 185.699 238.883Z" fill="#775538"/>
<path d="M182.792 236.884C182.786 236.884 182.782 236.884 182.776 236.884C182.352 236.868 182.372 236.218 182.786 236.218C182.791 236.218 182.796 236.218 182.801 236.218C183.226 236.234 183.205 236.884 182.792 236.884Z" fill="#775538"/>
<path d="M212.425 240.757C210.255 240.757 208.104 240.151 205.963 239.817C205.027 239.67 204.082 239.522 203.197 239.18C202.314 238.839 201.484 238.285 200.979 237.482C200.793 237.187 200.653 236.86 200.574 236.52C200.167 234.768 202.621 233.687 204.113 233.476C204.452 233.428 204.793 233.407 205.133 233.407C206.008 233.407 206.885 233.544 207.748 233.709C209.342 234.015 210.918 234.419 212.465 234.917C213.426 235.227 214.406 235.592 215.141 236.286C215.876 236.981 216.311 238.086 215.947 239.028C215.914 239.111 215.878 239.189 215.837 239.265C215.265 240.32 213.845 240.685 212.609 240.755C212.547 240.756 212.486 240.757 212.425 240.757ZM210.503 237.822C210.341 237.822 210.181 237.923 210.173 238.131L210.168 238.242C210.16 238.462 210.333 238.576 210.504 238.576C210.666 238.576 210.826 238.476 210.835 238.267L210.839 238.156C210.847 237.936 210.674 237.822 210.503 237.822ZM206.751 237.115C206.337 237.115 206.318 237.765 206.741 237.781C206.747 237.781 206.751 237.781 206.757 237.781C207.171 237.781 207.19 237.131 206.766 237.115C206.761 237.115 206.756 237.115 206.751 237.115ZM211.132 235.834C210.718 235.834 210.699 236.484 211.122 236.501L211.233 236.504C211.239 236.504 211.243 236.504 211.249 236.504C211.663 236.504 211.683 235.854 211.259 235.838L211.147 235.834C211.142 235.834 211.137 235.834 211.132 235.834ZM213.581 235.704C213.168 235.704 213.148 236.353 213.572 236.37C213.577 236.37 213.582 236.37 213.587 236.37C214.001 236.37 214.021 235.72 213.597 235.704C213.591 235.704 213.587 235.704 213.581 235.704ZM208.597 235.296C208.183 235.296 208.163 235.945 208.587 235.961C208.592 235.962 208.597 235.962 208.602 235.962C209.016 235.962 209.036 235.311 208.612 235.296C208.607 235.296 208.601 235.296 208.597 235.296Z" fill="#E7D4D2"/>
<path d="M210.506 238.577C210.335 238.577 210.162 238.463 210.17 238.243L210.175 238.132C210.183 237.923 210.343 237.823 210.504 237.823C210.676 237.823 210.849 237.937 210.84 238.157L210.836 238.268C210.828 238.476 210.667 238.577 210.506 238.577Z" fill="#775538"/>
<path d="M213.588 236.371C213.583 236.371 213.578 236.371 213.573 236.371C213.15 236.354 213.169 235.705 213.582 235.705C213.588 235.705 213.592 235.705 213.598 235.705C214.022 235.721 214.002 236.371 213.588 236.371Z" fill="#775538"/>
<path d="M208.603 235.962C208.599 235.962 208.593 235.962 208.589 235.961C208.165 235.945 208.185 235.296 208.598 235.296C208.603 235.296 208.608 235.296 208.614 235.296C209.038 235.311 209.018 235.962 208.603 235.962Z" fill="#775538"/>
<path d="M206.758 237.781C206.753 237.781 206.748 237.781 206.743 237.781C206.319 237.766 206.339 237.115 206.753 237.115C206.757 237.115 206.763 237.115 206.768 237.115C207.192 237.131 207.172 237.781 206.758 237.781Z" fill="#775538"/>
<path d="M211.25 236.505C211.245 236.505 211.24 236.505 211.235 236.505L211.124 236.501C210.7 236.485 210.72 235.835 211.133 235.835C211.138 235.835 211.144 235.835 211.148 235.835L211.26 235.839C211.684 235.854 211.664 236.505 211.25 236.505Z" fill="#775538"/>
<path d="M210.478 214.806C210.776 215.928 211.076 217.103 211.776 218.256C213.361 220.866 215.838 222.899 217.119 225.671C218.775 229.257 218.156 233.448 217.262 237.296C216.479 240.67 215.51 244 214.358 247.266C213.918 248.515 213.276 249.636 213.536 250.978C213.748 252.076 214.671 252.865 214.977 253.931C216.051 257.669 211.406 261.839 208.137 262.904C211.262 267.102 215.712 270.3 220.688 271.923C222.802 272.613 225.884 264.543 226.404 263.311C228.127 259.226 228.475 254.768 226.994 250.528C226.098 247.966 224.615 245.65 223.59 243.137C222.071 239.413 221.592 235.271 222.222 231.298C222.603 228.888 223.384 226.521 223.361 224.081C223.345 222.385 222.94 220.717 222.516 219.074C221.249 214.157 219.752 209.185 216.812 205.043C214.049 201.15 209.14 197.196 204.112 197.956C201.301 198.381 198.589 199.613 196.596 201.666C195.333 202.967 191.727 206.682 195.352 207.67C197.305 208.202 199.347 208.29 201.361 208.49C203.376 208.689 205.424 209.02 207.206 209.982C209.497 211.222 209.984 212.943 210.478 214.806Z" fill="#D17C42"/>
<path d="M189.005 210.156C186.139 210.842 181.355 211.899 180.95 215.302C180.538 218.764 182.372 222.042 181.239 225.669C180.667 227.496 179.351 228.977 178.289 230.572C176.524 233.223 175.414 236.601 176.477 239.605C177.565 242.68 180.699 244.76 181.522 247.917C182.409 251.317 180.35 254.837 180.638 258.338C180.881 261.307 180.544 263.047 177.393 264.12C175.794 264.663 174.086 265.194 172.813 266.372C172.458 266.699 170.041 270.737 171.145 270.958C167.966 270.321 164.288 269.284 163.122 266.258C162.491 264.618 162.806 262.728 163.61 261.167C164.413 259.605 165.662 258.32 166.953 257.128C167.695 256.443 168.474 255.76 168.951 254.869C169.908 253.083 169.452 250.872 168.684 248.999C167.914 247.125 166.846 245.326 166.599 243.316C165.85 237.231 171.74 234.132 173.988 229.267C177.305 222.088 171.077 213.297 173.946 205.926C174.84 203.63 176.537 201.747 178.283 200.008C180.966 197.336 184.101 194.749 187.865 194.326C192.692 193.784 196.581 197.896 198.695 201.7C199.252 202.705 199.755 203.755 200.177 204.824C200.924 206.71 201.21 206.706 199.545 207.593C196.765 209.074 192.388 209.333 189.311 210.082C189.212 210.107 189.111 210.131 189.005 210.156Z" fill="#D17C42"/>
<path d="M178.732 395.101L198.389 459.822L219.37 498.338L234.846 496.204L227.904 447.051L237.338 394.764L178.732 395.101Z" fill="#116B84"/>
<path d="M218.402 500.039C218.9 501.146 219.452 502.223 220.058 503.267C221.48 505.718 220.779 507.185 220.45 509.878C220.161 512.24 220.435 514.789 221.754 516.711C223.308 518.974 226.094 519.999 228.725 519.896C233.393 519.716 234.755 515.551 236.321 511.466C237.053 509.558 237.785 507.65 238.516 505.742C239.057 504.33 239.533 502.514 238.516 501.44C238.212 501.118 237.802 500.912 237.548 500.542C237.323 500.215 237.25 499.799 237.183 499.4C236.778 497.002 236.491 494.522 235.913 492.173C232.668 492.436 229.684 492.163 226.353 492.639C223.436 493.057 220.537 493.621 217.67 494.329C217.303 494.42 216.885 494.558 216.744 494.929C216.641 495.197 216.721 495.5 216.805 495.776C217.248 497.233 217.782 498.658 218.402 500.039Z" fill="#363636"/>
<path d="M155.457 392.778L161.299 465.652L174.218 526.865L186.933 524.616L189.596 475.41L202.615 396.212L155.457 392.778Z" fill="#116B84"/>
<path d="M172.94 525.081C173.399 527.285 173.698 529.822 172.622 531.502C171.446 533.337 169.11 533.868 168.322 536.182C167.992 537.151 168.072 538.222 168.25 539.235C168.383 539.992 168.582 540.768 169.054 541.354C169.832 542.321 171.137 542.536 172.325 542.687C174.17 542.921 176.041 543.154 177.878 542.868C181.044 542.376 183.748 540.405 186.15 538.268C188.186 536.458 190.319 535.009 190.172 531.76C190.128 530.788 189.796 529.862 189.514 528.936C188.774 526.51 188.354 523.972 188.271 521.422C182.984 521.873 177.698 522.323 172.411 522.774C172.566 523.451 172.764 524.242 172.94 525.081Z" fill="#363636"/>
<path d="M175.181 264.434C175.061 264.587 174.941 264.745 174.82 264.909C172.091 268.587 170.078 272.69 168.302 276.896C152.848 313.485 149.246 353.944 148.666 393.657C148.55 401.639 150.738 403.052 158.072 403.055C166.521 403.058 174.973 403.164 183.423 403.219C193.271 403.282 203.119 403.346 212.966 403.409C217.611 403.439 235.586 406.274 238.28 401.98C239.14 400.609 239.136 398.889 239.103 397.272C238.914 387.911 238.664 378.552 238.355 369.195C237.259 336.021 235.18 301.911 221.11 271.849C218.65 266.592 211.988 253.696 204.367 258.353C203.308 259.001 202.441 259.913 201.515 260.741C199.094 262.908 195.884 264.609 192.692 263.998C190.08 263.498 187.982 261.545 186.371 259.429C186.093 259.065 185.794 258.669 185.354 258.541C184.972 258.43 184.563 258.544 184.183 258.664C180.013 259.971 177.701 261.198 175.181 264.434Z" fill="#B3B8E2"/>
</svg>
