<svg width="737" height="569" viewBox="0 0 737 569" fill="none" xmlns="http://www.w3.org/2000/svg">
<path d="M383.596 568.647C336.079 568.647 288.553 568.097 241.05 566.996C193.202 565.887 145.366 564.22 97.5568 561.994C95.193 561.884 92.435 561.851 89.3753 561.851C87.0753 561.851 84.6044 561.87 82.0034 561.888C79.3986 561.907 76.6645 561.926 73.8365 561.926C46.3029 561.926 10.0542 560.147 1.50627 539.273C0.545636 536.925 0.280842 534.379 0.982845 531.64C3.52299 521.732 15.5764 520.673 25.6399 520.673C27.0078 520.673 28.341 520.693 29.6064 520.713C30.8726 520.732 32.0734 520.752 33.1796 520.752C33.89 520.752 34.5612 520.743 35.1863 520.722C38.8856 520.595 43.0523 519.76 45.0151 516.623C46.6446 514.019 46.1936 510.571 44.8865 507.791C40.1511 497.719 27.348 495.187 16.4977 492.711C6.87829 490.516 -8.01466 478.235 5.26106 469.149C9.88104 465.987 15.8388 465.776 21.4364 465.675C93.0954 465.675 164.854 463.094 236.503 461.805C258.182 461.415 279.762 461.267 301.308 461.267C349.942 461.267 398.378 462.023 447.225 462.46C451.775 462.501 457.49 463.37 458.755 467.74C460.974 475.396 446.526 479.257 447.113 487.207C447.542 493.02 455.204 494.673 461.044 494.673C461.061 494.673 461.078 494.673 461.095 494.673C515.218 494.586 569.396 490.883 623.471 490.883C645.537 490.883 667.591 491.5 689.611 493.231C703.612 494.332 718.791 496.44 728.629 506.474C757.44 535.871 704.12 548.635 685.546 552.839C636.669 569.131 578.92 565.755 528.191 566.948C479.998 568.081 431.802 568.647 383.596 568.647Z" fill="#F0F2F3"/>
<path d="M564.468 212.904C564.294 212.749 564.127 212.588 563.974 212.414C563.35 211.703 563.001 210.623 563.559 209.828C565.374 207.238 569.559 212.06 568.893 207.57C568.71 206.345 563.839 200.506 564.314 199.854C566.738 196.525 572.359 195.254 575.103 198.466C576.961 200.641 577.619 203.83 578.068 206.489C578.766 210.618 578.829 214.852 579.683 218.949C579.762 219.325 579.843 219.734 579.665 220.088C579.495 220.426 579.128 220.632 578.782 220.817C576.266 222.159 572.454 224.568 569.773 222.279C569.4 221.958 569.216 221.488 569.045 221.035C568.555 219.736 568.065 218.437 567.574 217.139C567.199 216.144 566.81 215.126 566.09 214.326C565.612 213.796 565.006 213.382 564.468 212.904Z" fill="#EACDA4"/>
<path d="M590.574 254.81C590.002 252.985 589.354 251.039 588.755 248.813C588.035 246.131 581.76 216.181 581.71 216.193C580.709 216.429 565.9 220.251 565.706 219.22C567.27 227.528 568.835 235.835 570.399 244.143C573.131 258.647 571.457 270.553 558.629 278.665C553.542 281.883 547.953 284.162 542.622 286.933C541.772 287.375 540.895 287.86 540.36 288.67C539.462 290.031 539.79 291.857 540.177 293.46C542.646 303.68 546.122 313.65 550.534 323.166C552.614 327.865 556.057 332.375 558.66 336.818C559.186 337.717 559.908 338.731 560.925 338.694C561.98 338.657 562.616 337.519 563.048 336.531C569.547 321.651 576.047 306.771 582.547 291.891C587.745 279.99 594.752 268.173 590.574 254.81Z" fill="#A7CEB9"/>
<path d="M498.784 210.518C498.97 210.378 499.15 210.231 499.317 210.071C499.998 209.414 500.436 208.367 499.948 207.528C498.356 204.796 493.78 209.25 494.821 204.832C495.104 203.627 500.447 198.216 500.028 197.527C497.892 194.007 492.397 192.269 489.394 195.241C487.36 197.252 486.438 200.376 485.768 202.989C484.728 207.044 484.31 211.257 483.117 215.269C483.006 215.637 482.891 216.038 483.039 216.405C483.18 216.756 483.529 216.992 483.859 217.205C486.253 218.753 489.851 221.473 492.713 219.416C493.112 219.127 493.334 218.675 493.543 218.237C494.139 216.984 494.737 215.73 495.334 214.477C495.792 213.517 496.264 212.536 497.049 211.799C497.57 211.31 498.209 210.948 498.784 210.518Z" fill="#EACDA4"/>
<path d="M469.265 250.094C469.986 248.324 470.795 246.439 471.578 244.27C472.52 241.658 481.278 212.337 481.327 212.354C482.304 212.672 496.743 217.719 497.022 216.708C494.768 224.857 492.514 233.004 490.26 241.152C486.325 255.377 486.998 267.381 499.102 276.538C503.903 280.169 509.282 282.907 514.362 286.116C515.172 286.627 516.006 287.183 516.47 288.035C517.252 289.465 516.772 291.258 516.252 292.823C512.937 302.802 508.64 312.446 503.447 321.559C500.982 326.068 497.173 330.274 494.208 334.485C493.608 335.335 492.804 336.287 491.794 336.164C490.746 336.038 490.207 334.851 489.86 333.83C484.627 318.459 479.395 303.088 474.162 287.717C469.978 275.422 463.983 263.062 469.265 250.094Z" fill="#A7CEB9"/>
<path d="M527.243 280.06C523.92 279.627 520.51 279.313 517.246 280.092C512.863 281.138 509.128 284.073 506.05 287.415C498.788 295.302 494.589 305.542 490.991 315.697C486.589 328.121 482.859 340.789 479.823 353.625C476.074 369.469 473.375 385.819 475.055 402.01C475.172 403.139 475.334 404.325 476.01 405.227C476.804 406.284 478.14 406.735 479.406 407.072C484.502 408.43 489.788 408.867 495.043 409.283C514.834 410.847 534.641 412.201 554.46 413.344C555.61 413.41 556.845 413.454 557.82 412.829C559.133 411.985 559.516 410.247 559.767 408.691C561.918 395.373 562.935 381.869 562.806 368.381C562.7 357.337 561.827 346.321 560.954 335.315C560.279 326.799 559.605 318.284 558.93 309.768C558.501 304.361 558.041 298.826 555.822 293.895C550.784 282.696 537.851 281.441 527.243 280.06Z" fill="#A7CEB9"/>
<path d="M551.717 224.001C547.715 221.808 543.217 220.446 538.718 219.552C534.905 218.794 530.987 218.337 527.129 218.816C520.896 219.59 515.016 222.899 511.12 227.826C506.559 233.594 504.87 241.071 503.576 248.311C502.614 253.688 501.795 259.118 501.671 264.589C501.611 267.212 501.59 269.984 502.019 272.581C502.4 274.883 503.753 275.374 505.817 276.423C515.671 281.431 526.86 283.083 537.783 283.683C541.373 283.88 545.196 284.299 548.484 282.796C552.384 281.013 556.605 279.806 560.612 278.256C561.463 277.927 562.343 277.58 562.977 276.922C563.718 276.153 564.018 275.072 564.282 274.037C566.327 266.03 567.838 257.756 567.078 249.526C566.317 241.296 563.068 233.045 556.866 227.581C555.286 226.189 553.554 225.008 551.717 224.001Z" fill="#1A1A1A"/>
<path d="M556.857 256.917C557.467 255.473 557.544 253.819 557.45 252.233C557.326 250.16 555.778 245.832 553.262 247.783C553.131 247.885 553.016 248.027 552.907 248.185C552.852 247.881 552.796 247.576 552.746 247.266C552.222 243.95 552.583 240.492 551.411 237.32C550.626 235.194 549.199 233.336 547.759 231.538C546.814 230.36 545.835 229.173 544.56 228.318C539.665 225.035 533.224 224.537 527.622 226.065C523.984 227.057 520.533 229.443 518.326 232.513C517.823 233.213 512.226 241.738 514.096 242.152C511.031 241.475 509.226 243.162 508.421 246.144C508.008 247.677 507.748 249.313 508.053 250.85C508.342 252.303 509.23 253.636 510.464 254.048C509.684 256.566 509.287 259.153 509.793 261.967C510.602 266.457 513.098 270.787 517.321 273.198C519.448 274.412 521.788 276.285 522.6 278.692C523.042 280 523.112 281.4 523.141 282.779C523.161 283.806 523.175 284.884 523.681 285.777C524.563 287.331 526.563 287.765 528.328 288.044C530.478 288.383 532.991 288.613 534.525 287.069C535.89 285.696 535.874 283.496 536.696 281.744C538.285 278.358 542.925 276.696 545.918 274.772C549.4 272.535 552.224 269.291 553.773 265.437C554.66 263.228 554.945 261.19 554.904 259.21C555.742 258.742 556.444 257.893 556.857 256.917Z" fill="#EACDA4"/>
<path d="M519.365 236.756C519.353 236.985 519.347 237.234 519.48 237.418C519.749 237.793 520.33 237.642 520.756 237.468C528.083 234.449 536.36 235.368 544.225 236.343C546.383 236.61 548.913 237.145 549.772 239.143C550.464 236.581 551.158 234.019 551.851 231.457C552.046 230.739 552.233 229.942 551.894 229.281C551.653 228.81 551.189 228.502 550.738 228.226C544.67 224.514 537.476 222.906 530.363 222.789C527.03 222.735 522.736 223.276 520.663 226.306C518.855 228.949 519.527 233.741 519.365 236.756Z" fill="#1A1A1A"/>
<path d="M553.3 254.04C553.291 254.687 553.265 255.334 553.221 255.981C552.801 262.235 550.436 268.664 545.482 272.504C546.331 271.847 549.235 273.111 550.16 273.254C552.371 273.592 554.659 273.606 556.882 273.381C557.258 273.343 557.654 273.289 557.955 273.058C558.302 272.79 558.449 272.343 558.576 271.924C560.235 266.478 561.909 260.939 561.956 255.246C562.01 248.965 560.083 242.855 558.128 236.886C557.392 234.64 556.554 232.257 554.675 230.823C552.767 229.369 550.084 229.114 547.765 229.152C548.983 229.132 550.359 232.856 550.626 233.76C551.188 235.673 551.385 237.752 551.727 239.714C552.549 244.444 553.369 249.228 553.3 254.04Z" fill="#1A1A1A"/>
<path d="M513.988 246.622C513.813 247.245 513.654 247.872 513.513 248.505C512.145 254.622 512.592 261.458 516.255 266.544C515.627 265.672 512.484 266.064 511.557 265.937C509.341 265.636 507.142 265.001 505.075 264.156C504.724 264.013 504.36 263.849 504.137 263.543C503.879 263.188 503.865 262.717 503.862 262.278C503.813 256.586 503.777 250.8 505.343 245.328C507.071 239.288 510.65 233.974 514.216 228.803C515.557 226.856 517.036 224.809 519.245 223.966C521.486 223.111 524.131 223.626 526.344 224.32C525.182 223.956 522.806 227.139 522.296 227.929C521.215 229.604 520.437 231.542 519.554 233.327C517.424 237.631 515.284 241.987 513.988 246.622Z" fill="#1A1A1A"/>
<path d="M538.618 451.736L534.75 495.65L522.929 542.88L510.758 539.65L513.328 492.641L511.803 463.283L538.618 451.736Z" fill="#EACDA4"/>
<path d="M524.326 541.368C523.687 543.34 523.176 545.629 524.077 547.262C525.061 549.047 527.287 549.749 527.852 551.935C528.088 552.849 527.917 553.82 527.656 554.728C527.461 555.407 527.2 556.098 526.69 556.589C525.849 557.401 524.561 557.475 523.393 557.503C521.578 557.546 519.739 557.586 517.976 557.155C514.94 556.412 512.481 554.362 510.331 552.188C508.508 550.346 506.559 548.826 506.985 545.873C507.113 544.989 507.515 544.175 507.871 543.355C508.802 541.208 509.43 538.929 509.733 536.609C514.836 537.51 519.938 538.41 525.041 539.312C524.831 539.915 524.57 540.619 524.326 541.368Z" fill="#1A1A1A"/>
<path d="M459.773 420.043L431.79 454.105L407.162 496.105L418.114 502.32L449.19 466.955L470.835 447.061L459.773 420.043Z" fill="#EACDA4"/>
<path d="M407.222 494.048C406.299 495.902 405.06 497.894 403.274 498.43C401.322 499.016 399.241 497.958 397.307 499.123C396.498 499.61 395.94 500.423 395.491 501.254C395.155 501.877 394.858 502.552 394.878 503.259C394.91 504.428 395.777 505.382 396.593 506.221C397.858 507.522 399.143 508.838 400.704 509.765C403.392 511.36 406.583 511.618 409.64 511.571C412.231 511.531 414.688 511.811 416.45 509.404C416.978 508.684 417.261 507.82 417.581 506.987C418.42 504.801 419.566 502.735 420.974 500.866C416.7 497.936 412.426 495.008 408.152 492.078C407.879 492.656 407.573 493.342 407.222 494.048Z" fill="#1A1A1A"/>
<path d="M412.047 486.868L438.742 416.037L475.265 381.581L481.438 383.821C484.063 375.741 488.32 368.671 491.526 360.674C495.708 350.242 498.8 339.214 501.492 328.316C501.746 327.284 502.048 326.162 502.793 325.555C503.469 325.003 504.335 325.021 505.137 325.061C505.391 325.074 505.645 325.093 505.899 325.107C508.546 311.417 510.732 297.639 512.436 283.799C512.724 281.454 511.543 281.64 513.399 280.108C513.955 279.648 519.807 279.179 519.802 279.247C518.707 294.772 517.612 310.296 516.517 325.821C523.385 326.378 530.238 327.12 537.069 328.04C538.839 312.376 540.61 296.712 542.38 281.048C542.389 280.979 548.058 282.506 548.521 283.059C550.066 284.904 548.938 284.505 548.796 286.864C547.934 301.099 547.578 315.364 547.713 329.624C548.146 329.695 548.581 329.759 549.014 329.831C549.935 329.968 552.173 354.901 552.529 357.394C553.721 365.748 554.5 373.152 557.271 381.119C558.215 383.836 558.506 389.8 558.231 395.596L566.196 395.678L550.386 475.204L525.907 532.865L506.295 529.777L500.773 449.137L428.212 498.394L412.047 486.868Z" fill="#6F6357"/>
<path d="M618.12 151.805H620.3C629.601 151.805 637.14 144.265 637.14 134.964C637.14 125.664 629.601 118.124 620.3 118.124H616.196C625.497 118.124 633.036 110.584 633.036 101.284C633.036 91.9829 624.866 84.4433 615.565 84.4433H602.969H582.465C572.425 79.9234 569.174 71.982 568.794 63.277C568.503 56.5987 569.901 49.4701 571.211 43.0959C572.922 34.7796 573.813 26.0854 571.137 17.9708C568.46 9.85621 561.577 2.39356 552.272 0.426108C549.358 -0.190455 546.172 -0.231245 543.481 0.932603C539.135 2.81231 537.077 7.4038 536.967 11.6774C536.858 15.951 538.284 20.1222 539.053 24.3427C540.154 30.3783 539.885 36.6871 537.546 42.4409C533.011 53.599 521.573 61.2033 510.968 68.4674C505.014 72.5447 499.331 77.0338 493.983 81.8485C491.816 83.7998 491.11 85.3408 490.023 88.1411C489.683 89.0171 488.624 93.2653 487.314 93.2653C486.882 93.2653 440.068 93.2653 440.068 93.2653V197.615C447.6 197.615 455.132 197.615 462.664 197.615C471.836 197.615 484.53 194.906 491.337 202.278C492.879 203.947 494.149 205.908 496.002 207.222C501.916 211.413 513.074 209.334 519.835 209.32C547.546 209.266 575.258 209.26 602.969 209.26H612.719C619.284 209.26 624.606 203.938 624.606 197.373C624.606 190.808 619.284 185.486 612.719 185.486H617.456H618.12C627.421 185.486 634.961 177.945 634.961 168.644C634.961 159.344 627.421 151.805 618.12 151.805Z" fill="#C64B71"/>
<path d="M467.27 212.055H430.403C428.501 212.055 426.959 210.513 426.959 208.611V84.4155C426.959 82.5135 428.501 80.9717 430.403 80.9717H467.27C469.172 80.9717 470.713 82.5135 470.713 84.4155V208.611C470.713 210.513 469.172 212.055 467.27 212.055Z" fill="#9B2958"/>
<path d="M273.381 171.818C274.194 169.001 275.007 166.186 275.681 163.333C274.985 161.668 274.285 160.007 273.583 158.344C274.171 155.825 274.687 153.284 275.321 150.778C276.092 150.766 279.373 150.964 279.502 151.727C279.778 153.36 279.532 154.577 280.62 155.896C282.415 153.943 283.605 151.901 284.517 149.36C285.313 147.146 285.658 144.52 288.591 146.027C289.378 146.431 290.003 147.283 290.448 148.144C291.576 150.322 292.068 152.663 291.799 155.134C291.588 157.082 290.975 158.837 291.265 160.82C291.313 161.147 291.495 161.337 291.346 161.783C290.985 162.862 289.133 164.478 288.446 165.199C287.76 165.921 286.533 167.465 286.383 167.788C284.968 170.845 283.895 173.08 282.422 175.806C279.414 174.469 276.364 173.213 273.381 171.818Z" fill="#EACDB0"/>
<path d="M255.247 201.933C258.171 198.329 259.847 193.34 261.868 189.052C265.463 181.426 269.217 175.035 273.8 168.161C275.114 168.443 291.834 175.361 291.894 175.171C288.072 187.391 284.251 199.611 280.429 211.831C279.064 216.199 277.638 220.682 274.757 224.238C266.402 234.555 251.119 238.317 238.748 241.484C224.891 245.03 210.403 246.859 196.096 246.02C192.901 245.832 190.234 244.912 187.486 243.834C180.462 241.078 178.523 234.05 179.099 226.739C179.453 222.236 181.621 217.696 185.491 215.367C188.769 213.395 192.777 213.208 196.596 213.013C213.805 212.131 230.948 209.977 247.84 206.575C251.07 205.924 253.406 204.204 255.247 201.933Z" fill="#CE8D95"/>
<path d="M204.584 481.628C204.323 487.609 202.949 492.873 206.389 498.039C207.124 499.142 207.957 500.23 209.1 500.903C209.774 501.299 210.533 501.536 211.205 501.936C211.802 502.291 212.32 502.766 212.915 503.123C215.415 504.619 218.617 503.735 221.328 502.666C222.669 502.138 224.231 501.22 224.142 499.781C224.094 499.008 223.559 498.37 223.083 497.759C221.482 495.705 220.3 493.325 219.63 490.808C219.386 489.888 212.705 477.965 213.167 477.758L204.584 481.628Z" fill="#3A3029"/>
<path d="M237.02 329.659L233.562 402.779L219.047 485.003L203.348 485.135L197.913 404.949L184.877 344.335L237.02 329.659Z" fill="#4E4E4E"/>
<path d="M133.597 470.68C134.1 472.081 134.809 473.408 135.602 474.669C137.964 478.429 141.108 481.688 144.772 484.172C145.447 484.631 146.177 485.076 146.989 485.13C149.05 485.268 150.406 482.917 150.639 480.849C151.123 476.547 149.125 472.489 148.958 468.236C148.81 464.501 149.238 463.864 146.27 461.591C145.474 460.981 138.274 455.429 138.619 454.862C135.567 459.878 131.445 462.501 133.199 469.387C133.31 469.824 133.444 470.256 133.597 470.68Z" fill="#3A3029"/>
<path d="M150.5 467.125C150.208 467.466 149.914 467.807 149.621 468.148C149.365 468.447 149.091 468.757 148.76 468.852C148.262 468.995 147.8 468.613 147.403 468.246C143.354 464.501 139.452 460.503 135.715 456.269C141.093 443.549 146.471 430.831 151.849 418.111C153.012 415.361 154.193 412.545 154.604 409.515C155.137 405.589 154.33 401.707 153.588 397.948C151.595 387.844 150.027 377.568 148.894 367.177C148.145 360.293 147.61 353.063 149.493 346.318C151.01 340.885 153.973 336.224 155.898 330.979C156.756 328.639 157.473 326.068 159.033 324.402C160.841 322.469 161.946 323.647 163.632 324.145C165.648 324.74 167.845 325.509 170.359 325.677C176.42 326.081 182.467 326.635 188.497 327.334C190.801 327.602 198.374 326.946 199.943 328.929C201.53 330.935 199.794 340.217 199.602 343.141C198.202 364.409 196.129 385.661 193.39 406.826C193.195 408.327 192.995 409.841 192.548 411.272C192.071 412.796 191.327 414.177 190.574 415.524C187.545 420.949 184.238 426.13 180.684 431.018C176.075 437.357 171.064 443.191 166.061 449.014C160.874 455.051 155.687 461.088 150.5 467.125Z" fill="#4E4E4E"/>
<path d="M159.591 168.002C158.278 166.324 157.393 164.32 157.061 162.214C156.791 160.504 156.619 158.487 157.884 157.304C158.819 156.431 160.287 156.348 161.497 156.765C162.613 157.148 163.569 157.915 164.519 158.576C166.857 155.781 166.086 149.836 167.83 146.367C169.028 143.987 170.955 141.99 172.89 140.064C174.16 138.801 175.471 137.533 177.093 136.684C183.318 133.424 191.037 133.573 197.503 135.982C211.207 141.087 210.756 156.227 212.843 168.236C214.503 177.796 214.344 187.337 203.883 191.906C201.204 193.075 198.191 194.986 196.925 197.691C196.236 199.16 195.979 200.779 195.774 202.378C195.621 203.569 195.472 204.82 194.759 205.8C193.518 207.507 191.086 207.786 188.954 207.909C186.357 208.06 183.341 208.041 181.71 206.074C179.625 203.56 180.334 199.483 178.677 196.663C177.307 194.331 175.162 192.95 173.408 191.031C171.608 189.059 169.991 186.846 168.179 184.85C165.794 182.221 163.446 179.23 163.779 175.514C163.897 174.203 164.251 172.753 163.517 171.659C163.158 171.124 162.591 170.772 162.068 170.394C161.131 169.716 160.299 168.907 159.591 168.002Z" fill="#EACDB0"/>
<path d="M156.995 139.627C159.439 135.857 162.786 132.615 166.632 130.2C169.661 128.298 172.884 126.56 176.408 125.95C178.697 125.553 182.208 126.119 185.923 126.685C192.837 127.738 200.457 128.792 202.23 123.643C203.247 120.691 208.002 119.838 210.008 122.247C210.605 122.965 210.953 123.855 211.566 124.56C212.18 125.266 213.236 125.768 214.092 125.347C215.216 124.793 215.201 123.13 216.204 122.39C217.452 121.47 219.322 122.7 219.69 124.165C219.902 125.007 219.49 125.97 219.686 126.739C219.837 127.329 220.286 127.553 220.482 128.11C220.925 129.368 221.397 130.425 220.589 131.716C220.266 132.228 219.805 132.659 219.544 133.202C219.04 134.247 219.373 135.459 219.424 136.606C219.535 139.13 218.229 141.469 216.577 143.497C217.459 145.955 218.092 148.543 217.915 150.998C217.62 155.083 214.552 159.73 212.935 163.472C212.136 162.321 211.925 160.879 211.566 159.523C210.809 156.659 209.298 153.995 207.229 151.874C206.211 150.831 205.066 149.908 204.123 148.8C203.959 148.841 203.795 148.882 203.638 148.926C202.648 149.2 201.633 149.477 200.609 149.404C198.58 149.26 196.554 149.31 194.503 149.358C193.032 149.393 191.548 149.428 190.043 149.392C186.315 149.302 182.494 149.32 178.988 150.588C175.48 151.855 172.296 154.616 171.514 158.262C171.162 159.902 171.199 161.844 169.902 162.905C167.427 164.928 165.714 163.237 164.062 161.545C162.694 160.146 161.367 158.746 159.683 159.453C156.966 160.596 158.927 164.988 160.084 166.689C161.111 168.198 162.527 169.414 163.53 170.94C164.533 172.467 165.066 174.527 164.136 176.098C163.917 176.468 163.574 176.819 163.144 176.836C162.634 176.856 162.241 176.411 161.932 176.003C157.6 170.281 153.965 163.791 152.973 156.681C152.114 150.525 153.766 144.613 156.995 139.627Z" fill="#3A3029"/>
<path d="M240.232 319.117C239.562 310.585 238.585 302.07 237.987 293.508C237.392 284.979 236.585 276.466 235.491 267.995C233.159 249.931 229.298 232.098 218.108 217.444C215.662 214.239 213.028 210.797 209.549 208.644C207.188 207.182 203.491 206.899 201.592 204.823C200.224 203.326 200.227 200.454 200.667 198.56C193.877 198.444 186.492 198.548 179.475 198.174C173.969 197.884 175.068 200.702 172.955 204.38C170.689 208.327 165.024 210.284 161.829 213.258C158.867 216.016 156.717 219.653 154.869 223.382C151.829 229.521 149.483 236.079 148.076 242.879C146.721 249.428 146.24 256.148 145.86 262.847C144.544 286.042 144.384 309.315 145.381 332.529C145.555 336.604 145.151 342.341 146.647 346.146C148.171 350.024 152.501 349.478 156.354 350.057C165.354 351.411 174.437 352.097 183.523 352.12C201.693 352.165 219.872 349.554 237.391 344.316C238.375 344.022 239.418 343.678 240.073 342.829C240.791 341.897 240.869 340.584 240.904 339.369C241.096 332.587 240.76 325.846 240.232 319.117Z" fill="#CE8D95"/>
<path d="M212.988 169.116C212.941 168.823 212.892 168.53 212.841 168.236C212.366 165.502 212.022 162.606 211.613 159.704C211.945 161.005 212.172 162.371 212.935 163.472C213.12 163.044 213.324 162.605 213.54 162.155C214.067 163.313 214.344 164.612 214.22 165.926C214.083 167.377 213.594 168.397 212.988 169.116Z" fill="#DDF1FA"/>
<path d="M208.826 170.91C206.791 170.909 204.734 169.953 203.523 168.274C202.578 166.961 201.767 164.661 203.324 161.317C204.237 159.356 206.108 157.875 208.132 157.875C208.177 157.875 208.222 157.876 208.267 157.877C208.895 157.898 209.536 158.062 210.167 158.399C210.635 158.648 211.095 158.978 211.528 159.373C211.541 159.423 211.555 159.473 211.568 159.523C211.584 159.583 211.599 159.643 211.615 159.704C212.023 162.605 212.367 165.502 212.842 168.235C212.893 168.529 212.942 168.823 212.989 169.116C212.258 169.984 211.356 170.413 210.696 170.624C210.092 170.817 209.46 170.91 208.826 170.91Z" fill="#CBC8B8"/>
<path d="M212.936 163.473C212.173 162.372 211.946 161.006 211.614 159.705C211.599 159.644 211.584 159.584 211.567 159.524C211.554 159.474 211.541 159.424 211.527 159.375C212.334 160.11 213.048 161.072 213.541 162.156C213.325 162.606 213.121 163.045 212.936 163.473Z" fill="#374447"/>
<path d="M189.013 172.325C186.313 172.325 183.604 171.241 182.02 169.319C180.763 167.795 179.712 165.114 181.902 161.212C183.177 158.939 185.72 157.235 188.426 157.235C188.496 157.235 188.565 157.236 188.635 157.238C189.475 157.265 190.328 157.459 191.163 157.851C194.154 159.257 196.852 162.833 196.389 166.52C195.926 170.205 193.232 171.509 191.617 171.97C190.777 172.21 189.896 172.325 189.013 172.325Z" fill="#CBC8B8"/>
<path d="M196.386 166.52C195.924 170.205 193.229 171.509 191.615 171.97C188.201 172.945 184.119 171.869 182.017 169.319C180.761 167.795 179.709 165.114 181.899 161.212C183.207 158.881 185.849 157.147 188.633 157.238C189.473 157.266 190.325 157.459 191.16 157.851C194.152 159.256 196.849 162.833 196.386 166.52ZM191.397 157.201C187.426 155.316 183.065 157.481 181.186 160.806C179.304 164.133 179.374 167.37 181.389 169.8C183.282 172.084 186.624 173.281 189.795 173.037C190.479 172.984 191.155 172.865 191.807 172.675C194.797 171.805 196.667 169.609 197.036 166.644C197.536 162.629 194.63 158.736 191.397 157.201Z" fill="#333333"/>
<path d="M214.221 165.927C213.917 169.127 211.901 170.238 210.695 170.624C208.155 171.436 205.11 170.478 203.522 168.274C202.577 166.962 201.766 164.662 203.323 161.317C204.256 159.313 206.191 157.81 208.266 157.877C208.894 157.898 209.535 158.063 210.166 158.399C212.436 159.61 214.524 162.72 214.221 165.927ZM210.336 157.835C207.341 156.223 204.133 158.107 202.792 160.969C201.455 163.82 201.552 166.592 203.066 168.684C204.494 170.655 206.986 171.712 209.347 171.531C209.857 171.491 210.362 171.394 210.848 171.235C213.087 170.507 214.473 168.614 214.714 166.038C215.042 162.543 212.791 159.158 210.336 157.835Z" fill="#333333"/>
<path d="M202.091 164.459C201.55 163.509 200.537 163.105 199.57 163.212C198.688 163.309 197.198 163.983 196.948 164.998C196.909 165.156 197.051 165.304 197.191 165.304C197.901 165.306 198.413 164.636 199.043 164.382C199.857 164.052 200.779 164.133 201.33 164.997C201.686 165.556 202.419 165.035 202.091 164.459Z" fill="black"/>
<path d="M408.047 306.267H410.64C421.702 306.267 430.669 297.306 430.669 286.253C430.669 275.199 421.702 266.239 410.64 266.239H405.758C416.82 266.239 425.787 257.278 425.787 246.224C425.787 235.171 416.07 226.21 405.009 226.21H390.028H365.641C353.7 220.839 349.833 211.401 349.382 201.055C349.036 193.118 350.697 184.647 352.257 177.071C354.291 167.187 355.351 156.854 352.168 147.21C348.984 137.566 340.798 128.697 329.731 126.359C326.266 125.627 322.476 125.577 319.276 126.961C314.107 129.194 311.659 134.651 311.529 139.73C311.399 144.809 313.095 149.767 314.01 154.783C315.319 161.956 315 169.454 312.217 176.292C306.824 189.552 293.22 198.59 280.607 207.223C273.526 212.069 266.766 217.405 260.406 223.127C257.829 225.446 256.989 227.277 255.696 230.604C255.292 231.646 254.033 236.695 252.475 236.695C251.96 236.695 196.283 236.695 196.283 236.695V360.711C205.242 360.711 214.199 360.711 223.157 360.711C234.066 360.711 249.163 357.491 257.259 366.253C259.093 368.237 260.603 370.567 262.807 372.128C269.841 377.109 283.112 374.639 291.153 374.622C324.111 374.558 357.069 374.551 390.028 374.551H401.624C409.432 374.551 415.762 368.226 415.762 360.424C415.762 352.621 409.432 346.296 401.624 346.296H407.257H408.047C419.109 346.296 428.076 337.336 428.076 326.281C428.076 315.228 419.109 306.267 408.047 306.267Z" fill="#B0DAED"/>
<path d="M239.651 375.162H190.333C188.43 375.162 186.889 373.62 186.889 371.718V210.22C186.889 208.318 188.43 206.776 190.333 206.776H239.651C241.553 206.776 243.094 208.318 243.094 210.22V371.718C243.094 373.62 241.553 375.162 239.651 375.162Z" fill="#3C5D84"/>
<path d="M207.189 261.84L214.877 258.914L217.507 254.922L223.891 252.492C223.891 252.492 225.792 255.986 225.295 256.177C224.142 256.622 223.165 257.714 222.847 258.854C225.197 259.663 229.721 259.252 231.699 257.758C233.587 256.332 235.792 257.848 235.404 260.201C235.24 261.192 234.687 262.073 234.102 262.89C232.554 265.058 230.713 266.996 228.879 268.927C228.291 269.547 227.648 270.196 226.813 270.368C226.277 270.478 225.723 270.376 225.185 270.274C221.911 269.652 218.589 268.621 215.329 269.091C213.076 269.417 210.765 270.116 208.509 270.554L207.189 261.84Z" fill="#EACDB0"/>
<path d="M172.624 258C175.94 260.724 182.287 259.599 186.207 259.353C188.503 259.208 209.377 255.257 209.925 256.249C211.678 259.329 212.789 262.791 213.145 266.319C213.606 270.878 213.235 271.042 209.304 272.713C202.731 275.506 195.413 277.232 188.485 278.899C180.025 280.936 171.919 284.266 163.458 286.337C156.719 287.988 142.416 292.067 139.099 283.132C138.098 280.436 138.264 277.463 138.526 274.598C139.344 265.684 140.967 256.845 143.371 248.224C144.503 244.159 145.859 240.047 148.46 236.726C154.428 229.106 169.868 228.885 172.347 239.973C173.752 246.257 167.224 252.341 172.117 257.527C172.276 257.696 172.447 257.854 172.624 258Z" fill="#CE8D95"/>
</svg>
